# MagicaVoxel @ Ephtracy

# group
o 

# material
mtllib Robot.vox-4.mtl
usemtl palette

# normals
vn 1 0 0
vn -1 0 0
vn 0 0 1
vn 0 0 -1
vn 0 -1 0
vn 0 1 0

# texcoords
vt 0.916016 0.5
vt 0.970703 0.5
vt 0.978516 0.5

# verts
v 1.9 0.6 0.9
v 1.9 0.6 0.7
v 1.9 0.6 -0.3
v 1.9 0.7 0.8
v 1.9 0.7 0.7
v 1.9 0.7 -0.2
v 1.9 0.8 0.9
v 1.9 0.8 0.8
v 1.9 0.8 -0.2
v 1.9 0.8 -0.3
v 1.8 0.6 0.9
v 1.8 0.6 0.8
v 1.8 0.8 0.9
v 1.8 0.8 0.8
v 1.7 0.6 0.8
v 1.7 0.6 0.7
v 1.7 0.6 -0.3
v 1.7 0.8 0.8
v 1.7 0.8 0.7
v 1.7 0.8 -0.3
v 1.9 0.6 0.9
v 1.9 0.8 0.9
v 1.8 0.6 0.9
v 1.8 0.8 0.9
v 1.8 0.6 0.8
v 1.8 0.8 0.8
v 1.7 0.6 0.8
v 1.7 0.8 0.8
v 1.9 0.6 -0.3
v 1.9 0.8 -0.3
v 1.7 0.6 -0.3
v 1.7 0.8 -0.3
v 1.9 0.6 0.9
v 1.8 0.6 0.9
v 1.8 0.6 0.8
v 1.7 0.6 0.8
v 1.9 0.6 0.7
v 1.7 0.6 0.7
v 1.9 0.6 -0.3
v 1.7 0.6 -0.3
v 1.9 0.8 0.9
v 1.8 0.8 0.9
v 1.9 0.8 0.8
v 1.8 0.8 0.8
v 1.7 0.8 0.8
v 1.8 0.8 0.7
v 1.7 0.8 0.7
v 1.9 0.8 -0.2
v 1.8 0.8 -0.2
v 1.9 0.8 -0.3
v 1.7 0.8 -0.3

# faces
f 1/3/1 2/3/1 4/3/1
f 2/2/1 3/2/1 5/2/1
f 4/3/1 2/3/1 5/3/1
f 5/2/1 3/2/1 6/2/1
f 1/3/1 4/3/1 7/3/1
f 4/1/1 5/1/1 8/1/1
f 7/3/1 4/3/1 8/3/1
f 5/1/1 6/1/1 8/1/1
f 6/2/1 3/2/1 9/2/1
f 8/1/1 6/1/1 9/1/1
f 9/2/1 3/2/1 10/2/1
f 13/3/2 12/3/2 11/3/2
f 14/3/2 12/3/2 13/3/2
f 18/3/2 16/3/2 15/3/2
f 19/2/2 17/2/2 16/2/2
f 19/3/2 16/3/2 18/3/2
f 20/2/2 17/2/2 19/2/2
f 21/3/3 22/3/3 23/3/3
f 23/3/3 22/3/3 24/3/3
f 25/3/3 26/3/3 27/3/3
f 27/3/3 26/3/3 28/3/3
f 31/2/4 30/2/4 29/2/4
f 32/2/4 30/2/4 31/2/4
f 33/3/5 34/3/5 35/3/5
f 33/3/5 35/3/5 37/3/5
f 35/3/5 36/3/5 37/3/5
f 37/3/5 36/3/5 38/3/5
f 37/2/5 38/2/5 39/2/5
f 39/2/5 38/2/5 40/2/5
f 43/3/6 42/3/6 41/3/6
f 44/3/6 42/3/6 43/3/6
f 46/1/6 44/1/6 43/1/6
f 46/3/6 45/3/6 44/3/6
f 47/3/6 45/3/6 46/3/6
f 48/1/6 46/1/6 43/1/6
f 49/2/6 47/2/6 46/2/6
f 49/1/6 46/1/6 48/1/6
f 50/2/6 49/2/6 48/2/6
f 51/2/6 47/2/6 49/2/6
f 51/2/6 49/2/6 50/2/6
