# MagicaVoxel @ Ephtracy

# group
o 

# material
mtllib Robot.vox-38.mtl
usemtl palette

# normals
vn -1 0 0
vn 1 0 0
vn 0 0 1
vn 0 0 -1
vn 0 -1 0
vn 0 1 0

# texcoords
vt 0.783203 0.5
vt 0.787109 0.5
vt 0.978516 0.5

# verts
v 4.2 0.2 0.9
v 4.2 0.2 0.8
v 4.2 0.5 0.9
v 4.2 0.5 0.8
v 4.3 0.2 1.1
v 4.3 0.2 0.9
v 4.3 0.5 1.1
v 4.3 0.5 0.9
v 4.4 0.2 1.3
v 4.4 0.2 1.2
v 4.4 0.2 1.1
v 4.4 0.3 1.3
v 4.4 0.3 1.2
v 4.4 0.4 1.3
v 4.4 0.4 1.2
v 4.4 0.5 1.3
v 4.4 0.5 1.2
v 4.4 0.5 1.1
v 4.7 0.2 1.3
v 4.7 0.2 1.2
v 4.7 0.2 0.8
v 4.7 0.3 1.3
v 4.7 0.3 1.2
v 4.7 0.4 1.3
v 4.7 0.4 1.2
v 4.7 0.4 1
v 4.7 0.4 0.8
v 4.7 0.5 1.3
v 4.7 0.5 1.2
v 4.7 0.5 1
v 4.8 0.4 1
v 4.8 0.4 0.8
v 4.8 0.5 1
v 4.8 0.5 0.8
v 4.4 0.4 1
v 4.4 0.4 0.8
v 4.4 0.5 1
v 4.4 0.5 0.8
v 4.5 0.2 1.3
v 4.5 0.2 1.2
v 4.5 0.2 0.8
v 4.5 0.3 1.3
v 4.5 0.3 1.2
v 4.5 0.4 1.3
v 4.5 0.4 1.2
v 4.5 0.4 1
v 4.5 0.4 0.8
v 4.5 0.5 1.3
v 4.5 0.5 1.2
v 4.5 0.5 1
v 4.8 0.2 1.3
v 4.8 0.2 1.2
v 4.8 0.2 1.1
v 4.8 0.3 1.3
v 4.8 0.3 1.2
v 4.8 0.4 1.3
v 4.8 0.4 1.2
v 4.8 0.5 1.3
v 4.8 0.5 1.2
v 4.8 0.5 1.1
v 4.9 0.2 1.1
v 4.9 0.2 0.9
v 4.9 0.5 1.1
v 4.9 0.5 0.9
v 5 0.2 0.9
v 5 0.2 0.8
v 5 0.5 0.9
v 5 0.5 0.8
v 4.4 0.2 1.3
v 4.4 0.3 1.3
v 4.4 0.4 1.3
v 4.4 0.5 1.3
v 4.5 0.2 1.3
v 4.5 0.3 1.3
v 4.5 0.4 1.3
v 4.5 0.5 1.3
v 4.7 0.2 1.3
v 4.7 0.3 1.3
v 4.7 0.4 1.3
v 4.7 0.5 1.3
v 4.8 0.2 1.3
v 4.8 0.3 1.3
v 4.8 0.4 1.3
v 4.8 0.5 1.3
v 4.3 0.2 1.1
v 4.3 0.5 1.1
v 4.4 0.2 1.1
v 4.4 0.5 1.1
v 4.8 0.2 1.1
v 4.8 0.5 1.1
v 4.9 0.2 1.1
v 4.9 0.5 1.1
v 4.2 0.2 0.9
v 4.2 0.5 0.9
v 4.3 0.2 0.9
v 4.3 0.5 0.9
v 4.9 0.2 0.9
v 4.9 0.5 0.9
v 5 0.2 0.9
v 5 0.5 0.9
v 4.4 0.4 1
v 4.4 0.5 1
v 4.5 0.4 1
v 4.5 0.5 1
v 4.7 0.4 1
v 4.7 0.5 1
v 4.8 0.4 1
v 4.8 0.5 1
v 4.2 0.2 0.8
v 4.2 0.5 0.8
v 4.4 0.4 0.8
v 4.4 0.5 0.8
v 4.5 0.2 0.8
v 4.5 0.4 0.8
v 4.7 0.2 0.8
v 4.7 0.4 0.8
v 4.8 0.4 0.8
v 4.8 0.5 0.8
v 5 0.2 0.8
v 5 0.5 0.8
v 4.4 0.2 1.3
v 4.5 0.2 1.3
v 4.7 0.2 1.3
v 4.8 0.2 1.3
v 4.4 0.2 1.2
v 4.5 0.2 1.2
v 4.7 0.2 1.2
v 4.8 0.2 1.2
v 4.3 0.2 1.1
v 4.4 0.2 1.1
v 4.8 0.2 1.1
v 4.9 0.2 1.1
v 4.2 0.2 0.9
v 4.3 0.2 0.9
v 4.9 0.2 0.9
v 5 0.2 0.9
v 4.2 0.2 0.8
v 4.5 0.2 0.8
v 4.7 0.2 0.8
v 5 0.2 0.8
v 4.4 0.4 1
v 4.5 0.4 1
v 4.7 0.4 1
v 4.8 0.4 1
v 4.4 0.4 0.8
v 4.5 0.4 0.8
v 4.7 0.4 0.8
v 4.8 0.4 0.8
v 4.4 0.5 1.3
v 4.5 0.5 1.3
v 4.7 0.5 1.3
v 4.8 0.5 1.3
v 4.4 0.5 1.2
v 4.5 0.5 1.2
v 4.7 0.5 1.2
v 4.8 0.5 1.2
v 4.3 0.5 1.1
v 4.4 0.5 1.1
v 4.8 0.5 1.1
v 4.9 0.5 1.1
v 4.4 0.5 1
v 4.5 0.5 1
v 4.7 0.5 1
v 4.8 0.5 1
v 4.2 0.5 0.9
v 4.3 0.5 0.9
v 4.9 0.5 0.9
v 5 0.5 0.9
v 4.2 0.5 0.8
v 4.4 0.5 0.8
v 4.8 0.5 0.8
v 5 0.5 0.8

# faces
f 3/3/1 2/3/1 1/3/1
f 4/3/1 2/3/1 3/3/1
f 7/3/1 6/3/1 5/3/1
f 8/3/1 6/3/1 7/3/1
f 12/2/1 10/2/1 9/2/1
f 13/3/1 11/3/1 10/3/1
f 13/2/1 10/2/1 12/2/1
f 14/1/1 13/1/1 12/1/1
f 15/3/1 11/3/1 13/3/1
f 15/1/1 13/1/1 14/1/1
f 16/2/1 15/2/1 14/2/1
f 17/3/1 11/3/1 15/3/1
f 17/2/1 15/2/1 16/2/1
f 18/3/1 11/3/1 17/3/1
f 22/2/1 20/2/1 19/2/1
f 23/3/1 21/3/1 20/3/1
f 23/2/1 20/2/1 22/2/1
f 24/1/1 23/1/1 22/1/1
f 25/3/1 21/3/1 23/3/1
f 25/1/1 23/1/1 24/1/1
f 26/3/1 21/3/1 25/3/1
f 27/3/1 21/3/1 26/3/1
f 28/2/1 25/2/1 24/2/1
f 29/3/1 26/3/1 25/3/1
f 29/2/1 25/2/1 28/2/1
f 30/3/1 26/3/1 29/3/1
f 33/3/1 32/3/1 31/3/1
f 34/3/1 32/3/1 33/3/1
f 35/3/2 36/3/2 37/3/2
f 37/3/2 36/3/2 38/3/2
f 39/2/2 40/2/2 42/2/2
f 40/3/2 41/3/2 43/3/2
f 42/2/2 40/2/2 43/2/2
f 42/1/2 43/1/2 44/1/2
f 43/3/2 41/3/2 45/3/2
f 44/1/2 43/1/2 45/1/2
f 45/3/2 41/3/2 46/3/2
f 46/3/2 41/3/2 47/3/2
f 44/2/2 45/2/2 48/2/2
f 45/3/2 46/3/2 49/3/2
f 48/2/2 45/2/2 49/2/2
f 49/3/2 46/3/2 50/3/2
f 51/2/2 52/2/2 54/2/2
f 52/3/2 53/3/2 55/3/2
f 54/2/2 52/2/2 55/2/2
f 54/1/2 55/1/2 56/1/2
f 55/3/2 53/3/2 57/3/2
f 56/1/2 55/1/2 57/1/2
f 56/2/2 57/2/2 58/2/2
f 57/3/2 53/3/2 59/3/2
f 58/2/2 57/2/2 59/2/2
f 59/3/2 53/3/2 60/3/2
f 61/3/2 62/3/2 63/3/2
f 63/3/2 62/3/2 64/3/2
f 65/3/2 66/3/2 67/3/2
f 67/3/2 66/3/2 68/3/2
f 73/2/3 70/2/3 69/2/3
f 74/1/3 71/1/3 70/1/3
f 74/2/3 70/2/3 73/2/3
f 75/2/3 72/2/3 71/2/3
f 75/1/3 71/1/3 74/1/3
f 76/2/3 72/2/3 75/2/3
f 81/2/3 78/2/3 77/2/3
f 82/1/3 79/1/3 78/1/3
f 82/2/3 78/2/3 81/2/3
f 83/2/3 80/2/3 79/2/3
f 83/1/3 79/1/3 82/1/3
f 84/2/3 80/2/3 83/2/3
f 87/3/3 86/3/3 85/3/3
f 88/3/3 86/3/3 87/3/3
f 91/3/3 90/3/3 89/3/3
f 92/3/3 90/3/3 91/3/3
f 95/3/3 94/3/3 93/3/3
f 96/3/3 94/3/3 95/3/3
f 99/3/3 98/3/3 97/3/3
f 100/3/3 98/3/3 99/3/3
f 101/3/4 102/3/4 103/3/4
f 103/3/4 102/3/4 104/3/4
f 105/3/4 106/3/4 107/3/4
f 107/3/4 106/3/4 108/3/4
f 109/3/4 110/3/4 111/3/4
f 111/3/4 110/3/4 112/3/4
f 109/3/4 111/3/4 113/3/4
f 113/3/4 111/3/4 114/3/4
f 115/3/4 116/3/4 117/3/4
f 115/3/4 117/3/4 119/3/4
f 117/3/4 118/3/4 119/3/4
f 119/3/4 118/3/4 120/3/4
f 125/2/5 122/2/5 121/2/5
f 126/2/5 122/2/5 125/2/5
f 127/2/5 124/2/5 123/2/5
f 128/2/5 124/2/5 127/2/5
f 130/3/5 126/3/5 125/3/5
f 131/3/5 128/3/5 127/3/5
f 134/3/5 130/3/5 129/3/5
f 135/3/5 132/3/5 131/3/5
f 137/3/5 134/3/5 133/3/5
f 138/3/5 126/3/5 130/3/5
f 138/3/5 134/3/5 137/3/5
f 138/3/5 130/3/5 134/3/5
f 139/3/5 131/3/5 127/3/5
f 139/3/5 136/3/5 135/3/5
f 139/3/5 135/3/5 131/3/5
f 140/3/5 136/3/5 139/3/5
f 141/3/6 142/3/6 145/3/6
f 145/3/6 142/3/6 146/3/6
f 143/3/6 144/3/6 147/3/6
f 147/3/6 144/3/6 148/3/6
f 149/2/6 150/2/6 153/2/6
f 153/2/6 150/2/6 154/2/6
f 151/2/6 152/2/6 155/2/6
f 155/2/6 152/2/6 156/2/6
f 153/3/6 154/3/6 158/3/6
f 155/3/6 156/3/6 159/3/6
f 157/3/6 158/3/6 161/3/6
f 158/3/6 154/3/6 161/3/6
f 161/3/6 154/3/6 162/3/6
f 155/3/6 159/3/6 163/3/6
f 159/3/6 160/3/6 163/3/6
f 163/3/6 160/3/6 164/3/6
f 157/3/6 161/3/6 166/3/6
f 164/3/6 160/3/6 167/3/6
f 165/3/6 166/3/6 169/3/6
f 166/3/6 161/3/6 170/3/6
f 169/3/6 166/3/6 170/3/6
f 167/3/6 168/3/6 171/3/6
f 164/3/6 167/3/6 171/3/6
f 171/3/6 168/3/6 172/3/6
