# MagicaVoxel @ Ephtracy

# group
o 

# material
mtllib Robot.vox-29.mtl
usemtl palette

# normals
vn -1 0 0
vn 1 0 0
vn 0 0 1
vn 0 0 -1
vn 0 -1 0
vn 0 1 0

# texcoords
vt 0.916016 0.5
vt 0.947266 0.5
vt 0.970703 0.5
vt 0.978516 0.5

# verts
v 5.2 0.2 -4.3
v 5.2 0.2 -4.4
v 5.2 0.3 -3.8
v 5.2 0.3 -4.3
v 5.2 0.4 -3.5
v 5.2 0.4 -3.8
v 5.2 0.5 -3.5
v 5.2 0.5 -4.4
v 5.3 0.2 -3.7
v 5.3 0.2 -4.3
v 5.3 0.3 -3.5
v 5.3 0.3 -3.7
v 5.3 0.3 -3.8
v 5.3 0.3 -4.3
v 5.3 0.4 -3.2
v 5.3 0.4 -3.5
v 5.3 0.4 -3.8
v 5.3 0.5 -3.2
v 5.3 0.5 -3.5
v 5.4 0.1 -3.2
v 5.4 0.1 -4.2
v 5.4 0.2 -3.1
v 5.4 0.2 -3.2
v 5.4 0.2 -3.7
v 5.4 0.2 -4.2
v 5.4 0.3 -3.5
v 5.4 0.3 -3.7
v 5.4 0.4 -3.2
v 5.4 0.4 -3.5
v 5.4 0.4 -4.1
v 5.4 0.4 -4.3
v 5.4 0.5 -3.2
v 5.4 0.5 -4.1
v 5.4 0.6 -3.1
v 5.4 0.6 -3.2
v 5.4 0.6 -4.2
v 5.4 0.6 -4.3
v 5.4 0.7 -3.2
v 5.4 0.7 -4.2
v 5.5 0.1 -3.1
v 5.5 0.1 -3.2
v 5.5 0.1 -4.2
v 5.5 0.1 -4.3
v 5.5 0.2 -3.1
v 5.5 0.2 -3.2
v 5.5 0.2 -4.2
v 5.5 0.2 -4.3
v 5.5 0.6 -3.1
v 5.5 0.6 -3.2
v 5.5 0.6 -4.2
v 5.5 0.6 -4.3
v 5.5 0.7 -3.1
v 5.5 0.7 -3.2
v 5.5 0.7 -3.6
v 5.5 0.7 -3.7
v 5.5 0.7 -3.8
v 5.5 0.7 -4.2
v 5.5 0.7 -4.3
v 5.5 0.8 -3.2
v 5.5 0.8 -3.6
v 5.5 0.8 -3.7
v 5.5 0.8 -3.8
v 5.6 0.6 -3.8
v 5.6 0.6 -4
v 5.6 0.7 -4
v 5.6 0.8 -3.8
v 5.6 0.8 -4
v 5.7 0.6 -3.6
v 5.7 0.6 -3.7
v 5.7 0.7 -3.6
v 5.7 0.7 -3.7
v 5.8 0.6 -3.5
v 5.8 0.6 -3.6
v 5.8 0.6 -3.9
v 5.8 0.6 -4
v 5.8 0.6 -4.1
v 5.8 0.6 -4.2
v 5.8 0.7 -3.2
v 5.8 0.7 -3.3
v 5.8 0.7 -3.5
v 5.8 0.7 -3.6
v 5.8 0.7 -3.9
v 5.8 0.7 -4
v 5.8 0.7 -4.1
v 5.8 0.7 -4.2
v 5.8 0.8 -3.2
v 5.8 0.8 -3.3
v 5.9 0.6 -3.6
v 5.9 0.6 -3.7
v 5.9 0.7 -3.4
v 5.9 0.7 -3.5
v 5.9 0.7 -3.6
v 5.9 0.7 -3.7
v 5.9 0.7 -3.9
v 5.9 0.7 -4.1
v 5.9 0.8 -3.4
v 5.9 0.8 -3.5
v 5.9 0.8 -3.9
v 5.9 0.8 -4.1
v 6 0.7 -3.3
v 6 0.7 -3.4
v 6 0.8 -3.3
v 6 0.8 -3.4
v 6.1 0.6 -3.5
v 6.1 0.6 -3.6
v 6.1 0.7 -3.5
v 6.1 0.7 -3.6
v 6.2 0.2 -4.3
v 6.2 0.2 -4.4
v 6.2 0.4 -4.3
v 6.2 0.4 -4.4
v 6.3 0.4 -4.1
v 6.3 0.4 -4.4
v 6.3 0.5 -4.1
v 6.3 0.5 -4.4
v 5.3 0.4 -4.1
v 5.3 0.4 -4.4
v 5.3 0.5 -4.1
v 5.3 0.5 -4.4
v 5.4 0.2 -4.3
v 5.4 0.2 -4.4
v 5.4 0.4 -4.3
v 5.4 0.4 -4.4
v 5.5 0.6 -3.8
v 5.5 0.6 -4
v 5.5 0.7 -3.8
v 5.5 0.7 -4
v 5.6 0.6 -3.6
v 5.6 0.6 -3.7
v 5.6 0.6 -4.1
v 5.6 0.6 -4.2
v 5.6 0.7 -3.6
v 5.6 0.7 -3.7
v 5.6 0.7 -3.8
v 5.6 0.7 -4.1
v 5.6 0.7 -4.2
v 5.6 0.8 -3.7
v 5.6 0.8 -3.8
v 5.7 0.6 -3.5
v 5.7 0.6 -3.6
v 5.7 0.6 -3.9
v 5.7 0.6 -4
v 5.7 0.7 -3.2
v 5.7 0.7 -3.3
v 5.7 0.7 -3.4
v 5.7 0.7 -3.6
v 5.7 0.7 -4
v 5.7 0.8 -3.2
v 5.7 0.8 -3.4
v 5.7 0.8 -3.5
v 5.7 0.8 -3.6
v 5.7 0.8 -3.9
v 5.7 0.8 -4
v 5.8 0.6 -3.6
v 5.8 0.6 -3.7
v 5.8 0.7 -3.4
v 5.8 0.7 -3.5
v 5.8 0.7 -3.6
v 5.8 0.7 -3.7
v 5.8 0.7 -3.8
v 5.8 0.7 -3.9
v 5.8 0.8 -3.4
v 5.8 0.8 -3.5
v 5.8 0.8 -3.8
v 5.8 0.8 -3.9
v 5.9 0.7 -3.2
v 5.9 0.7 -3.3
v 5.9 0.8 -3.2
v 5.9 0.8 -3.3
v 6 0.6 -3.5
v 6 0.6 -3.6
v 6 0.7 -3.5
v 6 0.7 -3.6
v 6 0.7 -3.9
v 6 0.7 -4
v 6 0.8 -3.9
v 6 0.8 -4
v 6.1 0.1 -3.1
v 6.1 0.1 -3.2
v 6.1 0.1 -4.2
v 6.1 0.1 -4.3
v 6.1 0.2 -3.1
v 6.1 0.2 -3.2
v 6.1 0.2 -4.2
v 6.1 0.2 -4.3
v 6.1 0.6 -3.1
v 6.1 0.6 -3.2
v 6.1 0.6 -4.2
v 6.1 0.6 -4.3
v 6.1 0.7 -3.1
v 6.1 0.7 -3.2
v 6.1 0.7 -3.3
v 6.1 0.7 -3.5
v 6.1 0.7 -4
v 6.1 0.7 -4.1
v 6.1 0.7 -4.2
v 6.1 0.7 -4.3
v 6.1 0.8 -3.3
v 6.1 0.8 -3.5
v 6.1 0.8 -4
v 6.1 0.8 -4.1
v 6.2 0.1 -3.2
v 6.2 0.1 -4.2
v 6.2 0.2 -3.1
v 6.2 0.2 -3.2
v 6.2 0.2 -3.7
v 6.2 0.2 -4.2
v 6.2 0.3 -3.5
v 6.2 0.3 -3.7
v 6.2 0.4 -3.2
v 6.2 0.4 -3.5
v 6.2 0.4 -4.1
v 6.2 0.4 -4.3
v 6.2 0.5 -3.2
v 6.2 0.5 -4.1
v 6.2 0.6 -3.1
v 6.2 0.6 -3.2
v 6.2 0.6 -4.2
v 6.2 0.6 -4.3
v 6.2 0.7 -3.2
v 6.2 0.7 -4.2
v 6.3 0.2 -3.7
v 6.3 0.2 -4.3
v 6.3 0.3 -3.5
v 6.3 0.3 -3.7
v 6.3 0.3 -3.8
v 6.3 0.3 -4.3
v 6.3 0.4 -3.2
v 6.3 0.4 -3.5
v 6.3 0.4 -3.8
v 6.3 0.5 -3.2
v 6.3 0.5 -3.5
v 6.4 0.2 -4.3
v 6.4 0.2 -4.4
v 6.4 0.3 -3.8
v 6.4 0.3 -4.3
v 6.4 0.4 -3.5
v 6.4 0.4 -3.8
v 6.4 0.5 -3.5
v 6.4 0.5 -4.4
v 5.4 0.2 -3.1
v 5.4 0.6 -3.1
v 5.5 0.1 -3.1
v 5.5 0.2 -3.1
v 5.5 0.6 -3.1
v 5.5 0.7 -3.1
v 6.1 0.1 -3.1
v 6.1 0.2 -3.1
v 6.1 0.6 -3.1
v 6.1 0.7 -3.1
v 6.2 0.2 -3.1
v 6.2 0.6 -3.1
v 5.3 0.4 -3.2
v 5.3 0.5 -3.2
v 5.4 0.1 -3.2
v 5.4 0.2 -3.2
v 5.4 0.4 -3.2
v 5.4 0.5 -3.2
v 5.4 0.6 -3.2
v 5.4 0.7 -3.2
v 5.5 0.1 -3.2
v 5.5 0.2 -3.2
v 5.5 0.6 -3.2
v 5.5 0.7 -3.2
v 5.5 0.8 -3.2
v 5.7 0.7 -3.2
v 5.7 0.8 -3.2
v 5.8 0.7 -3.2
v 5.8 0.8 -3.2
v 5.9 0.7 -3.2
v 5.9 0.8 -3.2
v 6.1 0.1 -3.2
v 6.1 0.2 -3.2
v 6.1 0.6 -3.2
v 6.1 0.7 -3.2
v 6.2 0.1 -3.2
v 6.2 0.2 -3.2
v 6.2 0.4 -3.2
v 6.2 0.5 -3.2
v 6.2 0.6 -3.2
v 6.2 0.7 -3.2
v 6.3 0.4 -3.2
v 6.3 0.5 -3.2
v 6 0.7 -3.3
v 6 0.8 -3.3
v 6.1 0.7 -3.3
v 6.1 0.8 -3.3
v 5.7 0.7 -3.4
v 5.7 0.8 -3.4
v 5.8 0.7 -3.4
v 5.8 0.8 -3.4
v 5.9 0.7 -3.4
v 5.9 0.8 -3.4
v 6 0.7 -3.4
v 6 0.8 -3.4
v 5.2 0.4 -3.5
v 5.2 0.5 -3.5
v 5.3 0.3 -3.5
v 5.3 0.4 -3.5
v 5.3 0.5 -3.5
v 5.4 0.3 -3.5
v 5.4 0.4 -3.5
v 6.2 0.3 -3.5
v 6.2 0.4 -3.5
v 6.3 0.3 -3.5
v 6.3 0.4 -3.5
v 6.3 0.5 -3.5
v 6.4 0.4 -3.5
v 6.4 0.5 -3.5
v 5.7 0.6 -3.6
v 5.7 0.7 -3.6
v 5.8 0.6 -3.6
v 5.8 0.7 -3.6
v 6 0.6 -3.6
v 6 0.7 -3.6
v 6.1 0.6 -3.6
v 6.1 0.7 -3.6
v 5.3 0.2 -3.7
v 5.3 0.3 -3.7
v 5.4 0.2 -3.7
v 5.4 0.3 -3.7
v 5.5 0.7 -3.7
v 5.5 0.8 -3.7
v 5.6 0.6 -3.7
v 5.6 0.7 -3.7
v 5.6 0.8 -3.7
v 5.7 0.6 -3.7
v 5.7 0.7 -3.7
v 5.8 0.6 -3.7
v 5.8 0.7 -3.7
v 5.9 0.6 -3.7
v 5.9 0.7 -3.7
v 6.2 0.2 -3.7
v 6.2 0.3 -3.7
v 6.3 0.2 -3.7
v 6.3 0.3 -3.7
v 5.2 0.3 -3.8
v 5.2 0.4 -3.8
v 5.3 0.3 -3.8
v 5.3 0.4 -3.8
v 5.6 0.7 -3.8
v 5.6 0.8 -3.8
v 5.7 0.7 -3.8
v 5.8 0.7 -3.8
v 5.8 0.8 -3.8
v 6.3 0.3 -3.8
v 6.3 0.4 -3.8
v 6.4 0.3 -3.8
v 6.4 0.4 -3.8
v 5.9 0.7 -3.9
v 5.9 0.8 -3.9
v 6 0.7 -3.9
v 6 0.8 -3.9
v 5.5 0.6 -4
v 5.5 0.7 -4
v 5.6 0.6 -4
v 5.6 0.7 -4
v 5.7 0.6 -4
v 5.7 0.7 -4
v 5.8 0.6 -4
v 5.8 0.7 -4
v 6 0.7 -4
v 6 0.8 -4
v 6.1 0.7 -4
v 6.1 0.8 -4
v 5.6 0.6 -4.2
v 5.6 0.7 -4.2
v 5.8 0.6 -4.2
v 5.8 0.7 -4.2
v 5.2 0.2 -4.3
v 5.2 0.3 -4.3
v 5.3 0.2 -4.3
v 5.3 0.3 -4.3
v 6.3 0.2 -4.3
v 6.3 0.3 -4.3
v 6.4 0.2 -4.3
v 6.4 0.3 -4.3
v 5.8 0.7 -3.3
v 5.8 0.8 -3.3
v 5.9 0.7 -3.3
v 5.9 0.8 -3.3
v 5.7 0.6 -3.5
v 5.7 0.8 -3.5
v 5.8 0.6 -3.5
v 5.8 0.7 -3.5
v 5.8 0.8 -3.5
v 5.9 0.7 -3.5
v 5.9 0.8 -3.5
v 6 0.6 -3.5
v 6 0.7 -3.5
v 6.1 0.6 -3.5
v 6.1 0.7 -3.5
v 6.1 0.8 -3.5
v 5.5 0.7 -3.6
v 5.5 0.8 -3.6
v 5.6 0.6 -3.6
v 5.6 0.7 -3.6
v 5.7 0.6 -3.6
v 5.7 0.7 -3.6
v 5.7 0.8 -3.6
v 5.8 0.6 -3.6
v 5.8 0.7 -3.6
v 5.9 0.6 -3.6
v 5.9 0.7 -3.6
v 5.5 0.6 -3.8
v 5.5 0.7 -3.8
v 5.5 0.8 -3.8
v 5.6 0.6 -3.8
v 5.6 0.8 -3.8
v 5.7 0.6 -3.9
v 5.7 0.8 -3.9
v 5.8 0.6 -3.9
v 5.8 0.7 -3.9
v 5.8 0.8 -3.9
v 5.6 0.7 -4
v 5.6 0.8 -4
v 5.7 0.7 -4
v 5.7 0.8 -4
v 5.3 0.4 -4.1
v 5.3 0.5 -4.1
v 5.4 0.4 -4.1
v 5.4 0.5 -4.1
v 5.6 0.6 -4.1
v 5.6 0.7 -4.1
v 5.8 0.6 -4.1
v 5.8 0.7 -4.1
v 5.9 0.7 -4.1
v 5.9 0.8 -4.1
v 6 0.7 -4.1
v 6.1 0.7 -4.1
v 6.1 0.8 -4.1
v 6.2 0.4 -4.1
v 6.2 0.5 -4.1
v 6.3 0.4 -4.1
v 6.3 0.5 -4.1
v 5.4 0.1 -4.2
v 5.4 0.2 -4.2
v 5.4 0.6 -4.2
v 5.4 0.7 -4.2
v 5.5 0.1 -4.2
v 5.5 0.2 -4.2
v 5.5 0.6 -4.2
v 5.5 0.7 -4.2
v 6.1 0.1 -4.2
v 6.1 0.2 -4.2
v 6.1 0.6 -4.2
v 6.1 0.7 -4.2
v 6.2 0.1 -4.2
v 6.2 0.2 -4.2
v 6.2 0.6 -4.2
v 6.2 0.7 -4.2
v 5.4 0.2 -4.3
v 5.4 0.4 -4.3
v 5.4 0.6 -4.3
v 5.5 0.1 -4.3
v 5.5 0.2 -4.3
v 5.5 0.6 -4.3
v 5.5 0.7 -4.3
v 6.1 0.1 -4.3
v 6.1 0.2 -4.3
v 6.1 0.6 -4.3
v 6.1 0.7 -4.3
v 6.2 0.2 -4.3
v 6.2 0.4 -4.3
v 6.2 0.6 -4.3
v 5.2 0.2 -4.4
v 5.2 0.5 -4.4
v 5.3 0.4 -4.4
v 5.3 0.5 -4.4
v 5.4 0.2 -4.4
v 5.4 0.4 -4.4
v 6.2 0.2 -4.4
v 6.2 0.4 -4.4
v 6.3 0.4 -4.4
v 6.3 0.5 -4.4
v 6.4 0.2 -4.4
v 6.4 0.5 -4.4
v 5.5 0.1 -3.1
v 6.1 0.1 -3.1
v 5.4 0.1 -3.2
v 5.5 0.1 -3.2
v 6.1 0.1 -3.2
v 6.2 0.1 -3.2
v 5.4 0.1 -4.2
v 5.5 0.1 -4.2
v 6.1 0.1 -4.2
v 6.2 0.1 -4.2
v 5.5 0.1 -4.3
v 6.1 0.1 -4.3
v 5.4 0.2 -3.1
v 5.5 0.2 -3.1
v 6.1 0.2 -3.1
v 6.2 0.2 -3.1
v 5.4 0.2 -3.2
v 5.5 0.2 -3.2
v 6.1 0.2 -3.2
v 6.2 0.2 -3.2
v 5.3 0.2 -3.7
v 5.4 0.2 -3.7
v 6.2 0.2 -3.7
v 6.3 0.2 -3.7
v 5.4 0.2 -4.2
v 5.5 0.2 -4.2
v 6.1 0.2 -4.2
v 6.2 0.2 -4.2
v 5.2 0.2 -4.3
v 5.3 0.2 -4.3
v 5.4 0.2 -4.3
v 5.5 0.2 -4.3
v 6.1 0.2 -4.3
v 6.2 0.2 -4.3
v 6.3 0.2 -4.3
v 6.4 0.2 -4.3
v 5.2 0.2 -4.4
v 5.4 0.2 -4.4
v 6.2 0.2 -4.4
v 6.4 0.2 -4.4
v 5.3 0.3 -3.5
v 5.4 0.3 -3.5
v 6.2 0.3 -3.5
v 6.3 0.3 -3.5
v 5.3 0.3 -3.7
v 5.4 0.3 -3.7
v 6.2 0.3 -3.7
v 6.3 0.3 -3.7
v 5.2 0.3 -3.8
v 5.3 0.3 -3.8
v 6.3 0.3 -3.8
v 6.4 0.3 -3.8
v 5.2 0.3 -4.3
v 5.3 0.3 -4.3
v 6.3 0.3 -4.3
v 6.4 0.3 -4.3
v 5.3 0.4 -3.2
v 5.4 0.4 -3.2
v 6.2 0.4 -3.2
v 6.3 0.4 -3.2
v 5.2 0.4 -3.5
v 5.3 0.4 -3.5
v 5.4 0.4 -3.5
v 6.2 0.4 -3.5
v 6.3 0.4 -3.5
v 6.4 0.4 -3.5
v 5.2 0.4 -3.8
v 5.3 0.4 -3.8
v 6.3 0.4 -3.8
v 6.4 0.4 -3.8
v 5.3 0.4 -4.1
v 5.4 0.4 -4.1
v 6.2 0.4 -4.1
v 6.3 0.4 -4.1
v 5.4 0.4 -4.3
v 6.2 0.4 -4.3
v 5.3 0.4 -4.4
v 5.4 0.4 -4.4
v 6.2 0.4 -4.4
v 6.3 0.4 -4.4
v 5.3 0.5 -3.2
v 5.4 0.5 -3.2
v 6.2 0.5 -3.2
v 6.3 0.5 -3.2
v 5.2 0.5 -3.5
v 5.3 0.5 -3.5
v 6.3 0.5 -3.5
v 6.4 0.5 -3.5
v 5.3 0.5 -4.1
v 5.4 0.5 -4.1
v 6.2 0.5 -4.1
v 6.3 0.5 -4.1
v 5.2 0.5 -4.4
v 5.3 0.5 -4.4
v 6.3 0.5 -4.4
v 6.4 0.5 -4.4
v 5.4 0.6 -3.1
v 5.5 0.6 -3.1
v 6.1 0.6 -3.1
v 6.2 0.6 -3.1
v 5.4 0.6 -3.2
v 5.5 0.6 -3.2
v 6.1 0.6 -3.2
v 6.2 0.6 -3.2
v 5.7 0.6 -3.5
v 5.8 0.6 -3.5
v 6 0.6 -3.5
v 6.1 0.6 -3.5
v 5.6 0.6 -3.6
v 5.7 0.6 -3.6
v 5.8 0.6 -3.6
v 5.9 0.6 -3.6
v 6 0.6 -3.6
v 6.1 0.6 -3.6
v 5.6 0.6 -3.7
v 5.7 0.6 -3.7
v 5.8 0.6 -3.7
v 5.9 0.6 -3.7
v 5.5 0.6 -3.8
v 5.6 0.6 -3.8
v 5.7 0.6 -3.9
v 5.8 0.6 -3.9
v 5.5 0.6 -4
v 5.6 0.6 -4
v 5.7 0.6 -4
v 5.8 0.6 -4
v 5.6 0.6 -4.1
v 5.8 0.6 -4.1
v 5.4 0.6 -4.2
v 5.5 0.6 -4.2
v 5.6 0.6 -4.2
v 5.8 0.6 -4.2
v 6.1 0.6 -4.2
v 6.2 0.6 -4.2
v 5.4 0.6 -4.3
v 5.5 0.6 -4.3
v 6.1 0.6 -4.3
v 6.2 0.6 -4.3
v 5.5 0.7 -3.1
v 6.1 0.7 -3.1
v 5.4 0.7 -3.2
v 5.5 0.7 -3.2
v 5.7 0.7 -3.2
v 5.8 0.7 -3.2
v 5.9 0.7 -3.2
v 6 0.7 -3.2
v 6.1 0.7 -3.2
v 6.2 0.7 -3.2
v 5.7 0.7 -3.3
v 5.8 0.7 -3.3
v 5.9 0.7 -3.3
v 6 0.7 -3.3
v 6.1 0.7 -3.3
v 5.7 0.7 -3.4
v 5.8 0.7 -3.4
v 5.9 0.7 -3.4
v 6 0.7 -3.4
v 5.8 0.7 -3.5
v 5.9 0.7 -3.5
v 6 0.7 -3.5
v 6.1 0.7 -3.5
v 5.5 0.7 -3.6
v 5.6 0.7 -3.6
v 5.7 0.7 -3.6
v 5.8 0.7 -3.6
v 5.9 0.7 -3.6
v 6 0.7 -3.6
v 6.1 0.7 -3.6
v 5.5 0.7 -3.7
v 5.6 0.7 -3.7
v 5.7 0.7 -3.7
v 5.8 0.7 -3.7
v 5.9 0.7 -3.7
v 5.5 0.7 -3.8
v 5.6 0.7 -3.8
v 5.7 0.7 -3.8
v 5.8 0.7 -3.8
v 5.9 0.7 -3.8
v 5.8 0.7 -3.9
v 5.9 0.7 -3.9
v 6 0.7 -3.9
v 5.5 0.7 -4
v 5.6 0.7 -4
v 5.7 0.7 -4
v 5.8 0.7 -4
v 6 0.7 -4
v 6.1 0.7 -4
v 5.5 0.7 -4.1
v 5.6 0.7 -4.1
v 5.8 0.7 -4.1
v 5.9 0.7 -4.1
v 6 0.7 -4.1
v 6.1 0.7 -4.1
v 5.4 0.7 -4.2
v 5.5 0.7 -4.2
v 5.6 0.7 -4.2
v 5.8 0.7 -4.2
v 5.9 0.7 -4.2
v 6 0.7 -4.2
v 6.1 0.7 -4.2
v 6.2 0.7 -4.2
v 5.5 0.7 -4.3
v 6.1 0.7 -4.3
v 5.5 0.8 -3.2
v 5.7 0.8 -3.2
v 5.8 0.8 -3.2
v 5.9 0.8 -3.2
v 5.8 0.8 -3.3
v 5.9 0.8 -3.3
v 6 0.8 -3.3
v 6.1 0.8 -3.3
v 5.7 0.8 -3.4
v 5.8 0.8 -3.4
v 5.9 0.8 -3.4
v 6 0.8 -3.4
v 5.7 0.8 -3.5
v 5.8 0.8 -3.5
v 5.9 0.8 -3.5
v 6.1 0.8 -3.5
v 5.5 0.8 -3.6
v 5.7 0.8 -3.6
v 5.5 0.8 -3.7
v 5.6 0.8 -3.7
v 5.5 0.8 -3.8
v 5.6 0.8 -3.8
v 5.8 0.8 -3.8
v 5.7 0.8 -3.9
v 5.8 0.8 -3.9
v 5.9 0.8 -3.9
v 6 0.8 -3.9
v 5.6 0.8 -4
v 5.7 0.8 -4
v 6 0.8 -4
v 6.1 0.8 -4
v 5.9 0.8 -4.1
v 6.1 0.8 -4.1

# faces
f 4/4/1 2/4/1 1/4/1
f 6/4/1 4/4/1 3/4/1
f 7/4/1 6/4/1 5/4/1
f 8/4/1 2/4/1 4/4/1
f 8/4/1 6/4/1 7/4/1
f 8/4/1 4/4/1 6/4/1
f 12/4/1 10/4/1 9/4/1
f 13/4/1 10/4/1 12/4/1
f 14/4/1 10/4/1 13/4/1
f 16/4/1 12/4/1 11/4/1
f 16/4/1 13/4/1 12/4/1
f 17/4/1 13/4/1 16/4/1
f 18/4/1 16/4/1 15/4/1
f 19/4/1 16/4/1 18/4/1
f 23/3/1 21/3/1 20/3/1
f 24/3/1 21/3/1 23/3/1
f 25/3/1 21/3/1 24/3/1
f 26/3/1 23/3/1 22/3/1
f 26/3/1 24/3/1 23/3/1
f 27/3/1 24/3/1 26/3/1
f 28/3/1 26/3/1 22/3/1
f 29/3/1 26/3/1 28/3/1
f 32/3/1 28/3/1 22/3/1
f 33/3/1 31/3/1 30/3/1
f 34/3/1 32/3/1 22/3/1
f 34/3/1 33/3/1 32/3/1
f 35/3/1 33/3/1 34/3/1
f 36/3/1 31/3/1 33/3/1
f 36/3/1 33/3/1 35/3/1
f 37/3/1 31/3/1 36/3/1
f 38/3/1 36/3/1 35/3/1
f 39/3/1 36/3/1 38/3/1
f 44/3/1 41/3/1 40/3/1
f 45/3/1 41/3/1 44/3/1
f 46/3/1 43/3/1 42/3/1
f 47/3/1 43/3/1 46/3/1
f 52/3/1 49/3/1 48/3/1
f 53/3/1 49/3/1 52/3/1
f 57/3/1 51/3/1 50/3/1
f 58/3/1 51/3/1 57/3/1
f 59/4/1 54/4/1 53/4/1
f 60/4/1 54/4/1 59/4/1
f 61/4/1 56/4/1 55/4/1
f 62/4/1 56/4/1 61/4/1
f 65/4/1 64/4/1 63/4/1
f 66/4/1 65/4/1 63/4/1
f 67/4/1 65/4/1 66/4/1
f 70/2/1 69/2/1 68/2/1
f 71/2/1 69/2/1 70/2/1
f 80/4/1 73/4/1 72/4/1
f 81/4/1 73/4/1 80/4/1
f 82/2/1 75/2/1 74/2/1
f 83/2/1 75/2/1 82/2/1
f 84/1/1 77/1/1 76/1/1
f 85/1/1 77/1/1 84/1/1
f 86/4/1 79/4/1 78/4/1
f 87/4/1 79/4/1 86/4/1
f 92/2/1 89/2/1 88/2/1
f 93/2/1 89/2/1 92/2/1
f 96/4/1 91/4/1 90/4/1
f 97/4/1 91/4/1 96/4/1
f 98/4/1 95/4/1 94/4/1
f 99/4/1 95/4/1 98/4/1
f 102/4/1 101/4/1 100/4/1
f 103/4/1 101/4/1 102/4/1
f 106/3/1 105/3/1 104/3/1
f 107/3/1 105/3/1 106/3/1
f 110/4/1 109/4/1 108/4/1
f 111/4/1 109/4/1 110/4/1
f 114/4/1 113/4/1 112/4/1
f 115/4/1 113/4/1 114/4/1
f 116/4/2 117/4/2 118/4/2
f 118/4/2 117/4/2 119/4/2
f 120/4/2 121/4/2 122/4/2
f 122/4/2 121/4/2 123/4/2
f 124/3/2 125/3/2 126/3/2
f 126/3/2 125/3/2 127/3/2
f 128/4/2 129/4/2 132/4/2
f 132/4/2 129/4/2 133/4/2
f 130/3/2 131/3/2 135/3/2
f 135/3/2 131/3/2 136/3/2
f 133/4/2 134/4/2 137/4/2
f 137/4/2 134/4/2 138/4/2
f 139/4/2 140/4/2 146/4/2
f 141/4/2 142/4/2 147/4/2
f 144/4/2 145/4/2 148/4/2
f 143/4/2 144/4/2 148/4/2
f 148/4/2 145/4/2 149/4/2
f 139/4/2 146/4/2 150/4/2
f 150/4/2 146/4/2 151/4/2
f 141/4/2 147/4/2 152/4/2
f 152/4/2 147/4/2 153/4/2
f 154/2/2 155/2/2 158/2/2
f 158/2/2 155/2/2 159/2/2
f 156/4/2 157/4/2 162/4/2
f 162/4/2 157/4/2 163/4/2
f 160/4/2 161/4/2 164/4/2
f 164/4/2 161/4/2 165/4/2
f 166/4/2 167/4/2 168/4/2
f 168/4/2 167/4/2 169/4/2
f 170/2/2 171/2/2 172/2/2
f 172/2/2 171/2/2 173/2/2
f 174/4/2 175/4/2 176/4/2
f 176/4/2 175/4/2 177/4/2
f 178/3/2 179/3/2 182/3/2
f 182/3/2 179/3/2 183/3/2
f 180/3/2 181/3/2 184/3/2
f 184/3/2 181/3/2 185/3/2
f 186/3/2 187/3/2 190/3/2
f 190/3/2 187/3/2 191/3/2
f 188/3/2 189/3/2 196/3/2
f 196/3/2 189/3/2 197/3/2
f 192/4/2 193/4/2 198/4/2
f 198/4/2 193/4/2 199/4/2
f 194/4/2 195/4/2 200/4/2
f 200/4/2 195/4/2 201/4/2
f 202/3/2 203/3/2 205/3/2
f 205/3/2 203/3/2 206/3/2
f 206/3/2 203/3/2 207/3/2
f 204/3/2 205/3/2 208/3/2
f 205/3/2 206/3/2 208/3/2
f 208/3/2 206/3/2 209/3/2
f 204/3/2 208/3/2 210/3/2
f 210/3/2 208/3/2 211/3/2
f 204/3/2 210/3/2 214/3/2
f 212/3/2 213/3/2 215/3/2
f 204/3/2 214/3/2 216/3/2
f 214/3/2 215/3/2 216/3/2
f 216/3/2 215/3/2 217/3/2
f 215/3/2 213/3/2 218/3/2
f 217/3/2 215/3/2 218/3/2
f 218/3/2 213/3/2 219/3/2
f 217/3/2 218/3/2 220/3/2
f 220/3/2 218/3/2 221/3/2
f 222/4/2 223/4/2 225/4/2
f 225/4/2 223/4/2 226/4/2
f 226/4/2 223/4/2 227/4/2
f 224/4/2 225/4/2 229/4/2
f 225/4/2 226/4/2 229/4/2
f 229/4/2 226/4/2 230/4/2
f 228/4/2 229/4/2 231/4/2
f 231/4/2 229/4/2 232/4/2
f 233/4/2 234/4/2 236/4/2
f 235/4/2 236/4/2 238/4/2
f 237/4/2 238/4/2 239/4/2
f 236/4/2 234/4/2 240/4/2
f 239/4/2 238/4/2 240/4/2
f 238/4/2 236/4/2 240/4/2
f 244/3/3 242/3/3 241/3/3
f 245/3/3 242/3/3 244/3/3
f 247/3/3 244/3/3 243/3/3
f 247/3/3 246/3/3 245/3/3
f 247/3/3 245/3/3 244/3/3
f 248/3/3 246/3/3 247/3/3
f 249/3/3 246/3/3 248/3/3
f 250/3/3 246/3/3 249/3/3
f 251/3/3 249/3/3 248/3/3
f 252/3/3 249/3/3 251/3/3
f 257/4/3 254/4/3 253/4/3
f 258/4/3 254/4/3 257/4/3
f 261/3/3 256/3/3 255/3/3
f 262/3/3 256/3/3 261/3/3
f 263/3/3 260/3/3 259/3/3
f 264/3/3 260/3/3 263/3/3
f 266/4/3 265/4/3 264/4/3
f 267/4/3 265/4/3 266/4/3
f 270/4/3 269/4/3 268/4/3
f 271/4/3 269/4/3 270/4/3
f 276/3/3 273/3/3 272/3/3
f 277/3/3 273/3/3 276/3/3
f 280/3/3 275/3/3 274/3/3
f 281/3/3 275/3/3 280/3/3
f 282/4/3 279/4/3 278/4/3
f 283/4/3 279/4/3 282/4/3
f 286/4/3 285/4/3 284/4/3
f 287/4/3 285/4/3 286/4/3
f 290/4/3 289/4/3 288/4/3
f 291/4/3 289/4/3 290/4/3
f 294/4/3 293/4/3 292/4/3
f 295/4/3 293/4/3 294/4/3
f 299/4/3 297/4/3 296/4/3
f 300/4/3 297/4/3 299/4/3
f 301/4/3 299/4/3 298/4/3
f 302/4/3 299/4/3 301/4/3
f 305/4/3 304/4/3 303/4/3
f 306/4/3 304/4/3 305/4/3
f 308/4/3 307/4/3 306/4/3
f 309/4/3 307/4/3 308/4/3
f 312/2/3 311/2/3 310/2/3
f 313/2/3 311/2/3 312/2/3
f 316/2/3 315/2/3 314/2/3
f 317/2/3 315/2/3 316/2/3
f 320/4/3 319/4/3 318/4/3
f 321/4/3 319/4/3 320/4/3
f 325/4/3 323/4/3 322/4/3
f 326/4/3 323/4/3 325/4/3
f 327/1/3 325/1/3 324/1/3
f 328/1/3 325/1/3 327/1/3
f 331/2/3 330/2/3 329/2/3
f 332/2/3 330/2/3 331/2/3
f 335/4/3 334/4/3 333/4/3
f 336/4/3 334/4/3 335/4/3
f 339/4/3 338/4/3 337/4/3
f 340/4/3 338/4/3 339/4/3
f 343/4/3 342/4/3 341/4/3
f 344/4/3 342/4/3 343/4/3
f 345/4/3 342/4/3 344/4/3
f 348/4/3 347/4/3 346/4/3
f 349/4/3 347/4/3 348/4/3
f 352/4/3 351/4/3 350/4/3
f 353/4/3 351/4/3 352/4/3
f 356/2/3 355/2/3 354/2/3
f 357/2/3 355/2/3 356/2/3
f 360/2/3 359/2/3 358/2/3
f 361/2/3 359/2/3 360/2/3
f 364/4/3 363/4/3 362/4/3
f 365/4/3 363/4/3 364/4/3
f 368/3/3 367/3/3 366/3/3
f 369/3/3 367/3/3 368/3/3
f 372/4/3 371/4/3 370/4/3
f 373/4/3 371/4/3 372/4/3
f 376/4/3 375/4/3 374/4/3
f 377/4/3 375/4/3 376/4/3
f 378/4/4 379/4/4 380/4/4
f 380/4/4 379/4/4 381/4/4
f 382/4/4 383/4/4 384/4/4
f 384/4/4 383/4/4 385/4/4
f 385/4/4 383/4/4 386/4/4
f 387/4/4 388/4/4 390/4/4
f 389/4/4 390/4/4 391/4/4
f 390/4/4 388/4/4 392/4/4
f 391/4/4 390/4/4 392/4/4
f 392/4/4 388/4/4 393/4/4
f 394/4/4 395/4/4 397/4/4
f 396/4/4 397/4/4 398/4/4
f 397/4/4 395/4/4 399/4/4
f 398/4/4 397/4/4 399/4/4
f 399/4/4 395/4/4 400/4/4
f 401/4/4 402/4/4 403/4/4
f 403/4/4 402/4/4 404/4/4
f 405/4/4 406/4/4 408/4/4
f 406/4/4 407/4/4 408/4/4
f 408/4/4 407/4/4 409/4/4
f 410/4/4 411/4/4 412/4/4
f 412/4/4 411/4/4 413/4/4
f 413/4/4 411/4/4 414/4/4
f 415/4/4 416/4/4 417/4/4
f 417/4/4 416/4/4 418/4/4
f 419/4/4 420/4/4 421/4/4
f 421/4/4 420/4/4 422/4/4
f 423/2/4 424/2/4 425/2/4
f 425/2/4 424/2/4 426/2/4
f 427/4/4 428/4/4 429/4/4
f 429/4/4 428/4/4 430/4/4
f 430/4/4 428/4/4 431/4/4
f 432/4/4 433/4/4 434/4/4
f 434/4/4 433/4/4 435/4/4
f 436/3/4 437/3/4 440/3/4
f 440/3/4 437/3/4 441/3/4
f 438/3/4 439/3/4 442/3/4
f 442/3/4 439/3/4 443/3/4
f 444/3/4 445/3/4 448/3/4
f 448/3/4 445/3/4 449/3/4
f 446/3/4 447/3/4 450/3/4
f 450/3/4 447/3/4 451/3/4
f 452/3/4 453/3/4 456/3/4
f 453/3/4 454/3/4 456/3/4
f 456/3/4 454/3/4 457/3/4
f 455/3/4 456/3/4 459/3/4
f 457/3/4 458/3/4 459/3/4
f 456/3/4 457/3/4 459/3/4
f 459/3/4 458/3/4 460/3/4
f 460/3/4 458/3/4 461/3/4
f 461/3/4 458/3/4 462/3/4
f 460/3/4 461/3/4 463/3/4
f 463/3/4 461/3/4 464/3/4
f 464/3/4 461/3/4 465/3/4
f 466/4/4 467/4/4 468/4/4
f 468/4/4 467/4/4 469/4/4
f 466/4/4 468/4/4 470/4/4
f 470/4/4 468/4/4 471/4/4
f 472/4/4 473/4/4 474/4/4
f 472/4/4 474/4/4 476/4/4
f 474/4/4 475/4/4 476/4/4
f 476/4/4 475/4/4 477/4/4
f 481/3/5 479/3/5 478/3/5
f 482/3/5 479/3/5 481/3/5
f 484/3/5 481/3/5 480/3/5
f 484/3/5 483/3/5 482/3/5
f 484/3/5 482/3/5 481/3/5
f 485/3/5 483/3/5 484/3/5
f 486/3/5 483/3/5 485/3/5
f 487/3/5 483/3/5 486/3/5
f 488/3/5 486/3/5 485/3/5
f 489/3/5 486/3/5 488/3/5
f 494/3/5 491/3/5 490/3/5
f 495/3/5 491/3/5 494/3/5
f 496/3/5 493/3/5 492/3/5
f 497/3/5 493/3/5 496/3/5
f 502/4/5 499/4/5 498/4/5
f 505/4/5 501/4/5 500/4/5
f 507/4/5 502/4/5 498/4/5
f 508/3/5 503/3/5 502/3/5
f 508/4/5 502/4/5 507/4/5
f 509/3/5 503/3/5 508/3/5
f 510/3/5 505/3/5 504/3/5
f 511/4/5 501/4/5 505/4/5
f 511/3/5 505/3/5 510/3/5
f 512/4/5 501/4/5 511/4/5
f 514/4/5 507/4/5 506/4/5
f 514/4/5 508/4/5 507/4/5
f 515/4/5 508/4/5 514/4/5
f 516/4/5 513/4/5 512/4/5
f 516/4/5 512/4/5 511/4/5
f 517/4/5 513/4/5 516/4/5
f 522/4/5 519/4/5 518/4/5
f 523/4/5 519/4/5 522/4/5
f 524/4/5 521/4/5 520/4/5
f 525/4/5 521/4/5 524/4/5
f 530/4/5 527/4/5 526/4/5
f 531/4/5 527/4/5 530/4/5
f 532/4/5 529/4/5 528/4/5
f 533/4/5 529/4/5 532/4/5
f 539/4/5 535/4/5 534/4/5
f 540/4/5 535/4/5 539/4/5
f 541/4/5 537/4/5 536/4/5
f 542/4/5 537/4/5 541/4/5
f 544/4/5 539/4/5 538/4/5
f 545/4/5 539/4/5 544/4/5
f 546/4/5 543/4/5 542/4/5
f 547/4/5 543/4/5 546/4/5
f 548/4/6 549/4/6 552/4/6
f 550/4/6 551/4/6 553/4/6
f 548/4/6 552/4/6 554/4/6
f 554/4/6 552/4/6 555/4/6
f 553/4/6 551/4/6 556/4/6
f 556/4/6 551/4/6 557/4/6
f 558/4/6 559/4/6 563/4/6
f 560/4/6 561/4/6 564/4/6
f 562/4/6 563/4/6 566/4/6
f 563/4/6 559/4/6 566/4/6
f 566/4/6 559/4/6 567/4/6
f 564/4/6 565/4/6 568/4/6
f 560/4/6 564/4/6 568/4/6
f 568/4/6 565/4/6 569/4/6
f 562/4/6 566/4/6 570/4/6
f 570/4/6 566/4/6 571/4/6
f 569/4/6 565/4/6 572/4/6
f 572/4/6 565/4/6 573/4/6
f 574/3/6 575/3/6 578/3/6
f 578/3/6 575/3/6 579/3/6
f 576/3/6 577/3/6 580/3/6
f 580/3/6 577/3/6 581/3/6
f 582/1/6 583/1/6 587/1/6
f 587/1/6 583/1/6 588/1/6
f 584/1/6 585/1/6 590/1/6
f 590/1/6 585/1/6 591/1/6
f 586/1/6 587/1/6 592/1/6
f 592/1/6 587/1/6 593/1/6
f 588/1/6 589/1/6 594/1/6
f 594/1/6 589/1/6 595/1/6
f 596/1/6 597/1/6 600/1/6
f 600/1/6 597/1/6 601/1/6
f 598/1/6 599/1/6 602/1/6
f 602/1/6 599/1/6 603/1/6
f 604/1/6 605/1/6 608/1/6
f 608/1/6 605/1/6 609/1/6
f 606/3/6 607/3/6 612/3/6
f 612/3/6 607/3/6 613/3/6
f 610/3/6 611/3/6 614/3/6
f 614/3/6 611/3/6 615/3/6
f 616/3/6 617/3/6 619/3/6
f 619/3/6 617/3/6 620/3/6
f 620/3/6 617/3/6 621/3/6
f 621/3/6 617/3/6 622/3/6
f 622/3/6 617/3/6 623/3/6
f 623/3/6 617/3/6 624/3/6
f 620/1/6 621/1/6 626/1/6
f 626/1/6 621/1/6 627/1/6
f 622/2/6 623/2/6 628/2/6
f 624/3/6 625/3/6 629/3/6
f 623/3/6 624/3/6 629/3/6
f 628/2/6 623/2/6 629/2/6
f 629/3/6 625/3/6 630/3/6
f 627/2/6 628/2/6 631/2/6
f 626/2/6 627/2/6 631/2/6
f 628/2/6 629/2/6 631/2/6
f 631/2/6 629/2/6 632/2/6
f 632/2/6 629/2/6 633/2/6
f 633/2/6 629/2/6 634/2/6
f 632/2/6 633/2/6 635/2/6
f 635/2/6 633/2/6 636/2/6
f 630/3/6 625/3/6 638/3/6
f 618/3/6 619/3/6 639/3/6
f 635/4/6 636/4/6 642/4/6
f 636/2/6 637/2/6 643/2/6
f 642/4/6 636/4/6 643/4/6
f 643/2/6 637/2/6 644/2/6
f 638/3/6 625/3/6 645/3/6
f 639/4/6 640/4/6 646/4/6
f 618/3/6 639/3/6 646/3/6
f 646/4/6 640/4/6 647/4/6
f 641/2/6 642/2/6 648/2/6
f 648/2/6 642/2/6 649/2/6
f 643/2/6 644/2/6 650/2/6
f 644/2/6 645/2/6 650/2/6
f 618/3/6 646/3/6 651/3/6
f 647/1/6 648/1/6 652/1/6
f 648/2/6 649/2/6 653/2/6
f 652/1/6 648/1/6 653/1/6
f 649/2/6 650/2/6 653/2/6
f 653/2/6 650/2/6 654/2/6
f 650/2/6 645/2/6 655/2/6
f 654/2/6 650/2/6 655/2/6
f 654/4/6 655/4/6 656/4/6
f 655/2/6 645/2/6 657/2/6
f 656/4/6 655/4/6 657/4/6
f 657/2/6 645/2/6 658/2/6
f 618/3/6 651/3/6 659/3/6
f 656/2/6 657/2/6 662/2/6
f 658/2/6 645/2/6 663/2/6
f 645/3/6 625/3/6 664/3/6
f 663/2/6 645/2/6 664/2/6
f 661/2/6 662/2/6 665/2/6
f 660/2/6 661/2/6 665/2/6
f 618/3/6 659/3/6 665/3/6
f 659/2/6 660/2/6 665/2/6
f 665/2/6 662/2/6 666/2/6
f 662/2/6 657/2/6 667/2/6
f 666/2/6 662/2/6 667/2/6
f 667/2/6 657/2/6 668/2/6
f 664/3/6 625/3/6 670/3/6
f 665/3/6 666/3/6 671/3/6
f 618/3/6 665/3/6 671/3/6
f 671/3/6 666/3/6 672/3/6
f 672/3/6 666/3/6 673/3/6
f 667/1/6 668/1/6 674/1/6
f 668/4/6 669/4/6 675/4/6
f 674/1/6 668/1/6 675/1/6
f 669/3/6 670/3/6 676/3/6
f 675/4/6 669/4/6 676/4/6
f 670/3/6 625/3/6 677/3/6
f 676/3/6 670/3/6 677/3/6
f 677/3/6 625/3/6 678/3/6
f 673/3/6 674/3/6 679/3/6
f 674/3/6 675/3/6 679/3/6
f 676/3/6 677/3/6 679/3/6
f 675/3/6 676/3/6 679/3/6
f 672/3/6 673/3/6 679/3/6
f 679/3/6 677/3/6 680/3/6
f 683/4/6 684/4/6 685/4/6
f 685/4/6 684/4/6 686/4/6
f 681/4/6 682/4/6 689/4/6
f 687/4/6 688/4/6 692/4/6
f 689/4/6 690/4/6 693/4/6
f 681/4/6 689/4/6 693/4/6
f 693/4/6 690/4/6 694/4/6
f 691/4/6 692/4/6 695/4/6
f 692/4/6 688/4/6 696/4/6
f 695/4/6 692/4/6 696/4/6
f 681/4/6 693/4/6 697/4/6
f 697/4/6 693/4/6 698/4/6
f 699/4/6 700/4/6 701/4/6
f 701/4/6 700/4/6 702/4/6
f 702/4/6 703/4/6 704/4/6
f 704/4/6 703/4/6 705/4/6
f 702/4/6 704/4/6 708/4/6
f 708/4/6 704/4/6 709/4/6
f 706/4/6 707/4/6 710/4/6
f 710/4/6 711/4/6 712/4/6
f 706/4/6 710/4/6 712/4/6
f 712/4/6 711/4/6 713/4/6
