# MagicaVoxel @ Ephtracy

# group
o 

# material
mtllib Robot.vox-7.mtl
usemtl palette

# normals
vn -1 0 0
vn 1 0 0
vn 0 0 1
vn 0 0 -1
vn 0 -1 0
vn 0 1 0

# texcoords
vt 0.783203 0.5
vt 0.787109 0.5
vt 0.916016 0.5
vt 0.978516 0.5

# verts
v -0.9 0.5 0
v -0.9 0.5 -0.3
v -0.9 0.6 0.9
v -0.9 0.6 0
v -0.9 0.6 -0.1
v -0.9 0.6 -0.2
v -0.9 0.6 -0.3
v -0.9 0.6 -0.4
v -0.9 0.7 -0.1
v -0.9 0.7 -0.2
v -0.9 0.7 -0.3
v -0.9 0.8 0.9
v -0.9 0.8 0
v -0.9 0.8 -0.2
v -0.9 0.8 -0.3
v -0.9 0.8 -0.4
v -0.9 0.9 0
v -0.9 0.9 -0.3
v -0.8 0.5 0.9
v -0.8 0.5 0
v -0.8 0.5 -0.3
v -0.8 0.5 -0.4
v -0.8 0.6 0.9
v -0.8 0.6 0
v -0.8 0.6 -0.3
v -0.8 0.6 -0.4
v -0.8 0.8 0.9
v -0.8 0.8 0
v -0.8 0.8 -0.3
v -0.8 0.8 -0.4
v -0.8 0.9 0.9
v -0.8 0.9 0
v -0.8 0.9 -0.3
v -0.8 0.9 -0.4
v -0.7 0.7 0.9
v -0.7 0.7 0.8
v -0.7 0.8 0.9
v -0.7 0.8 0.8
v -0.6 0.6 0.9
v -0.6 0.6 0.8
v -0.6 0.7 0.9
v -0.6 0.7 0.8
v -0.8 0.7 0.9
v -0.8 0.7 0.8
v -0.8 0.8 0.9
v -0.8 0.8 0.8
v -0.7 0.6 0.9
v -0.7 0.6 0.8
v -0.7 0.7 0.9
v -0.7 0.7 0.8
v -0.6 0.5 0.9
v -0.6 0.5 0
v -0.6 0.6 0.9
v -0.6 0.6 0
v -0.6 0.8 0.9
v -0.6 0.8 0
v -0.6 0.9 0.9
v -0.6 0.9 0
v -0.5 0.5 0
v -0.5 0.5 -0.4
v -0.5 0.6 0.9
v -0.5 0.6 0
v -0.5 0.7 -0.3
v -0.5 0.7 -0.4
v -0.5 0.8 0.9
v -0.5 0.8 0
v -0.5 0.8 -0.3
v -0.5 0.8 -0.4
v -0.5 0.9 0
v -0.5 0.9 -0.4
v -0.9 0.6 0.9
v -0.9 0.8 0.9
v -0.8 0.5 0.9
v -0.8 0.6 0.9
v -0.8 0.7 0.9
v -0.8 0.8 0.9
v -0.8 0.9 0.9
v -0.7 0.6 0.9
v -0.7 0.7 0.9
v -0.7 0.8 0.9
v -0.6 0.5 0.9
v -0.6 0.6 0.9
v -0.6 0.7 0.9
v -0.6 0.8 0.9
v -0.6 0.9 0.9
v -0.5 0.6 0.9
v -0.5 0.8 0.9
v -0.8 0.7 0.8
v -0.8 0.8 0.8
v -0.7 0.6 0.8
v -0.7 0.7 0.8
v -0.7 0.8 0.8
v -0.6 0.6 0.8
v -0.6 0.7 0.8
v -0.9 0.5 0
v -0.9 0.6 0
v -0.9 0.8 0
v -0.9 0.9 0
v -0.8 0.5 0
v -0.8 0.6 0
v -0.8 0.8 0
v -0.8 0.9 0
v -0.6 0.5 0
v -0.6 0.6 0
v -0.6 0.8 0
v -0.6 0.9 0
v -0.5 0.5 0
v -0.5 0.6 0
v -0.5 0.8 0
v -0.5 0.9 0
v -0.9 0.5 -0.3
v -0.9 0.6 -0.3
v -0.9 0.8 -0.3
v -0.9 0.9 -0.3
v -0.8 0.5 -0.3
v -0.8 0.6 -0.3
v -0.8 0.8 -0.3
v -0.8 0.9 -0.3
v -0.9 0.6 -0.4
v -0.9 0.8 -0.4
v -0.8 0.5 -0.4
v -0.8 0.6 -0.4
v -0.8 0.8 -0.4
v -0.8 0.9 -0.4
v -0.7 0.6 -0.4
v -0.7 0.7 -0.4
v -0.6 0.6 -0.4
v -0.6 0.7 -0.4
v -0.6 0.8 -0.4
v -0.5 0.5 -0.4
v -0.5 0.7 -0.4
v -0.5 0.8 -0.4
v -0.5 0.9 -0.4
v -0.8 0.5 0.9
v -0.6 0.5 0.9
v -0.9 0.5 0
v -0.8 0.5 0
v -0.6 0.5 0
v -0.5 0.5 0
v -0.9 0.5 -0.3
v -0.8 0.5 -0.3
v -0.8 0.5 -0.4
v -0.5 0.5 -0.4
v -0.9 0.6 0.9
v -0.8 0.6 0.9
v -0.6 0.6 0.9
v -0.5 0.6 0.9
v -0.9 0.6 0
v -0.8 0.6 0
v -0.6 0.6 0
v -0.5 0.6 0
v -0.9 0.6 -0.3
v -0.8 0.6 -0.3
v -0.9 0.6 -0.4
v -0.8 0.6 -0.4
v -0.7 0.7 0.9
v -0.6 0.7 0.9
v -0.7 0.7 0.8
v -0.6 0.7 0.8
v -0.8 0.8 0.9
v -0.7 0.8 0.9
v -0.8 0.8 0.8
v -0.7 0.8 0.8
v -0.7 0.6 0.9
v -0.6 0.6 0.9
v -0.7 0.6 0.8
v -0.6 0.6 0.8
v -0.8 0.7 0.9
v -0.7 0.7 0.9
v -0.8 0.7 0.8
v -0.7 0.7 0.8
v -0.9 0.8 0.9
v -0.8 0.8 0.9
v -0.6 0.8 0.9
v -0.5 0.8 0.9
v -0.9 0.8 0
v -0.8 0.8 0
v -0.6 0.8 0
v -0.5 0.8 0
v -0.9 0.8 -0.3
v -0.8 0.8 -0.3
v -0.9 0.8 -0.4
v -0.8 0.8 -0.4
v -0.8 0.9 0.9
v -0.6 0.9 0.9
v -0.9 0.9 0
v -0.8 0.9 0
v -0.6 0.9 0
v -0.5 0.9 0
v -0.9 0.9 -0.3
v -0.8 0.9 -0.3
v -0.8 0.9 -0.4
v -0.5 0.9 -0.4

# faces
f 4/4/1 2/4/1 1/4/1
f 5/4/1 2/4/1 4/4/1
f 6/4/1 2/4/1 5/4/1
f 7/4/1 2/4/1 6/4/1
f 9/4/1 4/4/1 3/4/1
f 9/4/1 5/4/1 4/4/1
f 9/3/1 6/3/1 5/3/1
f 10/4/1 8/4/1 7/4/1
f 10/3/1 6/3/1 9/3/1
f 10/4/1 7/4/1 6/4/1
f 11/4/1 8/4/1 10/4/1
f 12/4/1 9/4/1 3/4/1
f 12/4/1 10/4/1 9/4/1
f 13/4/1 10/4/1 12/4/1
f 14/3/1 11/3/1 10/3/1
f 14/4/1 10/4/1 13/4/1
f 15/4/1 8/4/1 11/4/1
f 15/3/1 11/3/1 14/3/1
f 16/4/1 8/4/1 15/4/1
f 17/4/1 14/4/1 13/4/1
f 17/4/1 15/4/1 14/4/1
f 18/4/1 15/4/1 17/4/1
f 23/4/1 20/4/1 19/4/1
f 24/4/1 20/4/1 23/4/1
f 25/4/1 22/4/1 21/4/1
f 26/4/1 22/4/1 25/4/1
f 31/4/1 28/4/1 27/4/1
f 32/4/1 28/4/1 31/4/1
f 33/4/1 30/4/1 29/4/1
f 34/4/1 30/4/1 33/4/1
f 37/1/1 36/1/1 35/1/1
f 38/1/1 36/1/1 37/1/1
f 41/4/1 40/4/1 39/4/1
f 42/4/1 40/4/1 41/4/1
f 43/4/2 44/4/2 45/4/2
f 45/4/2 44/4/2 46/4/2
f 47/2/2 48/2/2 49/2/2
f 49/2/2 48/2/2 50/2/2
f 51/4/2 52/4/2 53/4/2
f 53/4/2 52/4/2 54/4/2
f 55/4/2 56/4/2 57/4/2
f 57/4/2 56/4/2 58/4/2
f 59/4/2 60/4/2 62/4/2
f 62/4/2 60/4/2 63/4/2
f 61/4/2 62/4/2 63/4/2
f 63/4/2 60/4/2 64/4/2
f 61/4/2 63/4/2 65/4/2
f 65/4/2 63/4/2 66/4/2
f 63/3/2 64/3/2 67/3/2
f 66/4/2 63/4/2 67/4/2
f 67/3/2 64/3/2 68/3/2
f 66/4/2 67/4/2 69/4/2
f 67/4/2 68/4/2 69/4/2
f 69/4/2 68/4/2 70/4/2
f 74/4/3 72/4/3 71/4/3
f 75/4/3 72/4/3 74/4/3
f 76/4/3 72/4/3 75/4/3
f 78/4/3 74/4/3 73/4/3
f 78/2/3 75/2/3 74/2/3
f 79/2/3 75/2/3 78/2/3
f 80/4/3 77/4/3 76/4/3
f 81/4/3 78/4/3 73/4/3
f 82/4/3 78/4/3 81/4/3
f 83/1/3 80/1/3 79/1/3
f 84/4/3 77/4/3 80/4/3
f 84/1/3 80/1/3 83/1/3
f 85/4/3 77/4/3 84/4/3
f 86/4/3 83/4/3 82/4/3
f 86/4/3 84/4/3 83/4/3
f 87/4/3 84/4/3 86/4/3
f 91/2/3 89/2/3 88/2/3
f 92/2/3 89/2/3 91/2/3
f 93/1/3 91/1/3 90/1/3
f 94/1/3 91/1/3 93/1/3
f 99/4/3 96/4/3 95/4/3
f 100/4/3 96/4/3 99/4/3
f 101/4/3 98/4/3 97/4/3
f 102/4/3 98/4/3 101/4/3
f 107/4/3 104/4/3 103/4/3
f 108/4/3 104/4/3 107/4/3
f 109/4/3 106/4/3 105/4/3
f 110/4/3 106/4/3 109/4/3
f 111/4/4 112/4/4 115/4/4
f 115/4/4 112/4/4 116/4/4
f 113/4/4 114/4/4 117/4/4
f 117/4/4 114/4/4 118/4/4
f 119/4/4 120/4/4 122/4/4
f 122/4/4 120/4/4 123/4/4
f 121/4/4 122/4/4 125/4/4
f 123/4/4 124/4/4 125/4/4
f 122/4/4 123/4/4 125/4/4
f 125/4/4 124/4/4 126/4/4
f 121/4/4 125/4/4 127/4/4
f 125/3/4 126/3/4 127/3/4
f 126/4/4 124/4/4 128/4/4
f 127/3/4 126/3/4 128/3/4
f 128/4/4 124/4/4 129/4/4
f 121/4/4 127/4/4 130/4/4
f 127/4/4 128/4/4 130/4/4
f 128/3/4 129/3/4 131/3/4
f 130/4/4 128/4/4 131/4/4
f 129/4/4 124/4/4 132/4/4
f 131/3/4 129/3/4 132/3/4
f 132/4/4 124/4/4 133/4/4
f 137/4/5 135/4/5 134/4/5
f 138/4/5 135/4/5 137/4/5
f 140/4/5 137/4/5 136/4/5
f 140/4/5 139/4/5 138/4/5
f 140/4/5 138/4/5 137/4/5
f 141/4/5 139/4/5 140/4/5
f 142/4/5 139/4/5 141/4/5
f 143/4/5 139/4/5 142/4/5
f 148/4/5 145/4/5 144/4/5
f 149/4/5 145/4/5 148/4/5
f 150/4/5 147/4/5 146/4/5
f 151/4/5 147/4/5 150/4/5
f 154/4/5 153/4/5 152/4/5
f 155/4/5 153/4/5 154/4/5
f 158/1/5 157/1/5 156/1/5
f 159/1/5 157/1/5 158/1/5
f 162/4/5 161/4/5 160/4/5
f 163/4/5 161/4/5 162/4/5
f 164/4/6 165/4/6 166/4/6
f 166/4/6 165/4/6 167/4/6
f 168/2/6 169/2/6 170/2/6
f 170/2/6 169/2/6 171/2/6
f 172/4/6 173/4/6 176/4/6
f 176/4/6 173/4/6 177/4/6
f 174/4/6 175/4/6 178/4/6
f 178/4/6 175/4/6 179/4/6
f 180/4/6 181/4/6 182/4/6
f 182/4/6 181/4/6 183/4/6
f 184/4/6 185/4/6 187/4/6
f 187/4/6 185/4/6 188/4/6
f 186/4/6 187/4/6 190/4/6
f 188/4/6 189/4/6 190/4/6
f 187/4/6 188/4/6 190/4/6
f 190/4/6 189/4/6 191/4/6
f 191/4/6 189/4/6 192/4/6
f 192/4/6 189/4/6 193/4/6
