# MagicaVoxel @ Ephtracy

# group
o 

# material
mtllib Robot.vox-30.mtl
usemtl palette

# normals
vn -1 0 0
vn 1 0 0
vn 0 0 1
vn 0 0 -1
vn 0 -1 0
vn 0 1 0

# texcoords
vt 0.916016 0.5
vt 0.970703 0.5
vt 0.978516 0.5

# verts
v 6.6 0.2 0.9
v 6.6 0.2 0.8
v 6.6 0.3 1.4
v 6.6 0.3 0.9
v 6.6 0.4 1.7
v 6.6 0.4 1.4
v 6.6 0.5 1.7
v 6.6 0.5 0.8
v 6.7 0.2 1.5
v 6.7 0.2 0.9
v 6.7 0.3 1.7
v 6.7 0.3 1.5
v 6.7 0.3 1.4
v 6.7 0.3 0.9
v 6.7 0.4 1.8
v 6.7 0.4 1.7
v 6.7 0.4 1.4
v 6.7 0.5 1.8
v 6.7 0.5 1.7
v 6.8 0.1 1.6
v 6.8 0.1 1
v 6.8 0.2 1.7
v 6.8 0.2 1.6
v 6.8 0.2 1.5
v 6.8 0.2 1
v 6.8 0.3 1.7
v 6.8 0.3 1.5
v 6.8 0.4 1.1
v 6.8 0.4 1
v 6.8 0.4 0.9
v 6.8 0.5 1.7
v 6.8 0.5 1.6
v 6.8 0.5 1.4
v 6.8 0.5 1.2
v 6.8 0.5 1.1
v 6.8 0.6 1.5
v 6.8 0.6 1.4
v 6.8 0.6 1.2
v 6.8 0.6 1.1
v 6.8 0.7 1.6
v 6.8 0.7 1.5
v 6.8 0.7 1.4
v 6.8 0.7 1.2
v 6.8 0.7 1.1
v 6.8 0.7 1
v 6.8 0.8 1.7
v 6.8 0.8 1.6
v 6.8 0.8 1.5
v 6.8 0.8 1.1
v 6.8 0.8 1
v 6.8 0.8 0.9
v 6.8 0.9 1.6
v 6.8 0.9 1
v 6.9 0.1 1.7
v 6.9 0.1 1.6
v 6.9 0.1 1
v 6.9 0.1 0.9
v 6.9 0.2 1.7
v 6.9 0.2 1.6
v 6.9 0.2 1
v 6.9 0.2 0.9
v 6.9 0.8 1.7
v 6.9 0.8 1.6
v 6.9 0.8 1
v 6.9 0.8 0.9
v 6.9 0.9 1.7
v 6.9 0.9 1.6
v 6.9 0.9 1
v 6.9 0.9 0.9
v 7.6 0.2 0.9
v 7.6 0.2 0.8
v 7.6 0.4 1.8
v 7.6 0.4 1.7
v 7.6 0.4 0.9
v 7.6 0.4 0.8
v 7.6 0.5 1.8
v 7.6 0.5 1.7
v 7.7 0.4 1.1
v 7.7 0.4 0.8
v 7.7 0.5 1.1
v 7.7 0.5 0.8
v 6.7 0.4 1.1
v 6.7 0.4 0.8
v 6.7 0.5 1.1
v 6.7 0.5 0.8
v 6.8 0.2 0.9
v 6.8 0.2 0.8
v 6.8 0.4 1.8
v 6.8 0.4 1.7
v 6.8 0.4 0.9
v 6.8 0.4 0.8
v 6.8 0.5 1.8
v 6.8 0.5 1.7
v 7.5 0.1 1.7
v 7.5 0.1 1.6
v 7.5 0.1 1
v 7.5 0.1 0.9
v 7.5 0.2 1.7
v 7.5 0.2 1.6
v 7.5 0.2 1
v 7.5 0.2 0.9
v 7.5 0.8 1.7
v 7.5 0.8 1.6
v 7.5 0.8 1
v 7.5 0.8 0.9
v 7.5 0.9 1.7
v 7.5 0.9 1.6
v 7.5 0.9 1
v 7.5 0.9 0.9
v 7.6 0.1 1.6
v 7.6 0.1 1
v 7.6 0.2 1.7
v 7.6 0.2 1.6
v 7.6 0.2 1.5
v 7.6 0.2 1
v 7.6 0.3 1.7
v 7.6 0.3 1.5
v 7.6 0.4 1.1
v 7.6 0.4 1
v 7.6 0.4 0.9
v 7.6 0.5 1.7
v 7.6 0.5 1.6
v 7.6 0.5 1.4
v 7.6 0.5 1.2
v 7.6 0.5 1.1
v 7.6 0.6 1.5
v 7.6 0.6 1.4
v 7.6 0.6 1.2
v 7.6 0.6 1.1
v 7.6 0.7 1.6
v 7.6 0.7 1.5
v 7.6 0.7 1.4
v 7.6 0.7 1.2
v 7.6 0.7 1.1
v 7.6 0.7 1
v 7.6 0.8 1.7
v 7.6 0.8 1.6
v 7.6 0.8 1.5
v 7.6 0.8 1.1
v 7.6 0.8 1
v 7.6 0.8 0.9
v 7.6 0.9 1.6
v 7.6 0.9 1
v 7.7 0.2 1.5
v 7.7 0.2 0.9
v 7.7 0.3 1.7
v 7.7 0.3 1.5
v 7.7 0.3 1.4
v 7.7 0.3 0.9
v 7.7 0.4 1.8
v 7.7 0.4 1.7
v 7.7 0.4 1.4
v 7.7 0.5 1.8
v 7.7 0.5 1.7
v 7.8 0.2 0.9
v 7.8 0.2 0.8
v 7.8 0.3 1.4
v 7.8 0.3 0.9
v 7.8 0.4 1.7
v 7.8 0.4 1.4
v 7.8 0.5 1.7
v 7.8 0.5 0.8
v 6.7 0.4 1.8
v 6.7 0.5 1.8
v 6.8 0.4 1.8
v 6.8 0.5 1.8
v 7.6 0.4 1.8
v 7.6 0.5 1.8
v 7.7 0.4 1.8
v 7.7 0.5 1.8
v 6.6 0.4 1.7
v 6.6 0.5 1.7
v 6.7 0.3 1.7
v 6.7 0.4 1.7
v 6.7 0.5 1.7
v 6.8 0.2 1.7
v 6.8 0.3 1.7
v 6.8 0.4 1.7
v 6.8 0.5 1.7
v 6.8 0.8 1.7
v 6.9 0.1 1.7
v 6.9 0.2 1.7
v 6.9 0.3 1.7
v 6.9 0.7 1.7
v 6.9 0.8 1.7
v 6.9 0.9 1.7
v 7 0.2 1.7
v 7 0.3 1.7
v 7 0.4 1.7
v 7 0.6 1.7
v 7 0.7 1.7
v 7 0.8 1.7
v 7.1 0.3 1.7
v 7.1 0.4 1.7
v 7.1 0.6 1.7
v 7.1 0.7 1.7
v 7.3 0.3 1.7
v 7.3 0.4 1.7
v 7.3 0.6 1.7
v 7.3 0.7 1.7
v 7.4 0.2 1.7
v 7.4 0.3 1.7
v 7.4 0.4 1.7
v 7.4 0.6 1.7
v 7.4 0.7 1.7
v 7.4 0.8 1.7
v 7.5 0.1 1.7
v 7.5 0.2 1.7
v 7.5 0.3 1.7
v 7.5 0.7 1.7
v 7.5 0.8 1.7
v 7.5 0.9 1.7
v 7.6 0.2 1.7
v 7.6 0.3 1.7
v 7.6 0.4 1.7
v 7.6 0.5 1.7
v 7.6 0.8 1.7
v 7.7 0.3 1.7
v 7.7 0.4 1.7
v 7.7 0.5 1.7
v 7.8 0.4 1.7
v 7.8 0.5 1.7
v 6.8 0.1 1.6
v 6.8 0.2 1.6
v 6.8 0.8 1.6
v 6.8 0.9 1.6
v 6.9 0.1 1.6
v 6.9 0.2 1.6
v 6.9 0.8 1.6
v 6.9 0.9 1.6
v 7.5 0.1 1.6
v 7.5 0.2 1.6
v 7.5 0.8 1.6
v 7.5 0.9 1.6
v 7.6 0.1 1.6
v 7.6 0.2 1.6
v 7.6 0.8 1.6
v 7.6 0.9 1.6
v 6.7 0.2 1.5
v 6.7 0.3 1.5
v 6.8 0.2 1.5
v 6.8 0.3 1.5
v 7.6 0.2 1.5
v 7.6 0.3 1.5
v 7.7 0.2 1.5
v 7.7 0.3 1.5
v 6.6 0.3 1.4
v 6.6 0.4 1.4
v 6.7 0.3 1.4
v 6.7 0.4 1.4
v 7.7 0.3 1.4
v 7.7 0.4 1.4
v 7.8 0.3 1.4
v 7.8 0.4 1.4
v 6.6 0.2 0.9
v 6.6 0.3 0.9
v 6.7 0.2 0.9
v 6.7 0.3 0.9
v 7.7 0.2 0.9
v 7.7 0.3 0.9
v 7.8 0.2 0.9
v 7.8 0.3 0.9
v 6.7 0.4 1.1
v 6.7 0.5 1.1
v 6.8 0.4 1.1
v 6.8 0.5 1.1
v 7.6 0.4 1.1
v 7.6 0.5 1.1
v 7.7 0.4 1.1
v 7.7 0.5 1.1
v 6.8 0.1 1
v 6.8 0.2 1
v 6.8 0.8 1
v 6.8 0.9 1
v 6.9 0.1 1
v 6.9 0.2 1
v 6.9 0.8 1
v 6.9 0.9 1
v 7.5 0.1 1
v 7.5 0.2 1
v 7.5 0.8 1
v 7.5 0.9 1
v 7.6 0.1 1
v 7.6 0.2 1
v 7.6 0.8 1
v 7.6 0.9 1
v 6.8 0.2 0.9
v 6.8 0.4 0.9
v 6.8 0.8 0.9
v 6.9 0.1 0.9
v 6.9 0.2 0.9
v 6.9 0.3 0.9
v 6.9 0.7 0.9
v 6.9 0.8 0.9
v 6.9 0.9 0.9
v 7 0.2 0.9
v 7 0.3 0.9
v 7 0.4 0.9
v 7 0.6 0.9
v 7 0.7 0.9
v 7 0.8 0.9
v 7.1 0.3 0.9
v 7.1 0.4 0.9
v 7.1 0.6 0.9
v 7.1 0.7 0.9
v 7.3 0.3 0.9
v 7.3 0.4 0.9
v 7.3 0.6 0.9
v 7.3 0.7 0.9
v 7.4 0.2 0.9
v 7.4 0.3 0.9
v 7.4 0.4 0.9
v 7.4 0.6 0.9
v 7.4 0.7 0.9
v 7.4 0.8 0.9
v 7.5 0.1 0.9
v 7.5 0.2 0.9
v 7.5 0.3 0.9
v 7.5 0.7 0.9
v 7.5 0.8 0.9
v 7.5 0.9 0.9
v 7.6 0.2 0.9
v 7.6 0.4 0.9
v 7.6 0.8 0.9
v 6.6 0.2 0.8
v 6.6 0.5 0.8
v 6.7 0.4 0.8
v 6.7 0.5 0.8
v 6.8 0.2 0.8
v 6.8 0.4 0.8
v 7.6 0.2 0.8
v 7.6 0.4 0.8
v 7.7 0.4 0.8
v 7.7 0.5 0.8
v 7.8 0.2 0.8
v 7.8 0.5 0.8
v 6.9 0.1 1.7
v 7.5 0.1 1.7
v 6.8 0.1 1.6
v 6.9 0.1 1.6
v 7 0.1 1.6
v 7.4 0.1 1.6
v 7.5 0.1 1.6
v 7.6 0.1 1.6
v 6.9 0.1 1.5
v 7 0.1 1.5
v 7.1 0.1 1.5
v 7.3 0.1 1.5
v 7.4 0.1 1.5
v 7.5 0.1 1.5
v 7 0.1 1.4
v 7.1 0.1 1.4
v 7.3 0.1 1.4
v 7.4 0.1 1.4
v 7 0.1 1.2
v 7.1 0.1 1.2
v 7.3 0.1 1.2
v 7.4 0.1 1.2
v 6.9 0.1 1.1
v 7 0.1 1.1
v 7.1 0.1 1.1
v 7.3 0.1 1.1
v 7.4 0.1 1.1
v 7.5 0.1 1.1
v 6.8 0.1 1
v 6.9 0.1 1
v 7 0.1 1
v 7.4 0.1 1
v 7.5 0.1 1
v 7.6 0.1 1
v 6.9 0.1 0.9
v 7.5 0.1 0.9
v 6.8 0.2 1.7
v 6.9 0.2 1.7
v 7.5 0.2 1.7
v 7.6 0.2 1.7
v 6.8 0.2 1.6
v 6.9 0.2 1.6
v 7.5 0.2 1.6
v 7.6 0.2 1.6
v 6.7 0.2 1.5
v 6.8 0.2 1.5
v 7.6 0.2 1.5
v 7.7 0.2 1.5
v 6.8 0.2 1
v 6.9 0.2 1
v 7.5 0.2 1
v 7.6 0.2 1
v 6.6 0.2 0.9
v 6.7 0.2 0.9
v 6.8 0.2 0.9
v 6.9 0.2 0.9
v 7.5 0.2 0.9
v 7.6 0.2 0.9
v 7.7 0.2 0.9
v 7.8 0.2 0.9
v 6.6 0.2 0.8
v 6.8 0.2 0.8
v 7.6 0.2 0.8
v 7.8 0.2 0.8
v 6.7 0.3 1.7
v 6.8 0.3 1.7
v 7.6 0.3 1.7
v 7.7 0.3 1.7
v 6.7 0.3 1.5
v 6.8 0.3 1.5
v 7.6 0.3 1.5
v 7.7 0.3 1.5
v 6.6 0.3 1.4
v 6.7 0.3 1.4
v 7.7 0.3 1.4
v 7.8 0.3 1.4
v 6.6 0.3 0.9
v 6.7 0.3 0.9
v 7.7 0.3 0.9
v 7.8 0.3 0.9
v 6.7 0.4 1.8
v 6.8 0.4 1.8
v 7.6 0.4 1.8
v 7.7 0.4 1.8
v 6.6 0.4 1.7
v 6.7 0.4 1.7
v 6.8 0.4 1.7
v 7.6 0.4 1.7
v 7.7 0.4 1.7
v 7.8 0.4 1.7
v 6.6 0.4 1.4
v 6.7 0.4 1.4
v 7.7 0.4 1.4
v 7.8 0.4 1.4
v 6.7 0.4 1.1
v 6.8 0.4 1.1
v 7.6 0.4 1.1
v 7.7 0.4 1.1
v 6.8 0.4 1
v 7.6 0.4 1
v 6.8 0.4 0.9
v 7.6 0.4 0.9
v 6.7 0.4 0.8
v 6.8 0.4 0.8
v 7.6 0.4 0.8
v 7.7 0.4 0.8
v 6.7 0.5 1.8
v 6.8 0.5 1.8
v 7.6 0.5 1.8
v 7.7 0.5 1.8
v 6.6 0.5 1.7
v 6.7 0.5 1.7
v 6.8 0.5 1.7
v 7.6 0.5 1.7
v 7.7 0.5 1.7
v 7.8 0.5 1.7
v 6.8 0.5 1.6
v 7.6 0.5 1.6
v 6.8 0.5 1.4
v 7.6 0.5 1.4
v 6.8 0.5 1.2
v 7.6 0.5 1.2
v 6.7 0.5 1.1
v 6.8 0.5 1.1
v 7.6 0.5 1.1
v 7.7 0.5 1.1
v 6.6 0.5 0.8
v 6.7 0.5 0.8
v 7.7 0.5 0.8
v 7.8 0.5 0.8
v 6.8 0.8 1.7
v 6.9 0.8 1.7
v 7.5 0.8 1.7
v 7.6 0.8 1.7
v 6.8 0.8 1.6
v 6.9 0.8 1.6
v 7.5 0.8 1.6
v 7.6 0.8 1.6
v 6.8 0.8 1
v 6.9 0.8 1
v 7.5 0.8 1
v 7.6 0.8 1
v 6.8 0.8 0.9
v 6.9 0.8 0.9
v 7.5 0.8 0.9
v 7.6 0.8 0.9
v 6.9 0.9 1.7
v 7.5 0.9 1.7
v 6.8 0.9 1.6
v 6.9 0.9 1.6
v 7 0.9 1.6
v 7.4 0.9 1.6
v 7.5 0.9 1.6
v 7.6 0.9 1.6
v 6.9 0.9 1.5
v 7 0.9 1.5
v 7.1 0.9 1.5
v 7.3 0.9 1.5
v 7.4 0.9 1.5
v 7.5 0.9 1.5
v 7 0.9 1.4
v 7.1 0.9 1.4
v 7.3 0.9 1.4
v 7.4 0.9 1.4
v 7 0.9 1.2
v 7.1 0.9 1.2
v 7.3 0.9 1.2
v 7.4 0.9 1.2
v 6.9 0.9 1.1
v 7 0.9 1.1
v 7.1 0.9 1.1
v 7.3 0.9 1.1
v 7.4 0.9 1.1
v 7.5 0.9 1.1
v 6.8 0.9 1
v 6.9 0.9 1
v 7 0.9 1
v 7.4 0.9 1
v 7.5 0.9 1
v 7.6 0.9 1
v 6.9 0.9 0.9
v 7.5 0.9 0.9

# faces
f 4/3/1 2/3/1 1/3/1
f 6/3/1 4/3/1 3/3/1
f 7/3/1 6/3/1 5/3/1
f 8/3/1 2/3/1 4/3/1
f 8/3/1 6/3/1 7/3/1
f 8/3/1 4/3/1 6/3/1
f 12/3/1 10/3/1 9/3/1
f 13/3/1 10/3/1 12/3/1
f 14/3/1 10/3/1 13/3/1
f 16/3/1 12/3/1 11/3/1
f 16/3/1 13/3/1 12/3/1
f 17/3/1 13/3/1 16/3/1
f 18/3/1 16/3/1 15/3/1
f 19/3/1 16/3/1 18/3/1
f 23/1/1 21/1/1 20/1/1
f 24/1/1 21/1/1 23/1/1
f 25/1/1 21/1/1 24/1/1
f 26/1/1 23/1/1 22/1/1
f 26/1/1 24/1/1 23/1/1
f 27/1/1 24/1/1 26/1/1
f 35/2/1 29/2/1 28/2/1
f 36/2/1 33/2/1 32/2/1
f 37/1/1 34/1/1 33/1/1
f 37/2/1 33/2/1 36/2/1
f 38/2/1 35/2/1 34/2/1
f 38/1/1 34/1/1 37/1/1
f 39/2/1 29/2/1 35/2/1
f 39/2/1 35/2/1 38/2/1
f 40/2/1 36/2/1 32/2/1
f 40/1/1 32/1/1 31/1/1
f 41/1/1 37/1/1 36/1/1
f 41/2/1 36/2/1 40/2/1
f 42/2/1 38/2/1 37/2/1
f 42/1/1 37/1/1 41/1/1
f 43/1/1 39/1/1 38/1/1
f 43/2/1 38/2/1 42/2/1
f 44/2/1 29/2/1 39/2/1
f 44/1/1 39/1/1 43/1/1
f 45/1/1 30/1/1 29/1/1
f 45/2/1 29/2/1 44/2/1
f 46/1/1 40/1/1 31/1/1
f 46/1/1 41/1/1 40/1/1
f 47/1/1 41/1/1 46/1/1
f 48/2/1 43/2/1 42/2/1
f 48/1/1 41/1/1 47/1/1
f 48/2/1 44/2/1 43/2/1
f 48/2/1 42/2/1 41/2/1
f 49/1/1 45/1/1 44/1/1
f 49/2/1 44/2/1 48/2/1
f 50/1/1 30/1/1 45/1/1
f 50/1/1 45/1/1 49/1/1
f 51/1/1 30/1/1 50/1/1
f 52/1/1 48/1/1 47/1/1
f 52/1/1 50/1/1 49/1/1
f 52/1/1 49/1/1 48/1/1
f 53/1/1 50/1/1 52/1/1
f 58/1/1 55/1/1 54/1/1
f 59/1/1 55/1/1 58/1/1
f 60/1/1 57/1/1 56/1/1
f 61/1/1 57/1/1 60/1/1
f 66/1/1 63/1/1 62/1/1
f 67/1/1 63/1/1 66/1/1
f 68/1/1 65/1/1 64/1/1
f 69/1/1 65/1/1 68/1/1
f 74/3/1 71/3/1 70/3/1
f 75/3/1 71/3/1 74/3/1
f 76/3/1 73/3/1 72/3/1
f 77/3/1 73/3/1 76/3/1
f 80/3/1 79/3/1 78/3/1
f 81/3/1 79/3/1 80/3/1
f 82/3/2 83/3/2 84/3/2
f 84/3/2 83/3/2 85/3/2
f 86/3/2 87/3/2 90/3/2
f 90/3/2 87/3/2 91/3/2
f 88/3/2 89/3/2 92/3/2
f 92/3/2 89/3/2 93/3/2
f 94/1/2 95/1/2 98/1/2
f 98/1/2 95/1/2 99/1/2
f 96/1/2 97/1/2 100/1/2
f 100/1/2 97/1/2 101/1/2
f 102/1/2 103/1/2 106/1/2
f 106/1/2 103/1/2 107/1/2
f 104/1/2 105/1/2 108/1/2
f 108/1/2 105/1/2 109/1/2
f 110/1/2 111/1/2 113/1/2
f 113/1/2 111/1/2 114/1/2
f 114/1/2 111/1/2 115/1/2
f 112/1/2 113/1/2 116/1/2
f 113/1/2 114/1/2 116/1/2
f 116/1/2 114/1/2 117/1/2
f 118/2/2 119/2/2 125/2/2
f 122/2/2 123/2/2 126/2/2
f 123/1/2 124/1/2 127/1/2
f 126/2/2 123/2/2 127/2/2
f 124/2/2 125/2/2 128/2/2
f 127/1/2 124/1/2 128/1/2
f 125/2/2 119/2/2 129/2/2
f 128/2/2 125/2/2 129/2/2
f 122/2/2 126/2/2 130/2/2
f 121/1/2 122/1/2 130/1/2
f 126/1/2 127/1/2 131/1/2
f 130/2/2 126/2/2 131/2/2
f 127/2/2 128/2/2 132/2/2
f 131/1/2 127/1/2 132/1/2
f 128/1/2 129/1/2 133/1/2
f 132/2/2 128/2/2 133/2/2
f 129/2/2 119/2/2 134/2/2
f 133/1/2 129/1/2 134/1/2
f 119/1/2 120/1/2 135/1/2
f 134/2/2 119/2/2 135/2/2
f 121/1/2 130/1/2 136/1/2
f 130/1/2 131/1/2 136/1/2
f 136/1/2 131/1/2 137/1/2
f 132/2/2 133/2/2 138/2/2
f 137/1/2 131/1/2 138/1/2
f 133/2/2 134/2/2 138/2/2
f 131/2/2 132/2/2 138/2/2
f 134/1/2 135/1/2 139/1/2
f 138/2/2 134/2/2 139/2/2
f 135/1/2 120/1/2 140/1/2
f 139/1/2 135/1/2 140/1/2
f 140/1/2 120/1/2 141/1/2
f 137/1/2 138/1/2 142/1/2
f 139/1/2 140/1/2 142/1/2
f 138/1/2 139/1/2 142/1/2
f 142/1/2 140/1/2 143/1/2
f 144/3/2 145/3/2 147/3/2
f 147/3/2 145/3/2 148/3/2
f 148/3/2 145/3/2 149/3/2
f 146/3/2 147/3/2 151/3/2
f 147/3/2 148/3/2 151/3/2
f 151/3/2 148/3/2 152/3/2
f 150/3/2 151/3/2 153/3/2
f 153/3/2 151/3/2 154/3/2
f 155/3/2 156/3/2 158/3/2
f 157/3/2 158/3/2 160/3/2
f 159/3/2 160/3/2 161/3/2
f 158/3/2 156/3/2 162/3/2
f 161/3/2 160/3/2 162/3/2
f 160/3/2 158/3/2 162/3/2
f 165/3/3 164/3/3 163/3/3
f 166/3/3 164/3/3 165/3/3
f 169/3/3 168/3/3 167/3/3
f 170/3/3 168/3/3 169/3/3
f 174/3/3 172/3/3 171/3/3
f 175/3/3 172/3/3 174/3/3
f 177/3/3 174/3/3 173/3/3
f 178/3/3 174/3/3 177/3/3
f 182/1/3 179/1/3 178/1/3
f 182/1/3 180/1/3 179/1/3
f 182/1/3 178/1/3 177/1/3
f 182/1/3 177/1/3 176/1/3
f 183/1/3 180/1/3 182/1/3
f 184/1/3 180/1/3 183/1/3
f 185/1/3 180/1/3 184/1/3
f 187/1/3 182/1/3 181/1/3
f 187/1/3 183/1/3 182/1/3
f 188/2/3 184/2/3 183/2/3
f 188/1/3 183/1/3 187/1/3
f 189/2/3 184/2/3 188/2/3
f 190/2/3 184/2/3 189/2/3
f 191/1/3 186/1/3 185/1/3
f 191/2/3 184/2/3 190/2/3
f 191/1/3 185/1/3 184/1/3
f 192/1/3 186/1/3 191/1/3
f 193/1/3 189/1/3 188/1/3
f 193/2/3 188/2/3 187/2/3
f 194/2/3 190/2/3 189/2/3
f 194/1/3 189/1/3 193/1/3
f 195/1/3 191/1/3 190/1/3
f 195/2/3 190/2/3 194/2/3
f 196/2/3 192/2/3 191/2/3
f 196/1/3 191/1/3 195/1/3
f 197/2/3 193/2/3 187/2/3
f 197/2/3 194/2/3 193/2/3
f 198/1/3 195/1/3 194/1/3
f 198/2/3 194/2/3 197/2/3
f 199/2/3 196/2/3 195/2/3
f 199/1/3 195/1/3 198/1/3
f 200/2/3 192/2/3 196/2/3
f 200/2/3 196/2/3 199/2/3
f 201/1/3 187/1/3 181/1/3
f 201/2/3 197/2/3 187/2/3
f 202/1/3 198/1/3 197/1/3
f 202/2/3 197/2/3 201/2/3
f 203/2/3 199/2/3 198/2/3
f 203/1/3 198/1/3 202/1/3
f 204/1/3 200/1/3 199/1/3
f 204/2/3 199/2/3 203/2/3
f 205/2/3 192/2/3 200/2/3
f 205/1/3 200/1/3 204/1/3
f 206/1/3 186/1/3 192/1/3
f 206/2/3 192/2/3 205/2/3
f 207/1/3 202/1/3 201/1/3
f 207/1/3 201/1/3 181/1/3
f 208/1/3 202/1/3 207/1/3
f 209/2/3 205/2/3 204/2/3
f 209/1/3 202/1/3 208/1/3
f 209/2/3 204/2/3 203/2/3
f 209/2/3 203/2/3 202/2/3
f 210/1/3 206/1/3 205/1/3
f 210/2/3 205/2/3 209/2/3
f 211/1/3 186/1/3 206/1/3
f 211/1/3 206/1/3 210/1/3
f 212/1/3 186/1/3 211/1/3
f 213/1/3 210/1/3 209/1/3
f 213/1/3 211/1/3 210/1/3
f 213/1/3 209/1/3 208/1/3
f 214/1/3 211/1/3 213/1/3
f 215/1/3 211/1/3 214/1/3
f 216/1/3 211/1/3 215/1/3
f 217/1/3 211/1/3 216/1/3
f 218/3/3 215/3/3 214/3/3
f 219/3/3 215/3/3 218/3/3
f 221/3/3 220/3/3 219/3/3
f 222/3/3 220/3/3 221/3/3
f 227/1/3 224/1/3 223/1/3
f 228/1/3 224/1/3 227/1/3
f 229/1/3 226/1/3 225/1/3
f 230/1/3 226/1/3 229/1/3
f 235/1/3 232/1/3 231/1/3
f 236/1/3 232/1/3 235/1/3
f 237/1/3 234/1/3 233/1/3
f 238/1/3 234/1/3 237/1/3
f 241/3/3 240/3/3 239/3/3
f 242/3/3 240/3/3 241/3/3
f 245/3/3 244/3/3 243/3/3
f 246/3/3 244/3/3 245/3/3
f 249/3/3 248/3/3 247/3/3
f 250/3/3 248/3/3 249/3/3
f 253/3/3 252/3/3 251/3/3
f 254/3/3 252/3/3 253/3/3
f 257/3/3 256/3/3 255/3/3
f 258/3/3 256/3/3 257/3/3
f 261/3/3 260/3/3 259/3/3
f 262/3/3 260/3/3 261/3/3
f 263/3/4 264/3/4 265/3/4
f 265/3/4 264/3/4 266/3/4
f 267/3/4 268/3/4 269/3/4
f 269/3/4 268/3/4 270/3/4
f 271/1/4 272/1/4 275/1/4
f 275/1/4 272/1/4 276/1/4
f 273/1/4 274/1/4 277/1/4
f 277/1/4 274/1/4 278/1/4
f 279/1/4 280/1/4 283/1/4
f 283/1/4 280/1/4 284/1/4
f 281/1/4 282/1/4 285/1/4
f 285/1/4 282/1/4 286/1/4
f 287/1/4 288/1/4 291/1/4
f 288/1/4 289/1/4 291/1/4
f 291/1/4 289/1/4 292/1/4
f 292/1/4 289/1/4 293/1/4
f 293/1/4 289/1/4 294/1/4
f 290/1/4 291/1/4 296/1/4
f 291/1/4 292/1/4 296/1/4
f 292/2/4 293/2/4 297/2/4
f 296/1/4 292/1/4 297/1/4
f 297/2/4 293/2/4 298/2/4
f 298/2/4 293/2/4 299/2/4
f 294/1/4 295/1/4 300/1/4
f 299/2/4 293/2/4 300/2/4
f 293/1/4 294/1/4 300/1/4
f 300/1/4 295/1/4 301/1/4
f 297/1/4 298/1/4 302/1/4
f 296/2/4 297/2/4 302/2/4
f 298/2/4 299/2/4 303/2/4
f 302/1/4 298/1/4 303/1/4
f 299/1/4 300/1/4 304/1/4
f 303/2/4 299/2/4 304/2/4
f 300/2/4 301/2/4 305/2/4
f 304/1/4 300/1/4 305/1/4
f 296/2/4 302/2/4 306/2/4
f 302/2/4 303/2/4 306/2/4
f 303/1/4 304/1/4 307/1/4
f 306/2/4 303/2/4 307/2/4
f 304/2/4 305/2/4 308/2/4
f 307/1/4 304/1/4 308/1/4
f 305/2/4 301/2/4 309/2/4
f 308/2/4 305/2/4 309/2/4
f 290/1/4 296/1/4 310/1/4
f 296/2/4 306/2/4 310/2/4
f 306/1/4 307/1/4 311/1/4
f 310/2/4 306/2/4 311/2/4
f 307/2/4 308/2/4 312/2/4
f 311/1/4 307/1/4 312/1/4
f 308/1/4 309/1/4 313/1/4
f 312/2/4 308/2/4 313/2/4
f 309/2/4 301/2/4 314/2/4
f 313/1/4 309/1/4 314/1/4
f 301/1/4 295/1/4 315/1/4
f 314/2/4 301/2/4 315/2/4
f 310/1/4 311/1/4 316/1/4
f 290/1/4 310/1/4 316/1/4
f 316/1/4 311/1/4 317/1/4
f 313/2/4 314/2/4 318/2/4
f 317/1/4 311/1/4 318/1/4
f 312/2/4 313/2/4 318/2/4
f 311/2/4 312/2/4 318/2/4
f 314/1/4 315/1/4 319/1/4
f 318/2/4 314/2/4 319/2/4
f 315/1/4 295/1/4 320/1/4
f 319/1/4 315/1/4 320/1/4
f 320/1/4 295/1/4 321/1/4
f 318/1/4 319/1/4 322/1/4
f 319/1/4 320/1/4 322/1/4
f 317/1/4 318/1/4 322/1/4
f 322/1/4 320/1/4 323/1/4
f 323/1/4 320/1/4 324/1/4
f 325/3/4 326/3/4 327/3/4
f 327/3/4 326/3/4 328/3/4
f 325/3/4 327/3/4 329/3/4
f 329/3/4 327/3/4 330/3/4
f 331/3/4 332/3/4 333/3/4
f 331/3/4 333/3/4 335/3/4
f 333/3/4 334/3/4 335/3/4
f 335/3/4 334/3/4 336/3/4
f 340/1/5 338/1/5 337/1/5
f 341/1/5 338/1/5 340/1/5
f 342/1/5 338/1/5 341/1/5
f 343/1/5 338/1/5 342/1/5
f 345/1/5 340/1/5 339/1/5
f 345/1/5 341/1/5 340/1/5
f 346/2/5 342/2/5 341/2/5
f 346/1/5 341/1/5 345/1/5
f 347/2/5 342/2/5 346/2/5
f 348/2/5 342/2/5 347/2/5
f 349/1/5 344/1/5 343/1/5
f 349/2/5 342/2/5 348/2/5
f 349/1/5 343/1/5 342/1/5
f 350/1/5 344/1/5 349/1/5
f 351/1/5 347/1/5 346/1/5
f 351/2/5 346/2/5 345/2/5
f 352/2/5 348/2/5 347/2/5
f 352/1/5 347/1/5 351/1/5
f 353/1/5 349/1/5 348/1/5
f 353/2/5 348/2/5 352/2/5
f 354/2/5 350/2/5 349/2/5
f 354/1/5 349/1/5 353/1/5
f 355/2/5 351/2/5 345/2/5
f 355/2/5 352/2/5 351/2/5
f 356/1/5 353/1/5 352/1/5
f 356/2/5 352/2/5 355/2/5
f 357/2/5 354/2/5 353/2/5
f 357/1/5 353/1/5 356/1/5
f 358/2/5 350/2/5 354/2/5
f 358/2/5 354/2/5 357/2/5
f 359/1/5 345/1/5 339/1/5
f 359/2/5 355/2/5 345/2/5
f 360/1/5 356/1/5 355/1/5
f 360/2/5 355/2/5 359/2/5
f 361/2/5 357/2/5 356/2/5
f 361/1/5 356/1/5 360/1/5
f 362/1/5 358/1/5 357/1/5
f 362/2/5 357/2/5 361/2/5
f 363/2/5 350/2/5 358/2/5
f 363/1/5 358/1/5 362/1/5
f 364/1/5 344/1/5 350/1/5
f 364/2/5 350/2/5 363/2/5
f 365/1/5 360/1/5 359/1/5
f 365/1/5 359/1/5 339/1/5
f 366/1/5 360/1/5 365/1/5
f 367/2/5 363/2/5 362/2/5
f 367/1/5 360/1/5 366/1/5
f 367/2/5 362/2/5 361/2/5
f 367/2/5 361/2/5 360/2/5
f 368/1/5 364/1/5 363/1/5
f 368/2/5 363/2/5 367/2/5
f 369/1/5 344/1/5 364/1/5
f 369/1/5 364/1/5 368/1/5
f 370/1/5 344/1/5 369/1/5
f 371/1/5 368/1/5 367/1/5
f 371/1/5 369/1/5 368/1/5
f 371/1/5 367/1/5 366/1/5
f 372/1/5 369/1/5 371/1/5
f 377/1/5 374/1/5 373/1/5
f 378/1/5 374/1/5 377/1/5
f 379/1/5 376/1/5 375/1/5
f 380/1/5 376/1/5 379/1/5
f 385/3/5 382/3/5 381/3/5
f 388/3/5 384/3/5 383/3/5
f 390/3/5 385/3/5 381/3/5
f 391/1/5 386/1/5 385/1/5
f 391/3/5 385/3/5 390/3/5
f 392/1/5 386/1/5 391/1/5
f 393/1/5 388/1/5 387/1/5
f 394/3/5 384/3/5 388/3/5
f 394/1/5 388/1/5 393/1/5
f 395/3/5 384/3/5 394/3/5
f 397/3/5 390/3/5 389/3/5
f 397/3/5 391/3/5 390/3/5
f 398/3/5 391/3/5 397/3/5
f 399/3/5 396/3/5 395/3/5
f 399/3/5 395/3/5 394/3/5
f 400/3/5 396/3/5 399/3/5
f 405/3/5 402/3/5 401/3/5
f 406/3/5 402/3/5 405/3/5
f 407/3/5 404/3/5 403/3/5
f 408/3/5 404/3/5 407/3/5
f 413/3/5 410/3/5 409/3/5
f 414/3/5 410/3/5 413/3/5
f 415/3/5 412/3/5 411/3/5
f 416/3/5 412/3/5 415/3/5
f 422/3/5 418/3/5 417/3/5
f 423/3/5 418/3/5 422/3/5
f 424/3/5 420/3/5 419/3/5
f 425/3/5 420/3/5 424/3/5
f 427/3/5 422/3/5 421/3/5
f 428/3/5 422/3/5 427/3/5
f 429/3/5 426/3/5 425/3/5
f 430/3/5 426/3/5 429/3/5
f 431/3/6 432/3/6 435/3/6
f 433/3/6 434/3/6 436/3/6
f 431/3/6 435/3/6 437/3/6
f 436/3/6 434/3/6 438/3/6
f 431/3/6 437/3/6 439/3/6
f 439/3/6 437/3/6 440/3/6
f 438/3/6 434/3/6 441/3/6
f 441/3/6 434/3/6 442/3/6
f 443/3/6 444/3/6 448/3/6
f 448/3/6 444/3/6 449/3/6
f 445/3/6 446/3/6 450/3/6
f 450/3/6 446/3/6 451/3/6
f 448/3/6 449/3/6 453/3/6
f 447/3/6 448/3/6 453/3/6
f 451/3/6 452/3/6 454/3/6
f 450/3/6 451/3/6 454/3/6
f 447/3/6 453/3/6 455/3/6
f 454/3/6 452/3/6 456/3/6
f 447/3/6 455/3/6 457/3/6
f 456/3/6 452/3/6 458/3/6
f 447/3/6 457/3/6 459/3/6
f 459/3/6 457/3/6 460/3/6
f 458/3/6 452/3/6 461/3/6
f 461/3/6 452/3/6 462/3/6
f 447/3/6 459/3/6 463/3/6
f 463/3/6 459/3/6 464/3/6
f 462/3/6 452/3/6 465/3/6
f 465/3/6 452/3/6 466/3/6
f 467/1/6 468/1/6 471/1/6
f 471/1/6 468/1/6 472/1/6
f 469/1/6 470/1/6 473/1/6
f 473/1/6 470/1/6 474/1/6
f 475/1/6 476/1/6 479/1/6
f 479/1/6 476/1/6 480/1/6
f 477/1/6 478/1/6 481/1/6
f 481/1/6 478/1/6 482/1/6
f 483/1/6 484/1/6 486/1/6
f 486/1/6 484/1/6 487/1/6
f 487/1/6 484/1/6 488/1/6
f 488/1/6 484/1/6 489/1/6
f 485/1/6 486/1/6 491/1/6
f 486/1/6 487/1/6 491/1/6
f 487/2/6 488/2/6 492/2/6
f 491/1/6 487/1/6 492/1/6
f 492/2/6 488/2/6 493/2/6
f 493/2/6 488/2/6 494/2/6
f 489/1/6 490/1/6 495/1/6
f 494/2/6 488/2/6 495/2/6
f 488/1/6 489/1/6 495/1/6
f 495/1/6 490/1/6 496/1/6
f 492/1/6 493/1/6 497/1/6
f 491/2/6 492/2/6 497/2/6
f 493/2/6 494/2/6 498/2/6
f 497/1/6 493/1/6 498/1/6
f 494/1/6 495/1/6 499/1/6
f 498/2/6 494/2/6 499/2/6
f 495/2/6 496/2/6 500/2/6
f 499/1/6 495/1/6 500/1/6
f 491/2/6 497/2/6 501/2/6
f 497/2/6 498/2/6 501/2/6
f 498/1/6 499/1/6 502/1/6
f 501/2/6 498/2/6 502/2/6
f 499/2/6 500/2/6 503/2/6
f 502/1/6 499/1/6 503/1/6
f 500/2/6 496/2/6 504/2/6
f 503/2/6 500/2/6 504/2/6
f 485/1/6 491/1/6 505/1/6
f 491/2/6 501/2/6 505/2/6
f 501/1/6 502/1/6 506/1/6
f 505/2/6 501/2/6 506/2/6
f 502/2/6 503/2/6 507/2/6
f 506/1/6 502/1/6 507/1/6
f 503/1/6 504/1/6 508/1/6
f 507/2/6 503/2/6 508/2/6
f 504/2/6 496/2/6 509/2/6
f 508/1/6 504/1/6 509/1/6
f 496/1/6 490/1/6 510/1/6
f 509/2/6 496/2/6 510/2/6
f 505/1/6 506/1/6 511/1/6
f 485/1/6 505/1/6 511/1/6
f 511/1/6 506/1/6 512/1/6
f 508/2/6 509/2/6 513/2/6
f 512/1/6 506/1/6 513/1/6
f 507/2/6 508/2/6 513/2/6
f 506/2/6 507/2/6 513/2/6
f 509/1/6 510/1/6 514/1/6
f 513/2/6 509/2/6 514/2/6
f 510/1/6 490/1/6 515/1/6
f 514/1/6 510/1/6 515/1/6
f 515/1/6 490/1/6 516/1/6
f 513/1/6 514/1/6 517/1/6
f 514/1/6 515/1/6 517/1/6
f 512/1/6 513/1/6 517/1/6
f 517/1/6 515/1/6 518/1/6
