# MagicaVoxel @ Ephtracy

# group
o 

# material
mtllib Robot.vox-13.mtl
usemtl palette

# normals
vn -1 0 0
vn 1 0 0
vn 0 0 1
vn 0 0 -1
vn 0 -1 0
vn 0 1 0

# texcoords
vt 0.912109 0.5
vt 0.916016 0.5
vt 0.970703 0.5
vt 0.974609 0.5
vt 0.978516 0.5
vt 0.982422 0.5
vt 0.990234 0.5

# verts
v -0.5 0.5 -0.9
v -0.5 0.5 -1.9
v -0.5 0.5 -2.2
v -0.5 0.6 -1
v -0.5 0.6 -1.8
v -0.5 0.7 -1
v -0.5 0.7 -1.7
v -0.5 1 -1.1
v -0.5 1 -1.2
v -0.5 1.1 -0.9
v -0.5 1.1 -1
v -0.5 1.1 -1.7
v -0.5 1.1 -1.8
v -0.5 1.1 -1.9
v -0.5 1.1 -2.2
v -0.5 1.2 -1.1
v -0.5 1.2 -1.2
v -0.5 1.2 -1.6
v -0.5 1.2 -1.8
v -0.5 1.2 -1.9
v -0.5 1.3 -1
v -0.5 1.3 -1.1
v -0.5 1.3 -1.2
v -0.5 1.3 -1.6
v -0.5 1.3 -1.7
v -0.5 1.3 -1.8
v -0.5 1.4 -1.1
v -0.5 1.4 -1.7
v -0.4 1.1 -1.9
v -0.4 1.1 -2.1
v -0.4 1.2 -1.9
v -0.4 1.2 -2.1
v -0.4 1.4 -1.2
v -0.4 1.4 -1.5
v -0.4 1.5 -1.2
v -0.4 1.5 -1.5
v -0.3 1.2 -1.9
v -0.3 1.2 -2
v -0.3 1.4 -1.9
v -0.3 1.4 -2
v -0.3 1.5 -1.9
v -0.3 1.5 -2
v 0.2 1.1 -1.9
v 0.2 1.1 -2.1
v 0.2 1.2 -1.9
v 0.2 1.2 -2
v 0.2 1.2 -2.1
v 0.2 1.4 -1.9
v 0.2 1.4 -2
v 0.2 1.5 -1.9
v 0.2 1.5 -2
v -0.2 1.1 -1.9
v -0.2 1.1 -2.1
v -0.2 1.2 -1.9
v -0.2 1.2 -2
v -0.2 1.2 -2.1
v -0.2 1.4 -1.9
v -0.2 1.4 -2
v -0.2 1.5 -1.9
v -0.2 1.5 -2
v 0.3 1.2 -1.9
v 0.3 1.2 -2
v 0.3 1.4 -1.9
v 0.3 1.4 -2
v 0.3 1.5 -1.9
v 0.3 1.5 -2
v 0.4 1.1 -1.9
v 0.4 1.1 -2.1
v 0.4 1.2 -1.9
v 0.4 1.2 -2.1
v 0.4 1.4 -1.2
v 0.4 1.4 -1.5
v 0.4 1.5 -1.2
v 0.4 1.5 -1.5
v 0.5 0.5 -0.9
v 0.5 0.5 -1.9
v 0.5 0.5 -2.2
v 0.5 0.6 -1
v 0.5 0.6 -1.8
v 0.5 0.7 -1
v 0.5 0.7 -1.7
v 0.5 1 -1.1
v 0.5 1 -1.2
v 0.5 1.1 -0.9
v 0.5 1.1 -1
v 0.5 1.1 -1.7
v 0.5 1.1 -1.8
v 0.5 1.1 -1.9
v 0.5 1.1 -2.2
v 0.5 1.2 -1.1
v 0.5 1.2 -1.2
v 0.5 1.2 -1.6
v 0.5 1.2 -1.8
v 0.5 1.2 -1.9
v 0.5 1.3 -1
v 0.5 1.3 -1.1
v 0.5 1.3 -1.2
v 0.5 1.3 -1.6
v 0.5 1.3 -1.7
v 0.5 1.3 -1.8
v 0.5 1.4 -1.1
v 0.5 1.4 -1.7
v -0.5 0.5 -0.9
v -0.5 1.1 -0.9
v -0.4 0.5 -0.9
v -0.4 1.1 -0.9
v 0.2 0.6 -0.9
v 0.2 1.1 -0.9
v 0.3 0.6 -0.9
v 0.3 1.1 -0.9
v 0.4 0.5 -0.9
v 0.4 1.1 -0.9
v 0.5 0.5 -0.9
v 0.5 1.1 -0.9
v -0.5 1.1 -1
v -0.5 1.3 -1
v -0.4 1.1 -1
v -0.4 1.3 -1
v -0.2 1.2 -1
v -0.2 1.3 -1
v 0.2 1.1 -1
v 0.2 1.2 -1
v 0.3 1.1 -1
v 0.3 1.2 -1
v 0.3 1.3 -1
v 0.4 1.1 -1
v 0.4 1.3 -1
v 0.5 1.1 -1
v 0.5 1.3 -1
v -0.5 1.3 -1.1
v -0.5 1.4 -1.1
v -0.4 1.3 -1.1
v -0.4 1.4 -1.1
v -0.2 1.3 -1.1
v 0.3 1.3 -1.1
v 0.4 1.3 -1.1
v 0.4 1.4 -1.1
v 0.5 1.3 -1.1
v 0.5 1.4 -1.1
v -0.4 1.4 -1.2
v -0.4 1.5 -1.2
v 0.4 1.4 -1.2
v 0.4 1.5 -1.2
v -0.3 1.2 -1.9
v -0.3 1.4 -1.9
v -0.3 1.5 -1.9
v -0.2 1.2 -1.9
v -0.2 1.4 -1.9
v -0.2 1.5 -1.9
v 0.2 1.2 -1.9
v 0.2 1.4 -1.9
v 0.2 1.5 -1.9
v 0.3 1.2 -1.9
v 0.3 1.4 -1.9
v 0.3 1.5 -1.9
v -0.4 1.4 -1.5
v -0.4 1.5 -1.5
v 0.4 1.4 -1.5
v 0.4 1.5 -1.5
v -0.5 1.3 -1.7
v -0.5 1.4 -1.7
v 0.5 1.3 -1.7
v 0.5 1.4 -1.7
v -0.5 1.2 -1.8
v -0.5 1.3 -1.8
v 0.5 1.2 -1.8
v 0.5 1.3 -1.8
v -0.5 1.1 -1.9
v -0.5 1.2 -1.9
v -0.4 1.1 -1.9
v -0.4 1.2 -1.9
v -0.2 1.1 -1.9
v -0.2 1.2 -1.9
v 0.2 1.1 -1.9
v 0.2 1.2 -1.9
v 0.4 1.1 -1.9
v 0.4 1.2 -1.9
v 0.5 1.1 -1.9
v 0.5 1.2 -1.9
v -0.3 1.2 -2
v -0.3 1.4 -2
v -0.3 1.5 -2
v -0.2 1.2 -2
v -0.2 1.4 -2
v -0.2 1.5 -2
v 0.2 1.2 -2
v 0.2 1.4 -2
v 0.2 1.5 -2
v 0.3 1.2 -2
v 0.3 1.4 -2
v 0.3 1.5 -2
v -0.4 1.1 -2.1
v -0.4 1.2 -2.1
v -0.2 1.1 -2.1
v -0.2 1.2 -2.1
v 0.2 1.1 -2.1
v 0.2 1.2 -2.1
v 0.4 1.1 -2.1
v 0.4 1.2 -2.1
v -0.5 0.5 -2.2
v -0.5 1.1 -2.2
v -0.4 0.6 -2.2
v -0.4 1 -2.2
v -0.3 0.6 -2.2
v -0.3 1 -2.2
v -0.2 0.6 -2.2
v -0.2 1 -2.2
v -0.1 0.6 -2.2
v -0.1 1 -2.2
v 0.1 0.6 -2.2
v 0.1 1 -2.2
v 0.2 0.6 -2.2
v 0.2 1 -2.2
v 0.3 0.6 -2.2
v 0.3 1 -2.2
v 0.4 0.6 -2.2
v 0.4 1 -2.2
v 0.5 0.5 -2.2
v 0.5 1.1 -2.2
v -0.5 0.5 -0.9
v -0.4 0.5 -0.9
v 0.4 0.5 -0.9
v 0.5 0.5 -0.9
v -0.4 0.5 -1.2
v 0.4 0.5 -1.2
v -0.5 0.5 -1.9
v 0.5 0.5 -1.9
v -0.5 0.5 -2.2
v 0.5 0.5 -2.2
v -0.5 1.1 -0.9
v -0.4 1.1 -0.9
v 0.2 1.1 -0.9
v 0.3 1.1 -0.9
v 0.4 1.1 -0.9
v 0.5 1.1 -0.9
v -0.5 1.1 -1
v -0.4 1.1 -1
v 0.2 1.1 -1
v 0.3 1.1 -1
v 0.4 1.1 -1
v 0.5 1.1 -1
v -0.5 1.1 -1.9
v -0.4 1.1 -1.9
v -0.2 1.1 -1.9
v 0.2 1.1 -1.9
v 0.4 1.1 -1.9
v 0.5 1.1 -1.9
v -0.4 1.1 -2.1
v -0.2 1.1 -2.1
v 0.2 1.1 -2.1
v 0.4 1.1 -2.1
v -0.5 1.1 -2.2
v 0.5 1.1 -2.2
v -0.5 1.2 -1.8
v 0.5 1.2 -1.8
v -0.5 1.2 -1.9
v -0.4 1.2 -1.9
v -0.3 1.2 -1.9
v -0.2 1.2 -1.9
v 0.2 1.2 -1.9
v 0.3 1.2 -1.9
v 0.4 1.2 -1.9
v 0.5 1.2 -1.9
v -0.3 1.2 -2
v -0.2 1.2 -2
v 0.2 1.2 -2
v 0.3 1.2 -2
v -0.4 1.2 -2.1
v -0.2 1.2 -2.1
v 0.2 1.2 -2.1
v 0.4 1.2 -2.1
v -0.5 1.3 -1
v -0.4 1.3 -1
v -0.2 1.3 -1
v 0.3 1.3 -1
v 0.4 1.3 -1
v 0.5 1.3 -1
v -0.5 1.3 -1.1
v -0.4 1.3 -1.1
v -0.2 1.3 -1.1
v 0.3 1.3 -1.1
v 0.4 1.3 -1.1
v 0.5 1.3 -1.1
v -0.5 1.3 -1.7
v 0.5 1.3 -1.7
v -0.5 1.3 -1.8
v 0.5 1.3 -1.8
v -0.5 1.4 -1.1
v -0.4 1.4 -1.1
v 0.4 1.4 -1.1
v 0.5 1.4 -1.1
v -0.4 1.4 -1.2
v 0.4 1.4 -1.2
v -0.4 1.4 -1.5
v 0.4 1.4 -1.5
v -0.5 1.4 -1.7
v 0.5 1.4 -1.7
v -0.4 1.5 -1.2
v 0.4 1.5 -1.2
v -0.4 1.5 -1.5
v 0.4 1.5 -1.5
v -0.3 1.5 -1.9
v -0.2 1.5 -1.9
v 0.2 1.5 -1.9
v 0.3 1.5 -1.9
v -0.3 1.5 -2
v -0.2 1.5 -2
v 0.2 1.5 -2
v 0.3 1.5 -2

# faces
f 4/3/1 2/3/1 1/3/1
f 5/3/1 2/3/1 4/3/1
f 6/3/1 4/3/1 1/3/1
f 6/6/1 5/6/1 4/6/1
f 7/6/1 5/6/1 6/6/1
f 8/3/1 7/3/1 6/3/1
f 9/3/1 7/3/1 8/3/1
f 10/3/1 6/3/1 1/3/1
f 10/3/1 8/3/1 6/3/1
f 11/3/1 8/3/1 10/3/1
f 12/3/1 7/3/1 9/3/1
f 12/6/1 5/6/1 7/6/1
f 13/3/1 2/3/1 5/3/1
f 13/6/1 5/6/1 12/6/1
f 14/5/1 3/5/1 2/5/1
f 14/3/1 2/3/1 13/3/1
f 15/5/1 3/5/1 14/5/1
f 16/3/1 8/3/1 11/3/1
f 16/6/1 9/6/1 8/6/1
f 17/3/1 13/3/1 12/3/1
f 17/6/1 9/6/1 16/6/1
f 17/3/1 12/3/1 9/3/1
f 17/3/1 14/3/1 13/3/1
f 18/3/1 14/3/1 17/3/1
f 19/3/1 14/3/1 18/3/1
f 20/3/1 14/3/1 19/3/1
f 21/3/1 16/3/1 11/3/1
f 21/3/1 17/3/1 16/3/1
f 22/3/1 17/3/1 21/3/1
f 23/6/1 18/6/1 17/6/1
f 23/3/1 17/3/1 22/3/1
f 24/3/1 19/3/1 18/3/1
f 24/6/1 18/6/1 23/6/1
f 25/3/1 19/3/1 24/3/1
f 26/3/1 19/3/1 25/3/1
f 27/3/1 23/3/1 22/3/1
f 27/3/1 25/3/1 24/3/1
f 27/3/1 24/3/1 23/3/1
f 28/3/1 25/3/1 27/3/1
f 31/5/1 30/5/1 29/5/1
f 32/5/1 30/5/1 31/5/1
f 35/3/1 34/3/1 33/3/1
f 36/3/1 34/3/1 35/3/1
f 39/5/1 38/5/1 37/5/1
f 40/5/1 38/5/1 39/5/1
f 41/7/1 40/7/1 39/7/1
f 42/7/1 40/7/1 41/7/1
f 45/5/1 44/5/1 43/5/1
f 46/5/1 44/5/1 45/5/1
f 47/5/1 44/5/1 46/5/1
f 48/5/1 46/5/1 45/5/1
f 49/5/1 46/5/1 48/5/1
f 50/7/1 49/7/1 48/7/1
f 51/7/1 49/7/1 50/7/1
f 52/5/2 53/5/2 54/5/2
f 54/5/2 53/5/2 55/5/2
f 55/5/2 53/5/2 56/5/2
f 54/5/2 55/5/2 57/5/2
f 57/5/2 55/5/2 58/5/2
f 57/7/2 58/7/2 59/7/2
f 59/7/2 58/7/2 60/7/2
f 61/5/2 62/5/2 63/5/2
f 63/5/2 62/5/2 64/5/2
f 63/7/2 64/7/2 65/7/2
f 65/7/2 64/7/2 66/7/2
f 67/5/2 68/5/2 69/5/2
f 69/5/2 68/5/2 70/5/2
f 71/3/2 72/3/2 73/3/2
f 73/3/2 72/3/2 74/3/2
f 75/3/2 76/3/2 78/3/2
f 78/3/2 76/3/2 79/3/2
f 75/3/2 78/3/2 80/3/2
f 78/6/2 79/6/2 80/6/2
f 80/6/2 79/6/2 81/6/2
f 80/3/2 81/3/2 82/3/2
f 82/3/2 81/3/2 83/3/2
f 75/3/2 80/3/2 84/3/2
f 80/3/2 82/3/2 84/3/2
f 84/3/2 82/3/2 85/3/2
f 83/3/2 81/3/2 86/3/2
f 81/6/2 79/6/2 86/6/2
f 79/3/2 76/3/2 87/3/2
f 86/6/2 79/6/2 87/6/2
f 76/5/2 77/5/2 88/5/2
f 87/3/2 76/3/2 88/3/2
f 88/5/2 77/5/2 89/5/2
f 85/3/2 82/3/2 90/3/2
f 82/6/2 83/6/2 90/6/2
f 86/3/2 87/3/2 91/3/2
f 90/6/2 83/6/2 91/6/2
f 83/3/2 86/3/2 91/3/2
f 87/3/2 88/3/2 91/3/2
f 91/3/2 88/3/2 92/3/2
f 92/3/2 88/3/2 93/3/2
f 93/3/2 88/3/2 94/3/2
f 85/3/2 90/3/2 95/3/2
f 90/3/2 91/3/2 95/3/2
f 95/3/2 91/3/2 96/3/2
f 91/6/2 92/6/2 97/6/2
f 96/3/2 91/3/2 97/3/2
f 92/3/2 93/3/2 98/3/2
f 97/6/2 92/6/2 98/6/2
f 98/3/2 93/3/2 99/3/2
f 99/3/2 93/3/2 100/3/2
f 96/3/2 97/3/2 101/3/2
f 98/3/2 99/3/2 101/3/2
f 97/3/2 98/3/2 101/3/2
f 101/3/2 99/3/2 102/3/2
f 105/3/3 104/3/3 103/3/3
f 106/3/3 104/3/3 105/3/3
f 107/5/3 106/5/3 105/5/3
f 108/5/3 106/5/3 107/5/3
f 109/5/3 107/5/3 105/5/3
f 109/1/3 108/1/3 107/1/3
f 110/1/3 108/1/3 109/1/3
f 111/5/3 109/5/3 105/5/3
f 111/5/3 110/5/3 109/5/3
f 112/5/3 110/5/3 111/5/3
f 113/3/3 112/3/3 111/3/3
f 114/3/3 112/3/3 113/3/3
f 117/3/3 116/3/3 115/3/3
f 118/3/3 116/3/3 117/3/3
f 119/5/3 118/5/3 117/5/3
f 120/5/3 118/5/3 119/5/3
f 121/5/3 119/5/3 117/5/3
f 122/4/3 120/4/3 119/4/3
f 122/5/3 119/5/3 121/5/3
f 123/1/3 122/1/3 121/1/3
f 124/4/3 120/4/3 122/4/3
f 124/1/3 122/1/3 123/1/3
f 125/4/3 120/4/3 124/4/3
f 126/5/3 124/5/3 123/5/3
f 126/5/3 125/5/3 124/5/3
f 127/5/3 125/5/3 126/5/3
f 128/3/3 127/3/3 126/3/3
f 129/3/3 127/3/3 128/3/3
f 132/3/3 131/3/3 130/3/3
f 133/3/3 131/3/3 132/3/3
f 134/5/3 133/5/3 132/5/3
f 135/5/3 133/5/3 134/5/3
f 136/5/3 133/5/3 135/5/3
f 137/5/3 133/5/3 136/5/3
f 138/3/3 137/3/3 136/3/3
f 139/3/3 137/3/3 138/3/3
f 142/3/3 141/3/3 140/3/3
f 143/3/3 141/3/3 142/3/3
f 147/5/3 145/5/3 144/5/3
f 148/7/3 146/7/3 145/7/3
f 148/5/3 145/5/3 147/5/3
f 149/7/3 146/7/3 148/7/3
f 153/5/3 151/5/3 150/5/3
f 154/7/3 152/7/3 151/7/3
f 154/5/3 151/5/3 153/5/3
f 155/7/3 152/7/3 154/7/3
f 156/3/4 157/3/4 158/3/4
f 158/3/4 157/3/4 159/3/4
f 160/3/4 161/3/4 162/3/4
f 162/3/4 161/3/4 163/3/4
f 164/3/4 165/3/4 166/3/4
f 166/3/4 165/3/4 167/3/4
f 168/3/4 169/3/4 170/3/4
f 170/3/4 169/3/4 171/3/4
f 172/3/4 173/3/4 174/3/4
f 174/3/4 173/3/4 175/3/4
f 176/3/4 177/3/4 178/3/4
f 178/3/4 177/3/4 179/3/4
f 180/5/4 181/5/4 183/5/4
f 181/7/4 182/7/4 184/7/4
f 183/5/4 181/5/4 184/5/4
f 184/7/4 182/7/4 185/7/4
f 186/5/4 187/5/4 189/5/4
f 187/7/4 188/7/4 190/7/4
f 189/5/4 187/5/4 190/5/4
f 190/7/4 188/7/4 191/7/4
f 192/5/4 193/5/4 194/5/4
f 194/5/4 193/5/4 195/5/4
f 196/5/4 197/5/4 198/5/4
f 198/5/4 197/5/4 199/5/4
f 200/5/4 201/5/4 202/5/4
f 202/5/4 201/5/4 203/5/4
f 200/5/4 202/5/4 204/5/4
f 202/2/4 203/2/4 204/2/4
f 203/5/4 201/5/4 205/5/4
f 204/2/4 203/2/4 205/2/4
f 200/5/4 204/5/4 206/5/4
f 204/5/4 205/5/4 206/5/4
f 205/5/4 201/5/4 207/5/4
f 206/5/4 205/5/4 207/5/4
f 200/5/4 206/5/4 208/5/4
f 206/2/4 207/2/4 208/2/4
f 207/5/4 201/5/4 209/5/4
f 208/2/4 207/2/4 209/2/4
f 200/5/4 208/5/4 210/5/4
f 208/5/4 209/5/4 210/5/4
f 209/5/4 201/5/4 211/5/4
f 210/5/4 209/5/4 211/5/4
f 200/5/4 210/5/4 212/5/4
f 210/2/4 211/2/4 212/2/4
f 211/5/4 201/5/4 213/5/4
f 212/2/4 211/2/4 213/2/4
f 200/5/4 212/5/4 214/5/4
f 212/5/4 213/5/4 214/5/4
f 213/5/4 201/5/4 215/5/4
f 214/5/4 213/5/4 215/5/4
f 200/5/4 214/5/4 216/5/4
f 214/2/4 215/2/4 216/2/4
f 215/5/4 201/5/4 217/5/4
f 216/2/4 215/2/4 217/2/4
f 200/5/4 216/5/4 218/5/4
f 216/5/4 217/5/4 218/5/4
f 217/5/4 201/5/4 219/5/4
f 218/5/4 217/5/4 219/5/4
f 224/3/5 221/3/5 220/3/5
f 224/5/5 222/5/5 221/5/5
f 225/3/5 223/3/5 222/3/5
f 225/5/5 222/5/5 224/5/5
f 226/3/5 224/3/5 220/3/5
f 226/3/5 225/3/5 224/3/5
f 227/3/5 223/3/5 225/3/5
f 227/3/5 225/3/5 226/3/5
f 228/5/5 227/5/5 226/5/5
f 229/5/5 227/5/5 228/5/5
f 230/3/6 231/3/6 236/3/6
f 231/5/6 232/5/6 237/5/6
f 236/3/6 231/3/6 237/3/6
f 232/1/6 233/1/6 238/1/6
f 237/5/6 232/5/6 238/5/6
f 233/5/6 234/5/6 239/5/6
f 238/1/6 233/1/6 239/1/6
f 234/3/6 235/3/6 240/3/6
f 239/5/6 234/5/6 240/5/6
f 240/3/6 235/3/6 241/3/6
f 242/5/6 243/5/6 248/5/6
f 244/5/6 245/5/6 249/5/6
f 249/5/6 245/5/6 250/5/6
f 246/5/6 247/5/6 251/5/6
f 249/5/6 250/5/6 252/5/6
f 250/5/6 251/5/6 252/5/6
f 242/5/6 248/5/6 252/5/6
f 248/5/6 249/5/6 252/5/6
f 251/5/6 247/5/6 253/5/6
f 252/5/6 251/5/6 253/5/6
f 254/3/6 255/3/6 256/3/6
f 256/3/6 255/3/6 257/3/6
f 257/3/6 255/3/6 258/3/6
f 258/3/6 255/3/6 259/3/6
f 259/3/6 255/3/6 260/3/6
f 260/3/6 255/3/6 261/3/6
f 261/3/6 255/3/6 262/3/6
f 262/3/6 255/3/6 263/3/6
f 257/5/6 258/5/6 264/5/6
f 261/5/6 262/5/6 267/5/6
f 264/5/6 265/5/6 268/5/6
f 257/5/6 264/5/6 268/5/6
f 268/5/6 265/5/6 269/5/6
f 266/5/6 267/5/6 270/5/6
f 267/5/6 262/5/6 271/5/6
f 270/5/6 267/5/6 271/5/6
f 272/3/6 273/3/6 278/3/6
f 273/5/6 274/5/6 279/5/6
f 278/3/6 273/3/6 279/3/6
f 274/4/6 275/4/6 280/4/6
f 279/5/6 274/5/6 280/5/6
f 275/5/6 276/5/6 281/5/6
f 280/4/6 275/4/6 281/4/6
f 276/3/6 277/3/6 282/3/6
f 281/5/6 276/5/6 282/5/6
f 282/3/6 277/3/6 283/3/6
f 284/3/6 285/3/6 286/3/6
f 286/3/6 285/3/6 287/3/6
f 288/3/6 289/3/6 292/3/6
f 289/5/6 290/5/6 292/5/6
f 290/3/6 291/3/6 293/3/6
f 292/5/6 290/5/6 293/5/6
f 288/3/6 292/3/6 294/3/6
f 293/3/6 291/3/6 295/3/6
f 288/3/6 294/3/6 296/3/6
f 294/3/6 295/3/6 296/3/6
f 295/3/6 291/3/6 297/3/6
f 296/3/6 295/3/6 297/3/6
f 298/3/6 299/3/6 300/3/6
f 300/3/6 299/3/6 301/3/6
f 302/7/6 303/7/6 306/7/6
f 306/7/6 303/7/6 307/7/6
f 304/7/6 305/7/6 308/7/6
f 308/7/6 305/7/6 309/7/6
