# MagicaVoxel @ Ephtracy

# group
o 

# material
mtllib Robot.vox-35.mtl
usemtl palette

# normals
vn -1 0 0
vn 1 0 0
vn 0 0 1
vn 0 0 -1
vn 0 -1 0
vn 0 1 0

# texcoords
vt 0.912109 0.5
vt 0.943359 0.5
vt 0.970703 0.5
vt 0.974609 0.5
vt 0.978516 0.5

# verts
v 5.2 0.2 -1.7
v 5.2 0.2 -1.8
v 5.2 0.3 -1.2
v 5.2 0.3 -1.7
v 5.2 0.4 -0.9
v 5.2 0.4 -1.2
v 5.2 0.5 -0.9
v 5.2 0.5 -1.8
v 5.3 0.2 -1.1
v 5.3 0.2 -1.7
v 5.3 0.3 -0.9
v 5.3 0.3 -1.1
v 5.3 0.3 -1.2
v 5.3 0.3 -1.7
v 5.3 0.4 -0.6
v 5.3 0.4 -0.9
v 5.3 0.4 -1.2
v 5.3 0.5 -0.6
v 5.3 0.5 -0.9
v 5.4 0.1 -0.6
v 5.4 0.1 -1.6
v 5.4 0.2 -0.5
v 5.4 0.2 -0.6
v 5.4 0.2 -1.1
v 5.4 0.2 -1.6
v 5.4 0.3 -0.9
v 5.4 0.3 -1.1
v 5.4 0.4 -0.6
v 5.4 0.4 -0.9
v 5.4 0.4 -1.5
v 5.4 0.4 -1.7
v 5.4 0.5 -0.6
v 5.4 0.5 -1.5
v 5.4 0.6 -0.5
v 5.4 0.6 -0.6
v 5.4 0.6 -1.6
v 5.4 0.6 -1.7
v 5.4 0.7 -0.6
v 5.4 0.7 -1.6
v 5.5 0.1 -0.5
v 5.5 0.1 -0.6
v 5.5 0.1 -1.6
v 5.5 0.1 -1.7
v 5.5 0.2 -0.5
v 5.5 0.2 -0.6
v 5.5 0.2 -1.6
v 5.5 0.2 -1.7
v 5.5 0.6 -0.5
v 5.5 0.6 -0.6
v 5.5 0.6 -1.6
v 5.5 0.6 -1.7
v 5.5 0.7 -0.5
v 5.5 0.7 -0.6
v 5.5 0.7 -1.6
v 5.5 0.7 -1.7
v 6 0.6 -0.6
v 6 0.6 -0.7
v 6 0.6 -1.5
v 6 0.6 -1.6
v 6 0.7 -0.6
v 6 0.7 -0.7
v 6 0.7 -1.5
v 6 0.7 -1.6
v 6.1 0.6 -0.7
v 6.1 0.6 -1.5
v 6.1 0.7 -0.7
v 6.1 0.7 -1.5
v 6.2 0.2 -1.7
v 6.2 0.2 -1.8
v 6.2 0.4 -1.7
v 6.2 0.4 -1.8
v 6.3 0.4 -1.5
v 6.3 0.4 -1.8
v 6.3 0.5 -1.5
v 6.3 0.5 -1.8
v 5.3 0.4 -1.5
v 5.3 0.4 -1.8
v 5.3 0.5 -1.5
v 5.3 0.5 -1.8
v 5.4 0.2 -1.7
v 5.4 0.2 -1.8
v 5.4 0.4 -1.7
v 5.4 0.4 -1.8
v 5.5 0.6 -0.7
v 5.5 0.6 -1
v 5.5 0.6 -1.1
v 5.5 0.6 -1.4
v 5.5 0.6 -1.5
v 5.5 0.7 -0.7
v 5.5 0.7 -1.5
v 5.6 0.6 -0.6
v 5.6 0.6 -0.7
v 5.6 0.6 -1.5
v 5.6 0.6 -1.6
v 5.6 0.7 -0.6
v 5.6 0.7 -0.7
v 5.6 0.7 -1.5
v 5.6 0.7 -1.6
v 6.1 0.1 -0.5
v 6.1 0.1 -0.6
v 6.1 0.1 -1.6
v 6.1 0.1 -1.7
v 6.1 0.2 -0.5
v 6.1 0.2 -0.6
v 6.1 0.2 -1.6
v 6.1 0.2 -1.7
v 6.1 0.6 -0.5
v 6.1 0.6 -0.6
v 6.1 0.6 -1.6
v 6.1 0.6 -1.7
v 6.1 0.7 -0.5
v 6.1 0.7 -0.6
v 6.1 0.7 -1.6
v 6.1 0.7 -1.7
v 6.2 0.1 -0.6
v 6.2 0.1 -1.6
v 6.2 0.2 -0.5
v 6.2 0.2 -0.6
v 6.2 0.2 -1.1
v 6.2 0.2 -1.6
v 6.2 0.3 -0.9
v 6.2 0.3 -1.1
v 6.2 0.4 -0.6
v 6.2 0.4 -0.9
v 6.2 0.4 -1.5
v 6.2 0.4 -1.7
v 6.2 0.5 -0.6
v 6.2 0.5 -1.5
v 6.2 0.6 -0.5
v 6.2 0.6 -0.6
v 6.2 0.6 -1.6
v 6.2 0.6 -1.7
v 6.2 0.7 -0.6
v 6.2 0.7 -1.6
v 6.3 0.2 -1.1
v 6.3 0.2 -1.7
v 6.3 0.3 -0.9
v 6.3 0.3 -1.1
v 6.3 0.3 -1.2
v 6.3 0.3 -1.7
v 6.3 0.4 -0.6
v 6.3 0.4 -0.9
v 6.3 0.4 -1.2
v 6.3 0.5 -0.6
v 6.3 0.5 -0.9
v 6.4 0.2 -1.7
v 6.4 0.2 -1.8
v 6.4 0.3 -1.2
v 6.4 0.3 -1.7
v 6.4 0.4 -0.9
v 6.4 0.4 -1.2
v 6.4 0.5 -0.9
v 6.4 0.5 -1.8
v 5.4 0.2 -0.5
v 5.4 0.6 -0.5
v 5.5 0.1 -0.5
v 5.5 0.2 -0.5
v 5.5 0.6 -0.5
v 5.5 0.7 -0.5
v 6.1 0.1 -0.5
v 6.1 0.2 -0.5
v 6.1 0.6 -0.5
v 6.1 0.7 -0.5
v 6.2 0.2 -0.5
v 6.2 0.6 -0.5
v 5.3 0.4 -0.6
v 5.3 0.5 -0.6
v 5.4 0.1 -0.6
v 5.4 0.2 -0.6
v 5.4 0.4 -0.6
v 5.4 0.5 -0.6
v 5.4 0.6 -0.6
v 5.4 0.7 -0.6
v 5.5 0.1 -0.6
v 5.5 0.2 -0.6
v 5.5 0.6 -0.6
v 5.5 0.7 -0.6
v 6.1 0.1 -0.6
v 6.1 0.2 -0.6
v 6.1 0.6 -0.6
v 6.1 0.7 -0.6
v 6.2 0.1 -0.6
v 6.2 0.2 -0.6
v 6.2 0.4 -0.6
v 6.2 0.5 -0.6
v 6.2 0.6 -0.6
v 6.2 0.7 -0.6
v 6.3 0.4 -0.6
v 6.3 0.5 -0.6
v 5.2 0.4 -0.9
v 5.2 0.5 -0.9
v 5.3 0.3 -0.9
v 5.3 0.4 -0.9
v 5.3 0.5 -0.9
v 5.4 0.3 -0.9
v 5.4 0.4 -0.9
v 6.2 0.3 -0.9
v 6.2 0.4 -0.9
v 6.3 0.3 -0.9
v 6.3 0.4 -0.9
v 6.3 0.5 -0.9
v 6.4 0.4 -0.9
v 6.4 0.5 -0.9
v 5.3 0.2 -1.1
v 5.3 0.3 -1.1
v 5.4 0.2 -1.1
v 5.4 0.3 -1.1
v 6.2 0.2 -1.1
v 6.2 0.3 -1.1
v 6.3 0.2 -1.1
v 6.3 0.3 -1.1
v 5.2 0.3 -1.2
v 5.2 0.4 -1.2
v 5.3 0.3 -1.2
v 5.3 0.4 -1.2
v 6.3 0.3 -1.2
v 6.3 0.4 -1.2
v 6.4 0.3 -1.2
v 6.4 0.4 -1.2
v 5.5 0.6 -1.5
v 5.5 0.7 -1.5
v 5.6 0.6 -1.5
v 5.6 0.7 -1.5
v 6 0.6 -1.5
v 6 0.7 -1.5
v 6.1 0.6 -1.5
v 6.1 0.7 -1.5
v 5.6 0.6 -1.6
v 5.6 0.7 -1.6
v 6 0.6 -1.6
v 6 0.7 -1.6
v 5.2 0.2 -1.7
v 5.2 0.3 -1.7
v 5.3 0.2 -1.7
v 5.3 0.3 -1.7
v 6.3 0.2 -1.7
v 6.3 0.3 -1.7
v 6.4 0.2 -1.7
v 6.4 0.3 -1.7
v 5.6 0.6 -0.6
v 5.6 0.7 -0.6
v 6 0.6 -0.6
v 6 0.7 -0.6
v 5.5 0.6 -0.7
v 5.5 0.7 -0.7
v 5.6 0.6 -0.7
v 5.6 0.7 -0.7
v 6 0.6 -0.7
v 6 0.7 -0.7
v 6.1 0.6 -0.7
v 6.1 0.7 -0.7
v 5.3 0.4 -1.5
v 5.3 0.5 -1.5
v 5.4 0.4 -1.5
v 5.4 0.5 -1.5
v 6.2 0.4 -1.5
v 6.2 0.5 -1.5
v 6.3 0.4 -1.5
v 6.3 0.5 -1.5
v 5.4 0.1 -1.6
v 5.4 0.2 -1.6
v 5.4 0.6 -1.6
v 5.4 0.7 -1.6
v 5.5 0.1 -1.6
v 5.5 0.2 -1.6
v 5.5 0.6 -1.6
v 5.5 0.7 -1.6
v 6.1 0.1 -1.6
v 6.1 0.2 -1.6
v 6.1 0.6 -1.6
v 6.1 0.7 -1.6
v 6.2 0.1 -1.6
v 6.2 0.2 -1.6
v 6.2 0.6 -1.6
v 6.2 0.7 -1.6
v 5.4 0.2 -1.7
v 5.4 0.4 -1.7
v 5.4 0.6 -1.7
v 5.5 0.1 -1.7
v 5.5 0.2 -1.7
v 5.5 0.6 -1.7
v 5.5 0.7 -1.7
v 6.1 0.1 -1.7
v 6.1 0.2 -1.7
v 6.1 0.6 -1.7
v 6.1 0.7 -1.7
v 6.2 0.2 -1.7
v 6.2 0.4 -1.7
v 6.2 0.6 -1.7
v 5.2 0.2 -1.8
v 5.2 0.5 -1.8
v 5.3 0.4 -1.8
v 5.3 0.5 -1.8
v 5.4 0.2 -1.8
v 5.4 0.4 -1.8
v 6.2 0.2 -1.8
v 6.2 0.4 -1.8
v 6.3 0.4 -1.8
v 6.3 0.5 -1.8
v 6.4 0.2 -1.8
v 6.4 0.5 -1.8
v 5.5 0.1 -0.5
v 6.1 0.1 -0.5
v 5.4 0.1 -0.6
v 5.5 0.1 -0.6
v 6.1 0.1 -0.6
v 6.2 0.1 -0.6
v 5.4 0.1 -1.6
v 5.5 0.1 -1.6
v 6.1 0.1 -1.6
v 6.2 0.1 -1.6
v 5.5 0.1 -1.7
v 6.1 0.1 -1.7
v 5.4 0.2 -0.5
v 5.5 0.2 -0.5
v 6.1 0.2 -0.5
v 6.2 0.2 -0.5
v 5.4 0.2 -0.6
v 5.5 0.2 -0.6
v 6.1 0.2 -0.6
v 6.2 0.2 -0.6
v 5.3 0.2 -1.1
v 5.4 0.2 -1.1
v 6.2 0.2 -1.1
v 6.3 0.2 -1.1
v 5.4 0.2 -1.6
v 5.5 0.2 -1.6
v 6.1 0.2 -1.6
v 6.2 0.2 -1.6
v 5.2 0.2 -1.7
v 5.3 0.2 -1.7
v 5.4 0.2 -1.7
v 5.5 0.2 -1.7
v 6.1 0.2 -1.7
v 6.2 0.2 -1.7
v 6.3 0.2 -1.7
v 6.4 0.2 -1.7
v 5.2 0.2 -1.8
v 5.4 0.2 -1.8
v 6.2 0.2 -1.8
v 6.4 0.2 -1.8
v 5.3 0.3 -0.9
v 5.4 0.3 -0.9
v 6.2 0.3 -0.9
v 6.3 0.3 -0.9
v 5.3 0.3 -1.1
v 5.4 0.3 -1.1
v 6.2 0.3 -1.1
v 6.3 0.3 -1.1
v 5.2 0.3 -1.2
v 5.3 0.3 -1.2
v 6.3 0.3 -1.2
v 6.4 0.3 -1.2
v 5.2 0.3 -1.7
v 5.3 0.3 -1.7
v 6.3 0.3 -1.7
v 6.4 0.3 -1.7
v 5.3 0.4 -0.6
v 5.4 0.4 -0.6
v 6.2 0.4 -0.6
v 6.3 0.4 -0.6
v 5.2 0.4 -0.9
v 5.3 0.4 -0.9
v 5.4 0.4 -0.9
v 6.2 0.4 -0.9
v 6.3 0.4 -0.9
v 6.4 0.4 -0.9
v 5.2 0.4 -1.2
v 5.3 0.4 -1.2
v 6.3 0.4 -1.2
v 6.4 0.4 -1.2
v 5.3 0.4 -1.5
v 5.4 0.4 -1.5
v 6.2 0.4 -1.5
v 6.3 0.4 -1.5
v 5.4 0.4 -1.7
v 6.2 0.4 -1.7
v 5.3 0.4 -1.8
v 5.4 0.4 -1.8
v 6.2 0.4 -1.8
v 6.3 0.4 -1.8
v 5.3 0.5 -0.6
v 5.4 0.5 -0.6
v 6.2 0.5 -0.6
v 6.3 0.5 -0.6
v 5.2 0.5 -0.9
v 5.3 0.5 -0.9
v 6.3 0.5 -0.9
v 6.4 0.5 -0.9
v 5.3 0.5 -1.5
v 5.4 0.5 -1.5
v 6.2 0.5 -1.5
v 6.3 0.5 -1.5
v 5.2 0.5 -1.8
v 5.3 0.5 -1.8
v 6.3 0.5 -1.8
v 6.4 0.5 -1.8
v 5.4 0.6 -0.5
v 5.5 0.6 -0.5
v 6.1 0.6 -0.5
v 6.2 0.6 -0.5
v 5.4 0.6 -0.6
v 5.5 0.6 -0.6
v 5.6 0.6 -0.6
v 6 0.6 -0.6
v 6.1 0.6 -0.6
v 6.2 0.6 -0.6
v 5.5 0.6 -0.7
v 5.6 0.6 -0.7
v 5.8 0.6 -0.7
v 6 0.6 -0.7
v 6.1 0.6 -0.7
v 5.9 0.6 -0.8
v 6 0.6 -0.8
v 5.6 0.6 -0.9
v 5.8 0.6 -0.9
v 5.9 0.6 -0.9
v 6 0.6 -0.9
v 5.5 0.6 -1
v 5.6 0.6 -1
v 5.7 0.6 -1
v 5.8 0.6 -1
v 5.9 0.6 -1
v 5.5 0.6 -1.1
v 5.6 0.6 -1.1
v 5.7 0.6 -1.1
v 5.8 0.6 -1.1
v 5.9 0.6 -1.1
v 6 0.6 -1.1
v 5.7 0.6 -1.2
v 5.8 0.6 -1.2
v 5.8 0.6 -1.3
v 5.9 0.6 -1.3
v 5.5 0.6 -1.4
v 5.6 0.6 -1.4
v 5.8 0.6 -1.4
v 5.9 0.6 -1.4
v 6 0.6 -1.4
v 5.5 0.6 -1.5
v 5.6 0.6 -1.5
v 5.9 0.6 -1.5
v 6 0.6 -1.5
v 6.1 0.6 -1.5
v 5.4 0.6 -1.6
v 5.5 0.6 -1.6
v 5.6 0.6 -1.6
v 6 0.6 -1.6
v 6.1 0.6 -1.6
v 6.2 0.6 -1.6
v 5.4 0.6 -1.7
v 5.5 0.6 -1.7
v 6.1 0.6 -1.7
v 6.2 0.6 -1.7
v 5.5 0.7 -0.5
v 6.1 0.7 -0.5
v 5.4 0.7 -0.6
v 5.5 0.7 -0.6
v 5.6 0.7 -0.6
v 6 0.7 -0.6
v 6.1 0.7 -0.6
v 6.2 0.7 -0.6
v 5.5 0.7 -0.7
v 5.6 0.7 -0.7
v 6 0.7 -0.7
v 6.1 0.7 -0.7
v 5.5 0.7 -1.5
v 5.6 0.7 -1.5
v 6 0.7 -1.5
v 6.1 0.7 -1.5
v 5.4 0.7 -1.6
v 5.5 0.7 -1.6
v 5.6 0.7 -1.6
v 6 0.7 -1.6
v 6.1 0.7 -1.6
v 6.2 0.7 -1.6
v 5.5 0.7 -1.7
v 6.1 0.7 -1.7

# faces
f 4/5/1 2/5/1 1/5/1
f 6/5/1 4/5/1 3/5/1
f 7/5/1 6/5/1 5/5/1
f 8/5/1 2/5/1 4/5/1
f 8/5/1 6/5/1 7/5/1
f 8/5/1 4/5/1 6/5/1
f 12/5/1 10/5/1 9/5/1
f 13/5/1 10/5/1 12/5/1
f 14/5/1 10/5/1 13/5/1
f 16/5/1 12/5/1 11/5/1
f 16/5/1 13/5/1 12/5/1
f 17/5/1 13/5/1 16/5/1
f 18/5/1 16/5/1 15/5/1
f 19/5/1 16/5/1 18/5/1
f 23/3/1 21/3/1 20/3/1
f 24/3/1 21/3/1 23/3/1
f 25/3/1 21/3/1 24/3/1
f 26/3/1 23/3/1 22/3/1
f 26/3/1 24/3/1 23/3/1
f 27/3/1 24/3/1 26/3/1
f 28/3/1 26/3/1 22/3/1
f 29/3/1 26/3/1 28/3/1
f 32/3/1 28/3/1 22/3/1
f 33/3/1 31/3/1 30/3/1
f 34/3/1 32/3/1 22/3/1
f 34/3/1 33/3/1 32/3/1
f 35/3/1 33/3/1 34/3/1
f 36/3/1 31/3/1 33/3/1
f 36/3/1 33/3/1 35/3/1
f 37/3/1 31/3/1 36/3/1
f 38/3/1 36/3/1 35/3/1
f 39/3/1 36/3/1 38/3/1
f 44/3/1 41/3/1 40/3/1
f 45/3/1 41/3/1 44/3/1
f 46/3/1 43/3/1 42/3/1
f 47/3/1 43/3/1 46/3/1
f 52/3/1 49/3/1 48/3/1
f 53/3/1 49/3/1 52/3/1
f 54/3/1 51/3/1 50/3/1
f 55/3/1 51/3/1 54/3/1
f 60/3/1 57/3/1 56/3/1
f 61/3/1 57/3/1 60/3/1
f 62/3/1 59/3/1 58/3/1
f 63/3/1 59/3/1 62/3/1
f 66/3/1 65/3/1 64/3/1
f 67/3/1 65/3/1 66/3/1
f 70/5/1 69/5/1 68/5/1
f 71/5/1 69/5/1 70/5/1
f 74/5/1 73/5/1 72/5/1
f 75/5/1 73/5/1 74/5/1
f 76/5/2 77/5/2 78/5/2
f 78/5/2 77/5/2 79/5/2
f 80/5/2 81/5/2 82/5/2
f 82/5/2 81/5/2 83/5/2
f 84/3/2 85/3/2 89/3/2
f 87/3/2 88/3/2 89/3/2
f 86/3/2 87/3/2 89/3/2
f 85/3/2 86/3/2 89/3/2
f 89/3/2 88/3/2 90/3/2
f 91/3/2 92/3/2 95/3/2
f 95/3/2 92/3/2 96/3/2
f 93/3/2 94/3/2 97/3/2
f 97/3/2 94/3/2 98/3/2
f 99/3/2 100/3/2 103/3/2
f 103/3/2 100/3/2 104/3/2
f 101/3/2 102/3/2 105/3/2
f 105/3/2 102/3/2 106/3/2
f 107/3/2 108/3/2 111/3/2
f 111/3/2 108/3/2 112/3/2
f 109/3/2 110/3/2 113/3/2
f 113/3/2 110/3/2 114/3/2
f 115/3/2 116/3/2 118/3/2
f 118/3/2 116/3/2 119/3/2
f 119/3/2 116/3/2 120/3/2
f 117/3/2 118/3/2 121/3/2
f 118/3/2 119/3/2 121/3/2
f 121/3/2 119/3/2 122/3/2
f 117/3/2 121/3/2 123/3/2
f 123/3/2 121/3/2 124/3/2
f 117/3/2 123/3/2 127/3/2
f 125/3/2 126/3/2 128/3/2
f 117/3/2 127/3/2 129/3/2
f 127/3/2 128/3/2 129/3/2
f 129/3/2 128/3/2 130/3/2
f 128/3/2 126/3/2 131/3/2
f 130/3/2 128/3/2 131/3/2
f 131/3/2 126/3/2 132/3/2
f 130/3/2 131/3/2 133/3/2
f 133/3/2 131/3/2 134/3/2
f 135/5/2 136/5/2 138/5/2
f 138/5/2 136/5/2 139/5/2
f 139/5/2 136/5/2 140/5/2
f 137/5/2 138/5/2 142/5/2
f 138/5/2 139/5/2 142/5/2
f 142/5/2 139/5/2 143/5/2
f 141/5/2 142/5/2 144/5/2
f 144/5/2 142/5/2 145/5/2
f 146/5/2 147/5/2 149/5/2
f 148/5/2 149/5/2 151/5/2
f 150/5/2 151/5/2 152/5/2
f 149/5/2 147/5/2 153/5/2
f 152/5/2 151/5/2 153/5/2
f 151/5/2 149/5/2 153/5/2
f 157/3/3 155/3/3 154/3/3
f 158/3/3 155/3/3 157/3/3
f 160/3/3 157/3/3 156/3/3
f 160/3/3 159/3/3 158/3/3
f 160/3/3 158/3/3 157/3/3
f 161/3/3 159/3/3 160/3/3
f 162/3/3 159/3/3 161/3/3
f 163/3/3 159/3/3 162/3/3
f 164/3/3 162/3/3 161/3/3
f 165/3/3 162/3/3 164/3/3
f 170/5/3 167/5/3 166/5/3
f 171/5/3 167/5/3 170/5/3
f 174/3/3 169/3/3 168/3/3
f 175/3/3 169/3/3 174/3/3
f 176/3/3 173/3/3 172/3/3
f 177/3/3 173/3/3 176/3/3
f 182/3/3 179/3/3 178/3/3
f 183/3/3 179/3/3 182/3/3
f 186/3/3 181/3/3 180/3/3
f 187/3/3 181/3/3 186/3/3
f 188/5/3 185/5/3 184/5/3
f 189/5/3 185/5/3 188/5/3
f 193/5/3 191/5/3 190/5/3
f 194/5/3 191/5/3 193/5/3
f 195/5/3 193/5/3 192/5/3
f 196/5/3 193/5/3 195/5/3
f 199/5/3 198/5/3 197/5/3
f 200/5/3 198/5/3 199/5/3
f 202/5/3 201/5/3 200/5/3
f 203/5/3 201/5/3 202/5/3
f 206/5/3 205/5/3 204/5/3
f 207/5/3 205/5/3 206/5/3
f 210/5/3 209/5/3 208/5/3
f 211/5/3 209/5/3 210/5/3
f 214/5/3 213/5/3 212/5/3
f 215/5/3 213/5/3 214/5/3
f 218/5/3 217/5/3 216/5/3
f 219/5/3 217/5/3 218/5/3
f 222/3/3 221/3/3 220/3/3
f 223/3/3 221/3/3 222/3/3
f 226/3/3 225/3/3 224/3/3
f 227/3/3 225/3/3 226/3/3
f 230/3/3 229/3/3 228/3/3
f 231/3/3 229/3/3 230/3/3
f 234/5/3 233/5/3 232/5/3
f 235/5/3 233/5/3 234/5/3
f 238/5/3 237/5/3 236/5/3
f 239/5/3 237/5/3 238/5/3
f 240/3/4 241/3/4 242/3/4
f 242/3/4 241/3/4 243/3/4
f 244/3/4 245/3/4 246/3/4
f 246/3/4 245/3/4 247/3/4
f 248/3/4 249/3/4 250/3/4
f 250/3/4 249/3/4 251/3/4
f 252/5/4 253/5/4 254/5/4
f 254/5/4 253/5/4 255/5/4
f 256/5/4 257/5/4 258/5/4
f 258/5/4 257/5/4 259/5/4
f 260/3/4 261/3/4 264/3/4
f 264/3/4 261/3/4 265/3/4
f 262/3/4 263/3/4 266/3/4
f 266/3/4 263/3/4 267/3/4
f 268/3/4 269/3/4 272/3/4
f 272/3/4 269/3/4 273/3/4
f 270/3/4 271/3/4 274/3/4
f 274/3/4 271/3/4 275/3/4
f 276/3/4 277/3/4 280/3/4
f 277/3/4 278/3/4 280/3/4
f 280/3/4 278/3/4 281/3/4
f 279/3/4 280/3/4 283/3/4
f 281/3/4 282/3/4 283/3/4
f 280/3/4 281/3/4 283/3/4
f 283/3/4 282/3/4 284/3/4
f 284/3/4 282/3/4 285/3/4
f 285/3/4 282/3/4 286/3/4
f 284/3/4 285/3/4 287/3/4
f 287/3/4 285/3/4 288/3/4
f 288/3/4 285/3/4 289/3/4
f 290/5/4 291/5/4 292/5/4
f 292/5/4 291/5/4 293/5/4
f 290/5/4 292/5/4 294/5/4
f 294/5/4 292/5/4 295/5/4
f 296/5/4 297/5/4 298/5/4
f 296/5/4 298/5/4 300/5/4
f 298/5/4 299/5/4 300/5/4
f 300/5/4 299/5/4 301/5/4
f 305/3/5 303/3/5 302/3/5
f 306/3/5 303/3/5 305/3/5
f 308/3/5 305/3/5 304/3/5
f 308/3/5 307/3/5 306/3/5
f 308/3/5 306/3/5 305/3/5
f 309/3/5 307/3/5 308/3/5
f 310/3/5 307/3/5 309/3/5
f 311/3/5 307/3/5 310/3/5
f 312/3/5 310/3/5 309/3/5
f 313/3/5 310/3/5 312/3/5
f 318/3/5 315/3/5 314/3/5
f 319/3/5 315/3/5 318/3/5
f 320/3/5 317/3/5 316/3/5
f 321/3/5 317/3/5 320/3/5
f 326/5/5 323/5/5 322/5/5
f 329/5/5 325/5/5 324/5/5
f 331/5/5 326/5/5 322/5/5
f 332/3/5 327/3/5 326/3/5
f 332/5/5 326/5/5 331/5/5
f 333/3/5 327/3/5 332/3/5
f 334/3/5 329/3/5 328/3/5
f 335/5/5 325/5/5 329/5/5
f 335/3/5 329/3/5 334/3/5
f 336/5/5 325/5/5 335/5/5
f 338/5/5 331/5/5 330/5/5
f 338/5/5 332/5/5 331/5/5
f 339/5/5 332/5/5 338/5/5
f 340/5/5 337/5/5 336/5/5
f 340/5/5 336/5/5 335/5/5
f 341/5/5 337/5/5 340/5/5
f 346/5/5 343/5/5 342/5/5
f 347/5/5 343/5/5 346/5/5
f 348/5/5 345/5/5 344/5/5
f 349/5/5 345/5/5 348/5/5
f 354/5/5 351/5/5 350/5/5
f 355/5/5 351/5/5 354/5/5
f 356/5/5 353/5/5 352/5/5
f 357/5/5 353/5/5 356/5/5
f 363/5/5 359/5/5 358/5/5
f 364/5/5 359/5/5 363/5/5
f 365/5/5 361/5/5 360/5/5
f 366/5/5 361/5/5 365/5/5
f 368/5/5 363/5/5 362/5/5
f 369/5/5 363/5/5 368/5/5
f 370/5/5 367/5/5 366/5/5
f 371/5/5 367/5/5 370/5/5
f 372/5/6 373/5/6 376/5/6
f 374/5/6 375/5/6 377/5/6
f 372/5/6 376/5/6 378/5/6
f 378/5/6 376/5/6 379/5/6
f 377/5/6 375/5/6 380/5/6
f 380/5/6 375/5/6 381/5/6
f 382/5/6 383/5/6 387/5/6
f 384/5/6 385/5/6 388/5/6
f 386/5/6 387/5/6 390/5/6
f 387/5/6 383/5/6 390/5/6
f 390/5/6 383/5/6 391/5/6
f 388/5/6 389/5/6 392/5/6
f 384/5/6 388/5/6 392/5/6
f 392/5/6 389/5/6 393/5/6
f 386/5/6 390/5/6 394/5/6
f 394/5/6 390/5/6 395/5/6
f 393/5/6 389/5/6 396/5/6
f 396/5/6 389/5/6 397/5/6
f 398/3/6 399/3/6 402/3/6
f 402/3/6 399/3/6 403/3/6
f 400/3/6 401/3/6 406/3/6
f 406/3/6 401/3/6 407/3/6
f 404/4/6 405/4/6 409/4/6
f 409/4/6 405/4/6 410/4/6
f 410/4/6 405/4/6 411/4/6
f 410/4/6 411/4/6 413/4/6
f 411/4/6 412/4/6 413/4/6
f 413/4/6 412/4/6 414/4/6
f 408/1/6 409/1/6 415/1/6
f 409/2/6 410/2/6 415/2/6
f 410/4/6 413/4/6 416/4/6
f 415/2/6 410/2/6 416/2/6
f 413/2/6 414/2/6 417/2/6
f 416/4/6 413/4/6 417/4/6
f 414/4/6 412/4/6 418/4/6
f 417/2/6 414/2/6 418/2/6
f 415/1/6 416/1/6 419/1/6
f 408/1/6 415/1/6 419/1/6
f 419/1/6 416/1/6 420/1/6
f 420/1/6 416/1/6 421/1/6
f 416/4/6 417/4/6 422/4/6
f 421/1/6 416/1/6 422/1/6
f 417/4/6 418/4/6 422/4/6
f 422/4/6 418/4/6 423/4/6
f 419/4/6 420/4/6 424/4/6
f 420/1/6 421/1/6 425/1/6
f 424/4/6 420/4/6 425/4/6
f 421/2/6 422/2/6 426/2/6
f 425/1/6 421/1/6 426/1/6
f 422/2/6 423/2/6 426/2/6
f 426/2/6 423/2/6 427/2/6
f 423/4/6 418/4/6 428/4/6
f 427/2/6 423/2/6 428/2/6
f 418/4/6 412/4/6 429/4/6
f 428/4/6 418/4/6 429/4/6
f 426/2/6 427/2/6 430/2/6
f 425/4/6 426/4/6 430/4/6
f 427/4/6 428/4/6 431/4/6
f 430/2/6 427/2/6 431/2/6
f 430/4/6 431/4/6 432/4/6
f 431/4/6 428/4/6 432/4/6
f 428/2/6 429/2/6 433/2/6
f 432/4/6 428/4/6 433/4/6
f 424/2/6 425/2/6 434/2/6
f 425/4/6 430/4/6 435/4/6
f 434/2/6 425/2/6 435/2/6
f 430/4/6 432/4/6 435/4/6
f 432/2/6 433/2/6 436/2/6
f 435/4/6 432/4/6 436/4/6
f 433/2/6 429/2/6 437/2/6
f 436/2/6 433/2/6 437/2/6
f 429/4/6 412/4/6 438/4/6
f 437/2/6 429/2/6 438/2/6
f 436/4/6 437/4/6 439/4/6
f 435/4/6 436/4/6 439/4/6
f 434/4/6 435/4/6 439/4/6
f 439/4/6 437/4/6 440/4/6
f 437/1/6 438/1/6 441/1/6
f 440/4/6 437/4/6 441/4/6
f 438/4/6 412/4/6 442/4/6
f 441/1/6 438/1/6 442/1/6
f 442/4/6 412/4/6 443/4/6
f 440/1/6 441/1/6 446/1/6
f 441/1/6 442/1/6 446/1/6
f 446/1/6 442/1/6 447/1/6
f 444/3/6 445/3/6 450/3/6
f 450/3/6 445/3/6 451/3/6
f 448/3/6 449/3/6 452/3/6
f 452/3/6 449/3/6 453/3/6
f 454/3/6 455/3/6 457/3/6
f 457/3/6 455/3/6 458/3/6
f 458/3/6 455/3/6 459/3/6
f 459/3/6 455/3/6 460/3/6
f 456/3/6 457/3/6 462/3/6
f 457/3/6 458/3/6 462/3/6
f 462/3/6 458/3/6 463/3/6
f 460/3/6 461/3/6 464/3/6
f 459/3/6 460/3/6 464/3/6
f 464/3/6 461/3/6 465/3/6
f 456/3/6 462/3/6 466/3/6
f 465/3/6 461/3/6 469/3/6
f 466/3/6 467/3/6 470/3/6
f 456/3/6 466/3/6 470/3/6
f 470/3/6 467/3/6 471/3/6
f 471/3/6 467/3/6 472/3/6
f 468/3/6 469/3/6 473/3/6
f 469/3/6 461/3/6 474/3/6
f 473/3/6 469/3/6 474/3/6
f 474/3/6 461/3/6 475/3/6
f 471/3/6 472/3/6 476/3/6
f 472/3/6 473/3/6 476/3/6
f 473/3/6 474/3/6 476/3/6
f 476/3/6 474/3/6 477/3/6
