# MagicaVoxel @ Ephtracy

# group
o 

# material
mtllib Robot.vox-1.mtl
usemtl palette

# normals
vn -1 0 0
vn 1 0 0
vn 0 0 1
vn 0 0 -1
vn 0 -1 0
vn 0 1 0

# texcoords
vt 0.943359 0.5
vt 0.947266 0.5
vt 0.970703 0.5
vt 0.974609 0.5
vt 0.978516 0.5
vt 0.982422 0.5
vt 0.990234 0.5

# verts
v -0.5 0.5 -8.4
v -0.5 0.5 -9.7
v -0.5 0.6 -8.4
v -0.5 0.6 -8.5
v -0.5 0.6 -8.6
v -0.5 0.6 -9.4
v -0.5 0.6 -9.5
v -0.5 0.6 -9.7
v -0.5 0.7 -8.6
v -0.5 0.7 -9.4
v -0.5 0.7 -9.5
v -0.5 0.7 -9.7
v -0.5 1 -9.5
v -0.5 1 -9.7
v -0.5 1.1 -9.4
v -0.5 1.1 -9.5
v -0.5 1.1 -9.7
v -0.5 1.2 -9.3
v -0.5 1.2 -9.4
v -0.5 1.3 -8.4
v -0.5 1.3 -8.5
v -0.5 1.3 -8.6
v -0.5 1.3 -8.9
v -0.5 1.3 -9.2
v -0.5 1.3 -9.3
v -0.5 1.4 -8.6
v -0.5 1.4 -8.9
v -0.5 1.4 -9
v -0.5 1.4 -9.2
v -0.5 1.5 -8.4
v -0.5 1.5 -9
v -0.4 0.5 -8.3
v -0.4 0.5 -8.4
v -0.4 0.6 -8.3
v -0.4 0.6 -8.4
v -0.4 1.1 -9.4
v -0.4 1.1 -9.5
v -0.4 1.1 -9.6
v -0.4 1.2 -9.4
v -0.4 1.2 -9.6
v -0.1 0.7 -9.6
v -0.1 0.7 -9.7
v -0.1 0.8 -9.6
v -0.1 0.8 -9.7
v -0.1 0.9 -9.6
v -0.1 0.9 -9.7
v -0.1 1.2 -9.3
v -0.1 1.2 -9.4
v -0.1 1.2 -9.5
v -0.1 1.3 -9.3
v -0.1 1.3 -9.5
v 0.2 0.6 -9.6
v 0.2 0.6 -9.7
v 0.2 0.7 -9.6
v 0.2 0.7 -9.7
v 0.2 1 -9.5
v 0.2 1 -9.6
v 0.2 1 -9.7
v 0.2 1.1 -9.5
v 0.2 1.1 -9.7
v 0.3 1.1 -9.5
v 0.3 1.1 -9.6
v 0.3 1.2 -9.5
v 0.3 1.2 -9.6
v 0.3 1.3 -8.4
v 0.3 1.3 -8.5
v 0.3 1.4 -8.4
v 0.3 1.4 -8.5
v -0.3 1.1 -9.5
v -0.3 1.1 -9.6
v -0.3 1.2 -9.5
v -0.3 1.2 -9.6
v -0.3 1.3 -8.4
v -0.3 1.3 -8.5
v -0.3 1.4 -8.4
v -0.3 1.4 -8.5
v -0.2 0.6 -9.6
v -0.2 0.6 -9.7
v -0.2 0.7 -9.6
v -0.2 0.7 -9.7
v -0.2 1 -9.5
v -0.2 1 -9.6
v -0.2 1 -9.7
v -0.2 1.1 -9.5
v -0.2 1.1 -9.7
v 0.1 0.7 -9.6
v 0.1 0.7 -9.7
v 0.1 0.8 -9.6
v 0.1 0.8 -9.7
v 0.1 0.9 -9.6
v 0.1 0.9 -9.7
v 0.1 1.2 -9.3
v 0.1 1.2 -9.4
v 0.1 1.2 -9.5
v 0.1 1.3 -9.3
v 0.1 1.3 -9.5
v 0.4 0.5 -8.3
v 0.4 0.5 -8.4
v 0.4 0.6 -8.3
v 0.4 0.6 -8.4
v 0.4 1.1 -9.4
v 0.4 1.1 -9.5
v 0.4 1.1 -9.6
v 0.4 1.2 -9.4
v 0.4 1.2 -9.6
v 0.5 0.5 -8.4
v 0.5 0.5 -9.7
v 0.5 0.6 -8.4
v 0.5 0.6 -8.5
v 0.5 0.6 -8.6
v 0.5 0.6 -9.4
v 0.5 0.6 -9.5
v 0.5 0.6 -9.7
v 0.5 0.7 -8.6
v 0.5 0.7 -9.4
v 0.5 0.7 -9.5
v 0.5 0.7 -9.7
v 0.5 1 -9.5
v 0.5 1 -9.7
v 0.5 1.1 -9.4
v 0.5 1.1 -9.5
v 0.5 1.1 -9.7
v 0.5 1.2 -9.3
v 0.5 1.2 -9.4
v 0.5 1.3 -8.4
v 0.5 1.3 -8.5
v 0.5 1.3 -8.6
v 0.5 1.3 -8.9
v 0.5 1.3 -9.2
v 0.5 1.3 -9.3
v 0.5 1.4 -8.6
v 0.5 1.4 -8.9
v 0.5 1.4 -9
v 0.5 1.4 -9.2
v 0.5 1.5 -8.4
v 0.5 1.5 -9
v -0.4 0.5 -8.3
v -0.4 0.6 -8.3
v 0.4 0.5 -8.3
v 0.4 0.6 -8.3
v -0.5 0.5 -8.4
v -0.5 0.6 -8.4
v -0.5 1.3 -8.4
v -0.5 1.5 -8.4
v -0.4 0.5 -8.4
v -0.4 0.6 -8.4
v -0.3 1.3 -8.4
v -0.3 1.4 -8.4
v 0.3 1.3 -8.4
v 0.3 1.4 -8.4
v 0.4 0.5 -8.4
v 0.4 0.6 -8.4
v 0.5 0.5 -8.4
v 0.5 0.6 -8.4
v 0.5 1.3 -8.4
v 0.5 1.5 -8.4
v -0.5 0.6 -8.5
v -0.5 1.3 -8.5
v -0.4 0.6 -8.5
v -0.4 1.3 -8.5
v -0.3 1.3 -8.5
v -0.3 1.4 -8.5
v -0.2 1.2 -8.5
v -0.2 1.3 -8.5
v 0.2 0.8 -8.5
v 0.2 1.2 -8.5
v 0.2 1.3 -8.5
v 0.3 0.8 -8.5
v 0.3 1.3 -8.5
v 0.3 1.4 -8.5
v 0.4 0.6 -8.5
v 0.4 1.3 -8.5
v 0.5 0.6 -8.5
v 0.5 1.3 -8.5
v -0.5 1.4 -9
v -0.5 1.5 -9
v 0.5 1.4 -9
v 0.5 1.5 -9
v -0.5 1.3 -9.2
v -0.5 1.4 -9.2
v 0.5 1.3 -9.2
v 0.5 1.4 -9.2
v -0.5 1.2 -9.3
v -0.5 1.3 -9.3
v -0.1 1.2 -9.3
v -0.1 1.3 -9.3
v 0.1 1.2 -9.3
v 0.1 1.3 -9.3
v 0.5 1.2 -9.3
v 0.5 1.3 -9.3
v -0.5 1.1 -9.4
v -0.5 1.2 -9.4
v -0.4 1.1 -9.4
v -0.4 1.2 -9.4
v 0.4 1.1 -9.4
v 0.4 1.2 -9.4
v 0.5 1.1 -9.4
v 0.5 1.2 -9.4
v -0.3 1.1 -9.5
v -0.3 1.2 -9.5
v -0.2 1 -9.5
v -0.2 1.1 -9.5
v -0.1 1.2 -9.5
v -0.1 1.3 -9.5
v 0.1 1.2 -9.5
v 0.1 1.3 -9.5
v 0.2 1 -9.5
v 0.2 1.1 -9.5
v 0.3 1.1 -9.5
v 0.3 1.2 -9.5
v -0.4 1.1 -9.6
v -0.4 1.2 -9.6
v -0.3 1.1 -9.6
v -0.3 1.2 -9.6
v -0.2 0.6 -9.6
v -0.2 0.7 -9.6
v -0.2 1 -9.6
v -0.1 0.7 -9.6
v -0.1 0.8 -9.6
v -0.1 0.9 -9.6
v 0.1 0.7 -9.6
v 0.1 0.8 -9.6
v 0.1 0.9 -9.6
v 0.2 0.6 -9.6
v 0.2 0.7 -9.6
v 0.2 1 -9.6
v 0.3 1.1 -9.6
v 0.3 1.2 -9.6
v 0.4 1.1 -9.6
v 0.4 1.2 -9.6
v -0.5 0.5 -9.7
v -0.5 0.6 -9.7
v -0.5 0.7 -9.7
v -0.5 1 -9.7
v -0.5 1.1 -9.7
v -0.4 0.7 -9.7
v -0.4 1 -9.7
v -0.3 0.7 -9.7
v -0.3 1 -9.7
v -0.2 0.6 -9.7
v -0.2 0.7 -9.7
v -0.2 1 -9.7
v -0.2 1.1 -9.7
v -0.1 0.7 -9.7
v -0.1 0.8 -9.7
v -0.1 0.9 -9.7
v 0.1 0.7 -9.7
v 0.1 0.8 -9.7
v 0.1 0.9 -9.7
v 0.2 0.6 -9.7
v 0.2 0.7 -9.7
v 0.2 1 -9.7
v 0.2 1.1 -9.7
v 0.3 0.7 -9.7
v 0.3 1 -9.7
v 0.4 0.7 -9.7
v 0.4 1 -9.7
v 0.5 0.5 -9.7
v 0.5 0.6 -9.7
v 0.5 0.7 -9.7
v 0.5 1 -9.7
v 0.5 1.1 -9.7
v -0.4 0.5 -8.3
v 0.4 0.5 -8.3
v -0.5 0.5 -8.4
v -0.4 0.5 -8.4
v 0.4 0.5 -8.4
v 0.5 0.5 -8.4
v -0.4 0.5 -8.5
v 0.4 0.5 -8.5
v -0.4 0.5 -8.6
v 0.4 0.5 -8.6
v -0.5 0.5 -9.7
v 0.5 0.5 -9.7
v -0.1 0.7 -9.6
v 0.1 0.7 -9.6
v -0.1 0.7 -9.7
v 0.1 0.7 -9.7
v -0.5 1.3 -8.4
v -0.3 1.3 -8.4
v 0.3 1.3 -8.4
v 0.5 1.3 -8.4
v -0.5 1.3 -8.5
v -0.4 1.3 -8.5
v -0.3 1.3 -8.5
v 0.3 1.3 -8.5
v 0.4 1.3 -8.5
v 0.5 1.3 -8.5
v -0.3 1.4 -8.4
v 0.3 1.4 -8.4
v -0.3 1.4 -8.5
v 0.3 1.4 -8.5
v -0.4 0.6 -8.3
v 0.4 0.6 -8.3
v -0.5 0.6 -8.4
v -0.4 0.6 -8.4
v 0.4 0.6 -8.4
v 0.5 0.6 -8.4
v -0.5 0.6 -8.5
v -0.4 0.6 -8.5
v 0.4 0.6 -8.5
v 0.5 0.6 -8.5
v -0.2 0.6 -9.6
v 0.2 0.6 -9.6
v -0.2 0.6 -9.7
v 0.2 0.6 -9.7
v -0.1 0.9 -9.6
v 0.1 0.9 -9.6
v -0.1 0.9 -9.7
v 0.1 0.9 -9.7
v -0.2 1 -9.5
v 0.2 1 -9.5
v -0.2 1 -9.6
v 0.2 1 -9.6
v -0.5 1.1 -9.4
v -0.4 1.1 -9.4
v 0.4 1.1 -9.4
v 0.5 1.1 -9.4
v -0.5 1.1 -9.5
v -0.4 1.1 -9.5
v -0.3 1.1 -9.5
v -0.2 1.1 -9.5
v 0.2 1.1 -9.5
v 0.3 1.1 -9.5
v 0.4 1.1 -9.5
v 0.5 1.1 -9.5
v -0.4 1.1 -9.6
v -0.3 1.1 -9.6
v 0.3 1.1 -9.6
v 0.4 1.1 -9.6
v -0.5 1.1 -9.7
v -0.2 1.1 -9.7
v 0.2 1.1 -9.7
v 0.5 1.1 -9.7
v -0.5 1.2 -9.3
v -0.1 1.2 -9.3
v 0.1 1.2 -9.3
v 0.5 1.2 -9.3
v -0.5 1.2 -9.4
v -0.4 1.2 -9.4
v -0.1 1.2 -9.4
v 0.1 1.2 -9.4
v 0.4 1.2 -9.4
v 0.5 1.2 -9.4
v -0.3 1.2 -9.5
v -0.1 1.2 -9.5
v 0.1 1.2 -9.5
v 0.3 1.2 -9.5
v -0.4 1.2 -9.6
v -0.3 1.2 -9.6
v 0.3 1.2 -9.6
v 0.4 1.2 -9.6
v -0.5 1.3 -9.2
v 0.5 1.3 -9.2
v -0.5 1.3 -9.3
v -0.1 1.3 -9.3
v 0.1 1.3 -9.3
v 0.5 1.3 -9.3
v -0.1 1.3 -9.5
v 0.1 1.3 -9.5
v -0.5 1.4 -9
v 0.5 1.4 -9
v -0.5 1.4 -9.2
v 0.5 1.4 -9.2
v -0.5 1.5 -8.4
v 0.5 1.5 -8.4
v -0.5 1.5 -9
v 0.5 1.5 -9

# faces
f 3/3/1 2/3/1 1/3/1
f 4/3/1 2/3/1 3/3/1
f 5/3/1 2/3/1 4/3/1
f 6/3/1 2/3/1 5/3/1
f 7/3/1 2/3/1 6/3/1
f 8/3/1 2/3/1 7/3/1
f 9/3/1 5/3/1 4/3/1
f 9/6/1 6/6/1 5/6/1
f 10/3/1 7/3/1 6/3/1
f 10/6/1 6/6/1 9/6/1
f 11/5/1 8/5/1 7/5/1
f 11/3/1 7/3/1 10/3/1
f 12/5/1 8/5/1 11/5/1
f 13/3/1 10/3/1 9/3/1
f 13/3/1 11/3/1 10/3/1
f 13/2/1 12/2/1 11/2/1
f 14/2/1 12/2/1 13/2/1
f 15/3/1 13/3/1 9/3/1
f 16/5/1 14/5/1 13/5/1
f 16/3/1 13/3/1 15/3/1
f 17/5/1 14/5/1 16/5/1
f 18/3/1 15/3/1 9/3/1
f 19/3/1 15/3/1 18/3/1
f 21/3/1 9/3/1 4/3/1
f 21/3/1 18/3/1 9/3/1
f 22/3/1 18/3/1 21/3/1
f 23/3/1 18/3/1 22/3/1
f 24/3/1 18/3/1 23/3/1
f 25/3/1 18/3/1 24/3/1
f 26/3/1 21/3/1 20/3/1
f 26/3/1 22/3/1 21/3/1
f 26/6/1 23/6/1 22/6/1
f 27/3/1 24/3/1 23/3/1
f 27/6/1 23/6/1 26/6/1
f 28/3/1 24/3/1 27/3/1
f 29/3/1 24/3/1 28/3/1
f 30/3/1 26/3/1 20/3/1
f 30/3/1 27/3/1 26/3/1
f 30/3/1 28/3/1 27/3/1
f 31/3/1 28/3/1 30/3/1
f 34/3/1 33/3/1 32/3/1
f 35/3/1 33/3/1 34/3/1
f 39/5/1 37/5/1 36/5/1
f 39/5/1 38/5/1 37/5/1
f 40/5/1 38/5/1 39/5/1
f 43/6/1 42/6/1 41/6/1
f 44/6/1 42/6/1 43/6/1
f 45/7/1 44/7/1 43/7/1
f 46/7/1 44/7/1 45/7/1
f 50/5/1 48/5/1 47/5/1
f 50/5/1 49/5/1 48/5/1
f 51/5/1 49/5/1 50/5/1
f 54/5/1 53/5/1 52/5/1
f 55/5/1 53/5/1 54/5/1
f 57/2/1 55/2/1 54/2/1
f 58/2/1 55/2/1 57/2/1
f 59/5/1 57/5/1 56/5/1
f 59/5/1 58/5/1 57/5/1
f 60/5/1 58/5/1 59/5/1
f 63/5/1 62/5/1 61/5/1
f 64/5/1 62/5/1 63/5/1
f 67/3/1 66/3/1 65/3/1
f 68/3/1 66/3/1 67/3/1
f 69/5/2 70/5/2 71/5/2
f 71/5/2 70/5/2 72/5/2
f 73/3/2 74/3/2 75/3/2
f 75/3/2 74/3/2 76/3/2
f 77/5/2 78/5/2 79/5/2
f 79/5/2 78/5/2 80/5/2
f 79/2/2 80/2/2 82/2/2
f 82/2/2 80/2/2 83/2/2
f 81/5/2 82/5/2 84/5/2
f 82/5/2 83/5/2 84/5/2
f 84/5/2 83/5/2 85/5/2
f 86/6/2 87/6/2 88/6/2
f 88/6/2 87/6/2 89/6/2
f 88/7/2 89/7/2 90/7/2
f 90/7/2 89/7/2 91/7/2
f 92/5/2 93/5/2 95/5/2
f 93/5/2 94/5/2 95/5/2
f 95/5/2 94/5/2 96/5/2
f 97/3/2 98/3/2 99/3/2
f 99/3/2 98/3/2 100/3/2
f 101/5/2 102/5/2 104/5/2
f 102/5/2 103/5/2 104/5/2
f 104/5/2 103/5/2 105/5/2
f 106/3/2 107/3/2 108/3/2
f 108/3/2 107/3/2 109/3/2
f 109/3/2 107/3/2 110/3/2
f 110/3/2 107/3/2 111/3/2
f 111/3/2 107/3/2 112/3/2
f 112/3/2 107/3/2 113/3/2
f 109/3/2 110/3/2 114/3/2
f 110/6/2 111/6/2 114/6/2
f 111/3/2 112/3/2 115/3/2
f 114/6/2 111/6/2 115/6/2
f 112/5/2 113/5/2 116/5/2
f 115/3/2 112/3/2 116/3/2
f 116/5/2 113/5/2 117/5/2
f 114/3/2 115/3/2 118/3/2
f 115/3/2 116/3/2 118/3/2
f 116/2/2 117/2/2 118/2/2
f 118/2/2 117/2/2 119/2/2
f 114/3/2 118/3/2 120/3/2
f 118/5/2 119/5/2 121/5/2
f 120/3/2 118/3/2 121/3/2
f 121/5/2 119/5/2 122/5/2
f 114/3/2 120/3/2 123/3/2
f 123/3/2 120/3/2 124/3/2
f 109/3/2 114/3/2 126/3/2
f 114/3/2 123/3/2 126/3/2
f 126/3/2 123/3/2 127/3/2
f 127/3/2 123/3/2 128/3/2
f 128/3/2 123/3/2 129/3/2
f 129/3/2 123/3/2 130/3/2
f 125/3/2 126/3/2 131/3/2
f 126/3/2 127/3/2 131/3/2
f 127/6/2 128/6/2 131/6/2
f 128/3/2 129/3/2 132/3/2
f 131/6/2 128/6/2 132/6/2
f 132/3/2 129/3/2 133/3/2
f 133/3/2 129/3/2 134/3/2
f 125/3/2 131/3/2 135/3/2
f 131/3/2 132/3/2 135/3/2
f 132/3/2 133/3/2 135/3/2
f 135/3/2 133/3/2 136/3/2
f 139/3/3 138/3/3 137/3/3
f 140/3/3 138/3/3 139/3/3
f 145/3/3 142/3/3 141/3/3
f 146/3/3 142/3/3 145/3/3
f 147/3/3 144/3/3 143/3/3
f 148/3/3 144/3/3 147/3/3
f 150/3/3 144/3/3 148/3/3
f 153/3/3 152/3/3 151/3/3
f 154/3/3 152/3/3 153/3/3
f 155/3/3 150/3/3 149/3/3
f 156/3/3 144/3/3 150/3/3
f 156/3/3 150/3/3 155/3/3
f 159/3/3 158/3/3 157/3/3
f 160/3/3 158/3/3 159/3/3
f 161/5/3 160/5/3 159/5/3
f 163/5/3 161/5/3 159/5/3
f 163/5/3 162/5/3 161/5/3
f 164/5/3 162/5/3 163/5/3
f 165/5/3 163/5/3 159/5/3
f 166/4/3 164/4/3 163/4/3
f 166/5/3 163/5/3 165/5/3
f 167/5/3 162/5/3 164/5/3
f 167/4/3 164/4/3 166/4/3
f 168/1/3 166/1/3 165/1/3
f 168/5/3 165/5/3 159/5/3
f 168/1/3 167/1/3 166/1/3
f 169/5/3 162/5/3 167/5/3
f 169/1/3 167/1/3 168/1/3
f 170/5/3 162/5/3 169/5/3
f 171/5/3 168/5/3 159/5/3
f 171/5/3 169/5/3 168/5/3
f 172/5/3 169/5/3 171/5/3
f 173/3/3 172/3/3 171/3/3
f 174/3/3 172/3/3 173/3/3
f 175/3/4 176/3/4 177/3/4
f 177/3/4 176/3/4 178/3/4
f 179/3/4 180/3/4 181/3/4
f 181/3/4 180/3/4 182/3/4
f 183/3/4 184/3/4 185/3/4
f 185/3/4 184/3/4 186/3/4
f 187/3/4 188/3/4 189/3/4
f 189/3/4 188/3/4 190/3/4
f 191/3/4 192/3/4 193/3/4
f 193/3/4 192/3/4 194/3/4
f 195/3/4 196/3/4 197/3/4
f 197/3/4 196/3/4 198/3/4
f 199/5/4 200/5/4 202/5/4
f 202/5/4 200/5/4 203/5/4
f 202/5/4 203/5/4 205/5/4
f 203/5/4 204/5/4 205/5/4
f 205/5/4 204/5/4 206/5/4
f 201/3/4 202/3/4 207/3/4
f 202/5/4 205/5/4 208/5/4
f 207/3/4 202/3/4 208/3/4
f 208/5/4 205/5/4 209/5/4
f 209/5/4 205/5/4 210/5/4
f 211/5/4 212/5/4 213/5/4
f 213/5/4 212/5/4 214/5/4
f 215/3/4 216/3/4 218/3/4
f 216/3/4 217/3/4 218/3/4
f 218/3/4 217/3/4 219/3/4
f 219/3/4 217/3/4 220/3/4
f 215/3/4 218/3/4 221/3/4
f 220/3/4 217/3/4 223/3/4
f 221/3/4 222/3/4 224/3/4
f 222/3/4 223/3/4 224/3/4
f 215/3/4 221/3/4 224/3/4
f 224/3/4 223/3/4 225/3/4
f 223/3/4 217/3/4 226/3/4
f 225/3/4 223/3/4 226/3/4
f 227/5/4 228/5/4 229/5/4
f 229/5/4 228/5/4 230/5/4
f 232/5/4 233/5/4 236/5/4
f 233/2/4 234/2/4 236/2/4
f 234/5/4 235/5/4 237/5/4
f 236/2/4 234/2/4 237/2/4
f 232/5/4 236/5/4 238/5/4
f 236/5/4 237/5/4 238/5/4
f 237/5/4 235/5/4 239/5/4
f 238/5/4 237/5/4 239/5/4
f 231/3/4 232/3/4 240/3/4
f 232/5/4 238/5/4 240/5/4
f 238/2/4 239/2/4 241/2/4
f 240/5/4 238/5/4 241/5/4
f 239/5/4 235/5/4 242/5/4
f 241/2/4 239/2/4 242/2/4
f 242/5/4 235/5/4 243/5/4
f 244/6/4 245/6/4 247/6/4
f 245/7/4 246/7/4 248/7/4
f 247/6/4 245/6/4 248/6/4
f 248/7/4 246/7/4 249/7/4
f 231/3/4 240/3/4 250/3/4
f 250/5/4 251/5/4 254/5/4
f 251/2/4 252/2/4 254/2/4
f 252/5/4 253/5/4 255/5/4
f 254/2/4 252/2/4 255/2/4
f 250/5/4 254/5/4 256/5/4
f 254/5/4 255/5/4 256/5/4
f 255/5/4 253/5/4 257/5/4
f 256/5/4 255/5/4 257/5/4
f 231/3/4 250/3/4 258/3/4
f 250/5/4 256/5/4 259/5/4
f 258/3/4 250/3/4 259/3/4
f 256/2/4 257/2/4 260/2/4
f 259/5/4 256/5/4 260/5/4
f 257/5/4 253/5/4 261/5/4
f 260/2/4 257/2/4 261/2/4
f 261/5/4 253/5/4 262/5/4
f 266/3/5 264/3/5 263/3/5
f 267/3/5 264/3/5 266/3/5
f 269/3/5 266/3/5 265/3/5
f 269/3/5 268/3/5 267/3/5
f 269/3/5 267/3/5 266/3/5
f 270/3/5 268/3/5 269/3/5
f 271/3/5 269/3/5 265/3/5
f 271/5/5 270/5/5 269/5/5
f 272/3/5 268/3/5 270/3/5
f 272/5/5 270/5/5 271/5/5
f 273/3/5 271/3/5 265/3/5
f 273/3/5 272/3/5 271/3/5
f 274/3/5 268/3/5 272/3/5
f 274/3/5 272/3/5 273/3/5
f 277/6/5 276/6/5 275/6/5
f 278/6/5 276/6/5 277/6/5
f 283/3/5 280/3/5 279/3/5
f 284/3/5 280/3/5 283/3/5
f 285/3/5 280/3/5 284/3/5
f 286/3/5 282/3/5 281/3/5
f 287/3/5 282/3/5 286/3/5
f 288/3/5 282/3/5 287/3/5
f 291/3/5 290/3/5 289/3/5
f 292/3/5 290/3/5 291/3/5
f 293/3/6 294/3/6 296/3/6
f 296/3/6 294/3/6 297/3/6
f 295/3/6 296/3/6 299/3/6
f 297/3/6 298/3/6 299/3/6
f 296/3/6 297/3/6 299/3/6
f 299/3/6 298/3/6 300/3/6
f 300/3/6 298/3/6 301/3/6
f 301/3/6 298/3/6 302/3/6
f 303/3/6 304/3/6 305/3/6
f 305/3/6 304/3/6 306/3/6
f 307/7/6 308/7/6 309/7/6
f 309/7/6 308/7/6 310/7/6
f 311/3/6 312/3/6 313/3/6
f 313/3/6 312/3/6 314/3/6
f 315/3/6 316/3/6 319/3/6
f 319/3/6 316/3/6 320/3/6
f 317/3/6 318/3/6 325/3/6
f 325/3/6 318/3/6 326/3/6
f 319/5/6 320/5/6 327/5/6
f 321/5/6 322/5/6 328/5/6
f 323/5/6 324/5/6 329/5/6
f 325/5/6 326/5/6 330/5/6
f 327/5/6 328/5/6 331/5/6
f 319/5/6 327/5/6 331/5/6
f 328/5/6 322/5/6 332/5/6
f 331/5/6 328/5/6 332/5/6
f 329/5/6 330/5/6 333/5/6
f 323/5/6 329/5/6 333/5/6
f 330/5/6 326/5/6 334/5/6
f 333/5/6 330/5/6 334/5/6
f 335/3/6 336/3/6 339/3/6
f 339/3/6 336/3/6 340/3/6
f 340/3/6 336/3/6 341/3/6
f 337/3/6 338/3/6 342/3/6
f 342/3/6 338/3/6 343/3/6
f 343/3/6 338/3/6 344/3/6
f 340/5/6 341/5/6 345/5/6
f 345/5/6 341/5/6 346/5/6
f 342/5/6 343/5/6 347/5/6
f 347/5/6 343/5/6 348/5/6
f 340/5/6 345/5/6 349/5/6
f 349/5/6 345/5/6 350/5/6
f 348/5/6 343/5/6 351/5/6
f 351/5/6 343/5/6 352/5/6
f 353/3/6 354/3/6 355/3/6
f 355/3/6 354/3/6 356/3/6
f 356/3/6 354/3/6 357/3/6
f 357/3/6 354/3/6 358/3/6
f 356/5/6 357/5/6 359/5/6
f 359/5/6 357/5/6 360/5/6
f 361/3/6 362/3/6 363/3/6
f 363/3/6 362/3/6 364/3/6
f 365/3/6 366/3/6 367/3/6
f 367/3/6 366/3/6 368/3/6
