# MagicaVoxel @ Ephtracy

# group
o 

# material
mtllib Robot.vox-28.mtl
usemtl palette

# normals
vn -1 0 0
vn 1 0 0
vn 0 0 1
vn 0 0 -1
vn 0 -1 0
vn 0 1 0

# texcoords
vt 0.693359 0.5
vt 0.724609 0.5
vt 0.916016 0.5
vt 0.970703 0.5
vt 0.978516 0.5

# verts
v 5.2 0.2 -5.6
v 5.2 0.2 -5.7
v 5.2 0.3 -5.1
v 5.2 0.3 -5.6
v 5.2 0.4 -4.8
v 5.2 0.4 -5.1
v 5.2 0.5 -4.8
v 5.2 0.5 -5.7
v 5.3 0.2 -5
v 5.3 0.2 -5.6
v 5.3 0.3 -4.8
v 5.3 0.3 -5
v 5.3 0.3 -5.1
v 5.3 0.3 -5.6
v 5.3 0.4 -4.5
v 5.3 0.4 -4.8
v 5.3 0.4 -5.1
v 5.3 0.5 -4.5
v 5.3 0.5 -4.8
v 5.4 0.1 -4.5
v 5.4 0.1 -5.5
v 5.4 0.2 -4.4
v 5.4 0.2 -4.5
v 5.4 0.2 -5
v 5.4 0.2 -5.5
v 5.4 0.3 -4.8
v 5.4 0.3 -5
v 5.4 0.4 -4.5
v 5.4 0.4 -4.8
v 5.4 0.4 -5.4
v 5.4 0.4 -5.6
v 5.4 0.5 -4.5
v 5.4 0.5 -5.4
v 5.4 0.6 -4.4
v 5.4 0.6 -4.5
v 5.4 0.6 -5.5
v 5.4 0.6 -5.6
v 5.4 0.7 -4.5
v 5.4 0.7 -5.5
v 5.5 0.1 -4.4
v 5.5 0.1 -4.5
v 5.5 0.1 -5.5
v 5.5 0.1 -5.6
v 5.5 0.2 -4.4
v 5.5 0.2 -4.5
v 5.5 0.2 -5.5
v 5.5 0.2 -5.6
v 5.5 0.6 -4.4
v 5.5 0.6 -4.5
v 5.5 0.6 -5.5
v 5.5 0.6 -5.6
v 5.5 0.7 -4.4
v 5.5 0.7 -4.5
v 5.5 0.7 -4.9
v 5.5 0.7 -5
v 5.5 0.7 -5.1
v 5.5 0.7 -5.5
v 5.5 0.7 -5.6
v 5.5 0.8 -4.5
v 5.5 0.8 -4.9
v 5.5 0.8 -5
v 5.5 0.8 -5.1
v 5.6 0.6 -5.1
v 5.6 0.6 -5.2
v 5.6 0.6 -5.3
v 5.6 0.7 -5.1
v 5.6 0.7 -5.2
v 5.6 0.7 -5.3
v 5.6 0.8 -5.1
v 5.6 0.8 -5.3
v 5.7 0.6 -4.9
v 5.7 0.6 -5
v 5.7 0.7 -4.9
v 5.7 0.7 -5
v 5.8 0.6 -4.8
v 5.8 0.6 -4.9
v 5.8 0.6 -5.2
v 5.8 0.6 -5.3
v 5.8 0.6 -5.4
v 5.8 0.6 -5.5
v 5.8 0.7 -4.5
v 5.8 0.7 -4.6
v 5.8 0.7 -4.8
v 5.8 0.7 -4.9
v 5.8 0.7 -5.2
v 5.8 0.7 -5.3
v 5.8 0.7 -5.4
v 5.8 0.7 -5.5
v 5.8 0.8 -4.5
v 5.8 0.8 -4.6
v 5.9 0.6 -4.9
v 5.9 0.6 -5
v 5.9 0.7 -4.7
v 5.9 0.7 -4.8
v 5.9 0.7 -4.9
v 5.9 0.7 -5
v 5.9 0.7 -5.2
v 5.9 0.7 -5.3
v 5.9 0.7 -5.4
v 5.9 0.8 -4.7
v 5.9 0.8 -4.8
v 5.9 0.8 -5.2
v 5.9 0.8 -5.3
v 5.9 0.8 -5.4
v 6 0.7 -4.6
v 6 0.7 -4.7
v 6 0.8 -4.6
v 6 0.8 -4.7
v 6.1 0.6 -4.8
v 6.1 0.6 -4.9
v 6.1 0.7 -4.8
v 6.1 0.7 -4.9
v 6.2 0.2 -5.6
v 6.2 0.2 -5.7
v 6.2 0.4 -5.6
v 6.2 0.4 -5.7
v 6.3 0.4 -5.4
v 6.3 0.4 -5.7
v 6.3 0.5 -5.4
v 6.3 0.5 -5.7
v 5.3 0.4 -5.4
v 5.3 0.4 -5.7
v 5.3 0.5 -5.4
v 5.3 0.5 -5.7
v 5.4 0.2 -5.6
v 5.4 0.2 -5.7
v 5.4 0.4 -5.6
v 5.4 0.4 -5.7
v 5.5 0.6 -5.1
v 5.5 0.6 -5.3
v 5.5 0.7 -5.1
v 5.5 0.7 -5.3
v 5.6 0.6 -4.9
v 5.6 0.6 -5
v 5.6 0.6 -5.4
v 5.6 0.6 -5.5
v 5.6 0.7 -4.9
v 5.6 0.7 -5
v 5.6 0.7 -5.1
v 5.6 0.7 -5.4
v 5.6 0.7 -5.5
v 5.6 0.8 -5
v 5.6 0.8 -5.1
v 5.7 0.6 -4.8
v 5.7 0.6 -4.9
v 5.7 0.6 -5.2
v 5.7 0.6 -5.3
v 5.7 0.7 -4.5
v 5.7 0.7 -4.6
v 5.7 0.7 -4.7
v 5.7 0.7 -4.8
v 5.7 0.7 -4.9
v 5.7 0.7 -5.2
v 5.7 0.7 -5.3
v 5.7 0.8 -4.5
v 5.7 0.8 -4.7
v 5.7 0.8 -4.8
v 5.7 0.8 -4.9
v 5.7 0.8 -5.2
v 5.7 0.8 -5.3
v 5.8 0.6 -4.9
v 5.8 0.6 -5
v 5.8 0.7 -4.7
v 5.8 0.7 -4.8
v 5.8 0.7 -4.9
v 5.8 0.7 -5
v 5.8 0.7 -5.1
v 5.8 0.7 -5.2
v 5.8 0.8 -4.7
v 5.8 0.8 -4.8
v 5.8 0.8 -5.1
v 5.8 0.8 -5.2
v 5.9 0.7 -4.5
v 5.9 0.7 -4.6
v 5.9 0.8 -4.5
v 5.9 0.8 -4.6
v 6 0.6 -4.8
v 6 0.6 -4.9
v 6 0.7 -4.8
v 6 0.7 -4.9
v 6 0.7 -5.2
v 6 0.7 -5.3
v 6 0.8 -5.2
v 6 0.8 -5.3
v 6.1 0.1 -4.4
v 6.1 0.1 -4.5
v 6.1 0.1 -5.5
v 6.1 0.1 -5.6
v 6.1 0.2 -4.4
v 6.1 0.2 -4.5
v 6.1 0.2 -5.5
v 6.1 0.2 -5.6
v 6.1 0.6 -4.4
v 6.1 0.6 -4.5
v 6.1 0.6 -5.5
v 6.1 0.6 -5.6
v 6.1 0.7 -4.4
v 6.1 0.7 -4.5
v 6.1 0.7 -4.6
v 6.1 0.7 -4.8
v 6.1 0.7 -5.3
v 6.1 0.7 -5.4
v 6.1 0.7 -5.5
v 6.1 0.7 -5.6
v 6.1 0.8 -4.6
v 6.1 0.8 -4.8
v 6.1 0.8 -5.3
v 6.1 0.8 -5.4
v 6.2 0.1 -4.5
v 6.2 0.1 -5.5
v 6.2 0.2 -4.4
v 6.2 0.2 -4.5
v 6.2 0.2 -5
v 6.2 0.2 -5.5
v 6.2 0.3 -4.8
v 6.2 0.3 -5
v 6.2 0.4 -4.5
v 6.2 0.4 -4.8
v 6.2 0.4 -5.4
v 6.2 0.4 -5.6
v 6.2 0.5 -4.5
v 6.2 0.5 -5.4
v 6.2 0.6 -4.4
v 6.2 0.6 -4.5
v 6.2 0.6 -5.5
v 6.2 0.6 -5.6
v 6.2 0.7 -4.5
v 6.2 0.7 -5.5
v 6.3 0.2 -5
v 6.3 0.2 -5.6
v 6.3 0.3 -4.8
v 6.3 0.3 -5
v 6.3 0.3 -5.1
v 6.3 0.3 -5.6
v 6.3 0.4 -4.5
v 6.3 0.4 -4.8
v 6.3 0.4 -5.1
v 6.3 0.5 -4.5
v 6.3 0.5 -4.8
v 6.4 0.2 -5.6
v 6.4 0.2 -5.7
v 6.4 0.3 -5.1
v 6.4 0.3 -5.6
v 6.4 0.4 -4.8
v 6.4 0.4 -5.1
v 6.4 0.5 -4.8
v 6.4 0.5 -5.7
v 5.4 0.2 -4.4
v 5.4 0.6 -4.4
v 5.5 0.1 -4.4
v 5.5 0.2 -4.4
v 5.5 0.6 -4.4
v 5.5 0.7 -4.4
v 6.1 0.1 -4.4
v 6.1 0.2 -4.4
v 6.1 0.6 -4.4
v 6.1 0.7 -4.4
v 6.2 0.2 -4.4
v 6.2 0.6 -4.4
v 5.3 0.4 -4.5
v 5.3 0.5 -4.5
v 5.4 0.1 -4.5
v 5.4 0.2 -4.5
v 5.4 0.4 -4.5
v 5.4 0.5 -4.5
v 5.4 0.6 -4.5
v 5.4 0.7 -4.5
v 5.5 0.1 -4.5
v 5.5 0.2 -4.5
v 5.5 0.6 -4.5
v 5.5 0.7 -4.5
v 5.5 0.8 -4.5
v 5.7 0.7 -4.5
v 5.7 0.8 -4.5
v 5.8 0.7 -4.5
v 5.8 0.8 -4.5
v 5.9 0.7 -4.5
v 5.9 0.8 -4.5
v 6.1 0.1 -4.5
v 6.1 0.2 -4.5
v 6.1 0.6 -4.5
v 6.1 0.7 -4.5
v 6.2 0.1 -4.5
v 6.2 0.2 -4.5
v 6.2 0.4 -4.5
v 6.2 0.5 -4.5
v 6.2 0.6 -4.5
v 6.2 0.7 -4.5
v 6.3 0.4 -4.5
v 6.3 0.5 -4.5
v 6 0.7 -4.6
v 6 0.8 -4.6
v 6.1 0.7 -4.6
v 6.1 0.8 -4.6
v 5.7 0.7 -4.7
v 5.7 0.8 -4.7
v 5.8 0.7 -4.7
v 5.8 0.8 -4.7
v 5.9 0.7 -4.7
v 5.9 0.8 -4.7
v 6 0.7 -4.7
v 6 0.8 -4.7
v 5.2 0.4 -4.8
v 5.2 0.5 -4.8
v 5.3 0.3 -4.8
v 5.3 0.4 -4.8
v 5.3 0.5 -4.8
v 5.4 0.3 -4.8
v 5.4 0.4 -4.8
v 6.2 0.3 -4.8
v 6.2 0.4 -4.8
v 6.3 0.3 -4.8
v 6.3 0.4 -4.8
v 6.3 0.5 -4.8
v 6.4 0.4 -4.8
v 6.4 0.5 -4.8
v 5.7 0.6 -4.9
v 5.7 0.7 -4.9
v 5.8 0.6 -4.9
v 5.8 0.7 -4.9
v 6 0.6 -4.9
v 6 0.7 -4.9
v 6.1 0.6 -4.9
v 6.1 0.7 -4.9
v 5.3 0.2 -5
v 5.3 0.3 -5
v 5.4 0.2 -5
v 5.4 0.3 -5
v 5.5 0.7 -5
v 5.5 0.8 -5
v 5.6 0.6 -5
v 5.6 0.7 -5
v 5.6 0.8 -5
v 5.7 0.6 -5
v 5.7 0.7 -5
v 5.8 0.6 -5
v 5.8 0.7 -5
v 5.9 0.6 -5
v 5.9 0.7 -5
v 6.2 0.2 -5
v 6.2 0.3 -5
v 6.3 0.2 -5
v 6.3 0.3 -5
v 5.2 0.3 -5.1
v 5.2 0.4 -5.1
v 5.3 0.3 -5.1
v 5.3 0.4 -5.1
v 5.6 0.7 -5.1
v 5.6 0.8 -5.1
v 5.8 0.7 -5.1
v 5.8 0.8 -5.1
v 6.3 0.3 -5.1
v 6.3 0.4 -5.1
v 6.4 0.3 -5.1
v 6.4 0.4 -5.1
v 5.9 0.7 -5.2
v 5.9 0.8 -5.2
v 6 0.7 -5.2
v 6 0.8 -5.2
v 5.5 0.6 -5.3
v 5.5 0.7 -5.3
v 5.6 0.6 -5.3
v 5.6 0.7 -5.3
v 5.7 0.6 -5.3
v 5.7 0.7 -5.3
v 5.8 0.6 -5.3
v 5.8 0.7 -5.3
v 6 0.7 -5.3
v 6 0.8 -5.3
v 6.1 0.7 -5.3
v 6.1 0.8 -5.3
v 5.6 0.6 -5.5
v 5.6 0.7 -5.5
v 5.8 0.6 -5.5
v 5.8 0.7 -5.5
v 5.2 0.2 -5.6
v 5.2 0.3 -5.6
v 5.3 0.2 -5.6
v 5.3 0.3 -5.6
v 6.3 0.2 -5.6
v 6.3 0.3 -5.6
v 6.4 0.2 -5.6
v 6.4 0.3 -5.6
v 5.8 0.7 -4.6
v 5.8 0.8 -4.6
v 5.9 0.7 -4.6
v 5.9 0.8 -4.6
v 5.7 0.6 -4.8
v 5.7 0.7 -4.8
v 5.7 0.8 -4.8
v 5.8 0.6 -4.8
v 5.8 0.7 -4.8
v 5.8 0.8 -4.8
v 5.9 0.7 -4.8
v 5.9 0.8 -4.8
v 6 0.6 -4.8
v 6 0.7 -4.8
v 6.1 0.6 -4.8
v 6.1 0.7 -4.8
v 6.1 0.8 -4.8
v 5.5 0.7 -4.9
v 5.5 0.8 -4.9
v 5.6 0.6 -4.9
v 5.6 0.7 -4.9
v 5.7 0.6 -4.9
v 5.7 0.7 -4.9
v 5.7 0.8 -4.9
v 5.8 0.6 -4.9
v 5.8 0.7 -4.9
v 5.9 0.6 -4.9
v 5.9 0.7 -4.9
v 5.5 0.6 -5.1
v 5.5 0.7 -5.1
v 5.5 0.8 -5.1
v 5.6 0.6 -5.1
v 5.6 0.7 -5.1
v 5.6 0.8 -5.1
v 5.7 0.6 -5.2
v 5.7 0.7 -5.2
v 5.7 0.8 -5.2
v 5.8 0.6 -5.2
v 5.8 0.7 -5.2
v 5.8 0.8 -5.2
v 5.6 0.7 -5.3
v 5.6 0.8 -5.3
v 5.7 0.7 -5.3
v 5.7 0.8 -5.3
v 5.3 0.4 -5.4
v 5.3 0.5 -5.4
v 5.4 0.4 -5.4
v 5.4 0.5 -5.4
v 5.6 0.6 -5.4
v 5.6 0.7 -5.4
v 5.8 0.6 -5.4
v 5.8 0.7 -5.4
v 5.9 0.7 -5.4
v 5.9 0.8 -5.4
v 6 0.7 -5.4
v 6.1 0.7 -5.4
v 6.1 0.8 -5.4
v 6.2 0.4 -5.4
v 6.2 0.5 -5.4
v 6.3 0.4 -5.4
v 6.3 0.5 -5.4
v 5.4 0.1 -5.5
v 5.4 0.2 -5.5
v 5.4 0.6 -5.5
v 5.4 0.7 -5.5
v 5.5 0.1 -5.5
v 5.5 0.2 -5.5
v 5.5 0.6 -5.5
v 5.5 0.7 -5.5
v 6.1 0.1 -5.5
v 6.1 0.2 -5.5
v 6.1 0.6 -5.5
v 6.1 0.7 -5.5
v 6.2 0.1 -5.5
v 6.2 0.2 -5.5
v 6.2 0.6 -5.5
v 6.2 0.7 -5.5
v 5.4 0.2 -5.6
v 5.4 0.4 -5.6
v 5.4 0.6 -5.6
v 5.5 0.1 -5.6
v 5.5 0.2 -5.6
v 5.5 0.6 -5.6
v 5.5 0.7 -5.6
v 6.1 0.1 -5.6
v 6.1 0.2 -5.6
v 6.1 0.6 -5.6
v 6.1 0.7 -5.6
v 6.2 0.2 -5.6
v 6.2 0.4 -5.6
v 6.2 0.6 -5.6
v 5.2 0.2 -5.7
v 5.2 0.5 -5.7
v 5.3 0.4 -5.7
v 5.3 0.5 -5.7
v 5.4 0.2 -5.7
v 5.4 0.4 -5.7
v 6.2 0.2 -5.7
v 6.2 0.4 -5.7
v 6.3 0.4 -5.7
v 6.3 0.5 -5.7
v 6.4 0.2 -5.7
v 6.4 0.5 -5.7
v 5.5 0.1 -4.4
v 6.1 0.1 -4.4
v 5.4 0.1 -4.5
v 5.5 0.1 -4.5
v 6.1 0.1 -4.5
v 6.2 0.1 -4.5
v 5.4 0.1 -5.5
v 5.5 0.1 -5.5
v 6.1 0.1 -5.5
v 6.2 0.1 -5.5
v 5.5 0.1 -5.6
v 6.1 0.1 -5.6
v 5.4 0.2 -4.4
v 5.5 0.2 -4.4
v 6.1 0.2 -4.4
v 6.2 0.2 -4.4
v 5.4 0.2 -4.5
v 5.5 0.2 -4.5
v 6.1 0.2 -4.5
v 6.2 0.2 -4.5
v 5.3 0.2 -5
v 5.4 0.2 -5
v 6.2 0.2 -5
v 6.3 0.2 -5
v 5.4 0.2 -5.5
v 5.5 0.2 -5.5
v 6.1 0.2 -5.5
v 6.2 0.2 -5.5
v 5.2 0.2 -5.6
v 5.3 0.2 -5.6
v 5.4 0.2 -5.6
v 5.5 0.2 -5.6
v 6.1 0.2 -5.6
v 6.2 0.2 -5.6
v 6.3 0.2 -5.6
v 6.4 0.2 -5.6
v 5.2 0.2 -5.7
v 5.4 0.2 -5.7
v 6.2 0.2 -5.7
v 6.4 0.2 -5.7
v 5.3 0.3 -4.8
v 5.4 0.3 -4.8
v 6.2 0.3 -4.8
v 6.3 0.3 -4.8
v 5.3 0.3 -5
v 5.4 0.3 -5
v 6.2 0.3 -5
v 6.3 0.3 -5
v 5.2 0.3 -5.1
v 5.3 0.3 -5.1
v 6.3 0.3 -5.1
v 6.4 0.3 -5.1
v 5.2 0.3 -5.6
v 5.3 0.3 -5.6
v 6.3 0.3 -5.6
v 6.4 0.3 -5.6
v 5.3 0.4 -4.5
v 5.4 0.4 -4.5
v 6.2 0.4 -4.5
v 6.3 0.4 -4.5
v 5.2 0.4 -4.8
v 5.3 0.4 -4.8
v 5.4 0.4 -4.8
v 6.2 0.4 -4.8
v 6.3 0.4 -4.8
v 6.4 0.4 -4.8
v 5.2 0.4 -5.1
v 5.3 0.4 -5.1
v 6.3 0.4 -5.1
v 6.4 0.4 -5.1
v 5.3 0.4 -5.4
v 5.4 0.4 -5.4
v 6.2 0.4 -5.4
v 6.3 0.4 -5.4
v 5.4 0.4 -5.6
v 6.2 0.4 -5.6
v 5.3 0.4 -5.7
v 5.4 0.4 -5.7
v 6.2 0.4 -5.7
v 6.3 0.4 -5.7
v 5.3 0.5 -4.5
v 5.4 0.5 -4.5
v 6.2 0.5 -4.5
v 6.3 0.5 -4.5
v 5.2 0.5 -4.8
v 5.3 0.5 -4.8
v 6.3 0.5 -4.8
v 6.4 0.5 -4.8
v 5.3 0.5 -5.4
v 5.4 0.5 -5.4
v 6.2 0.5 -5.4
v 6.3 0.5 -5.4
v 5.2 0.5 -5.7
v 5.3 0.5 -5.7
v 6.3 0.5 -5.7
v 6.4 0.5 -5.7
v 5.4 0.6 -4.4
v 5.5 0.6 -4.4
v 6.1 0.6 -4.4
v 6.2 0.6 -4.4
v 5.4 0.6 -4.5
v 5.5 0.6 -4.5
v 6.1 0.6 -4.5
v 6.2 0.6 -4.5
v 5.7 0.6 -4.8
v 5.8 0.6 -4.8
v 6 0.6 -4.8
v 6.1 0.6 -4.8
v 5.6 0.6 -4.9
v 5.7 0.6 -4.9
v 5.8 0.6 -4.9
v 5.9 0.6 -4.9
v 6 0.6 -4.9
v 6.1 0.6 -4.9
v 5.6 0.6 -5
v 5.7 0.6 -5
v 5.8 0.6 -5
v 5.9 0.6 -5
v 5.5 0.6 -5.1
v 5.6 0.6 -5.1
v 5.6 0.6 -5.2
v 5.7 0.6 -5.2
v 5.8 0.6 -5.2
v 5.5 0.6 -5.3
v 5.6 0.6 -5.3
v 5.7 0.6 -5.3
v 5.8 0.6 -5.3
v 5.6 0.6 -5.4
v 5.8 0.6 -5.4
v 5.4 0.6 -5.5
v 5.5 0.6 -5.5
v 5.6 0.6 -5.5
v 5.8 0.6 -5.5
v 6.1 0.6 -5.5
v 6.2 0.6 -5.5
v 5.4 0.6 -5.6
v 5.5 0.6 -5.6
v 6.1 0.6 -5.6
v 6.2 0.6 -5.6
v 5.5 0.7 -4.4
v 6.1 0.7 -4.4
v 5.4 0.7 -4.5
v 5.5 0.7 -4.5
v 5.7 0.7 -4.5
v 5.8 0.7 -4.5
v 5.9 0.7 -4.5
v 6 0.7 -4.5
v 6.1 0.7 -4.5
v 6.2 0.7 -4.5
v 5.7 0.7 -4.6
v 5.8 0.7 -4.6
v 5.9 0.7 -4.6
v 6 0.7 -4.6
v 6.1 0.7 -4.6
v 5.7 0.7 -4.7
v 5.8 0.7 -4.7
v 5.9 0.7 -4.7
v 6 0.7 -4.7
v 5.8 0.7 -4.8
v 5.9 0.7 -4.8
v 6 0.7 -4.8
v 6.1 0.7 -4.8
v 5.5 0.7 -4.9
v 5.6 0.7 -4.9
v 5.7 0.7 -4.9
v 5.8 0.7 -4.9
v 5.9 0.7 -4.9
v 6 0.7 -4.9
v 6.1 0.7 -4.9
v 5.5 0.7 -5
v 5.6 0.7 -5
v 5.7 0.7 -5
v 5.8 0.7 -5
v 5.9 0.7 -5
v 5.5 0.7 -5.1
v 5.6 0.7 -5.1
v 5.8 0.7 -5.1
v 5.8 0.7 -5.2
v 5.9 0.7 -5.2
v 6 0.7 -5.2
v 5.5 0.7 -5.3
v 5.6 0.7 -5.3
v 5.7 0.7 -5.3
v 5.8 0.7 -5.3
v 5.9 0.7 -5.3
v 6 0.7 -5.3
v 6.1 0.7 -5.3
v 5.5 0.7 -5.4
v 5.6 0.7 -5.4
v 5.8 0.7 -5.4
v 5.9 0.7 -5.4
v 6 0.7 -5.4
v 6.1 0.7 -5.4
v 5.4 0.7 -5.5
v 5.5 0.7 -5.5
v 5.6 0.7 -5.5
v 5.8 0.7 -5.5
v 6 0.7 -5.5
v 6.1 0.7 -5.5
v 6.2 0.7 -5.5
v 5.5 0.7 -5.6
v 6.1 0.7 -5.6
v 5.5 0.8 -4.5
v 5.7 0.8 -4.5
v 5.8 0.8 -4.5
v 5.9 0.8 -4.5
v 5.8 0.8 -4.6
v 5.9 0.8 -4.6
v 6 0.8 -4.6
v 6.1 0.8 -4.6
v 5.7 0.8 -4.7
v 5.8 0.8 -4.7
v 5.9 0.8 -4.7
v 6 0.8 -4.7
v 5.7 0.8 -4.8
v 5.8 0.8 -4.8
v 5.9 0.8 -4.8
v 6.1 0.8 -4.8
v 5.5 0.8 -4.9
v 5.7 0.8 -4.9
v 5.5 0.8 -5
v 5.6 0.8 -5
v 5.5 0.8 -5.1
v 5.6 0.8 -5.1
v 5.8 0.8 -5.1
v 5.7 0.8 -5.2
v 5.8 0.8 -5.2
v 5.9 0.8 -5.2
v 6 0.8 -5.2
v 5.6 0.8 -5.3
v 5.7 0.8 -5.3
v 5.9 0.8 -5.3
v 6 0.8 -5.3
v 6.1 0.8 -5.3
v 5.9 0.8 -5.4
v 6.1 0.8 -5.4

# faces
f 4/5/1 2/5/1 1/5/1
f 6/5/1 4/5/1 3/5/1
f 7/5/1 6/5/1 5/5/1
f 8/5/1 2/5/1 4/5/1
f 8/5/1 6/5/1 7/5/1
f 8/5/1 4/5/1 6/5/1
f 12/5/1 10/5/1 9/5/1
f 13/5/1 10/5/1 12/5/1
f 14/5/1 10/5/1 13/5/1
f 16/5/1 12/5/1 11/5/1
f 16/5/1 13/5/1 12/5/1
f 17/5/1 13/5/1 16/5/1
f 18/5/1 16/5/1 15/5/1
f 19/5/1 16/5/1 18/5/1
f 23/4/1 21/4/1 20/4/1
f 24/4/1 21/4/1 23/4/1
f 25/4/1 21/4/1 24/4/1
f 26/4/1 23/4/1 22/4/1
f 26/4/1 24/4/1 23/4/1
f 27/4/1 24/4/1 26/4/1
f 28/4/1 26/4/1 22/4/1
f 29/4/1 26/4/1 28/4/1
f 32/4/1 28/4/1 22/4/1
f 33/4/1 31/4/1 30/4/1
f 34/4/1 32/4/1 22/4/1
f 34/4/1 33/4/1 32/4/1
f 35/4/1 33/4/1 34/4/1
f 36/4/1 31/4/1 33/4/1
f 36/4/1 33/4/1 35/4/1
f 37/4/1 31/4/1 36/4/1
f 38/4/1 36/4/1 35/4/1
f 39/4/1 36/4/1 38/4/1
f 44/4/1 41/4/1 40/4/1
f 45/4/1 41/4/1 44/4/1
f 46/4/1 43/4/1 42/4/1
f 47/4/1 43/4/1 46/4/1
f 52/4/1 49/4/1 48/4/1
f 53/4/1 49/4/1 52/4/1
f 57/4/1 51/4/1 50/4/1
f 58/4/1 51/4/1 57/4/1
f 59/2/1 54/2/1 53/2/1
f 60/2/1 54/2/1 59/2/1
f 61/1/1 56/1/1 55/1/1
f 62/1/1 56/1/1 61/1/1
f 66/1/1 64/1/1 63/1/1
f 67/2/1 65/2/1 64/2/1
f 67/1/1 64/1/1 66/1/1
f 68/2/1 65/2/1 67/2/1
f 69/2/1 67/2/1 66/2/1
f 69/2/1 68/2/1 67/2/1
f 70/2/1 68/2/1 69/2/1
f 73/1/1 72/1/1 71/1/1
f 74/1/1 72/1/1 73/1/1
f 83/2/1 76/2/1 75/2/1
f 84/2/1 76/2/1 83/2/1
f 85/1/1 78/1/1 77/1/1
f 86/1/1 78/1/1 85/1/1
f 87/2/1 80/2/1 79/2/1
f 88/2/1 80/2/1 87/2/1
f 89/1/1 82/1/1 81/1/1
f 90/1/1 82/1/1 89/1/1
f 95/1/1 92/1/1 91/1/1
f 96/1/1 92/1/1 95/1/1
f 100/2/1 94/2/1 93/2/1
f 101/2/1 94/2/1 100/2/1
f 102/2/1 98/2/1 97/2/1
f 103/1/1 99/1/1 98/1/1
f 103/2/1 98/2/1 102/2/1
f 104/1/1 99/1/1 103/1/1
f 107/2/1 106/2/1 105/2/1
f 108/2/1 106/2/1 107/2/1
f 111/4/1 110/4/1 109/4/1
f 112/4/1 110/4/1 111/4/1
f 115/5/1 114/5/1 113/5/1
f 116/5/1 114/5/1 115/5/1
f 119/5/1 118/5/1 117/5/1
f 120/5/1 118/5/1 119/5/1
f 121/5/2 122/5/2 123/5/2
f 123/5/2 122/5/2 124/5/2
f 125/5/2 126/5/2 127/5/2
f 127/5/2 126/5/2 128/5/2
f 129/4/2 130/4/2 131/4/2
f 131/4/2 130/4/2 132/4/2
f 133/1/2 134/1/2 137/1/2
f 137/1/2 134/1/2 138/1/2
f 135/4/2 136/4/2 140/4/2
f 140/4/2 136/4/2 141/4/2
f 138/1/2 139/1/2 142/1/2
f 142/1/2 139/1/2 143/1/2
f 144/1/2 145/1/2 151/1/2
f 151/1/2 145/1/2 152/1/2
f 146/2/2 147/2/2 153/2/2
f 153/2/2 147/2/2 154/2/2
f 149/2/2 150/2/2 155/2/2
f 148/2/2 149/2/2 155/2/2
f 155/2/2 150/2/2 156/2/2
f 151/2/2 152/2/2 157/2/2
f 157/2/2 152/2/2 158/2/2
f 153/2/2 154/2/2 159/2/2
f 159/2/2 154/2/2 160/2/2
f 161/1/2 162/1/2 165/1/2
f 165/1/2 162/1/2 166/1/2
f 163/2/2 164/2/2 169/2/2
f 169/2/2 164/2/2 170/2/2
f 167/2/2 168/2/2 171/2/2
f 171/2/2 168/2/2 172/2/2
f 173/1/2 174/1/2 175/1/2
f 175/1/2 174/1/2 176/1/2
f 177/1/2 178/1/2 179/1/2
f 179/1/2 178/1/2 180/1/2
f 181/2/2 182/2/2 183/2/2
f 183/2/2 182/2/2 184/2/2
f 185/4/2 186/4/2 189/4/2
f 189/4/2 186/4/2 190/4/2
f 187/4/2 188/4/2 191/4/2
f 191/4/2 188/4/2 192/4/2
f 193/4/2 194/4/2 197/4/2
f 197/4/2 194/4/2 198/4/2
f 195/4/2 196/4/2 203/4/2
f 203/4/2 196/4/2 204/4/2
f 199/2/2 200/2/2 205/2/2
f 205/2/2 200/2/2 206/2/2
f 201/1/2 202/1/2 207/1/2
f 207/1/2 202/1/2 208/1/2
f 209/4/2 210/4/2 212/4/2
f 212/4/2 210/4/2 213/4/2
f 213/4/2 210/4/2 214/4/2
f 211/4/2 212/4/2 215/4/2
f 212/4/2 213/4/2 215/4/2
f 215/4/2 213/4/2 216/4/2
f 211/4/2 215/4/2 217/4/2
f 217/4/2 215/4/2 218/4/2
f 211/4/2 217/4/2 221/4/2
f 219/4/2 220/4/2 222/4/2
f 211/4/2 221/4/2 223/4/2
f 221/4/2 222/4/2 223/4/2
f 223/4/2 222/4/2 224/4/2
f 222/4/2 220/4/2 225/4/2
f 224/4/2 222/4/2 225/4/2
f 225/4/2 220/4/2 226/4/2
f 224/4/2 225/4/2 227/4/2
f 227/4/2 225/4/2 228/4/2
f 229/5/2 230/5/2 232/5/2
f 232/5/2 230/5/2 233/5/2
f 233/5/2 230/5/2 234/5/2
f 231/5/2 232/5/2 236/5/2
f 232/5/2 233/5/2 236/5/2
f 236/5/2 233/5/2 237/5/2
f 235/5/2 236/5/2 238/5/2
f 238/5/2 236/5/2 239/5/2
f 240/5/2 241/5/2 243/5/2
f 242/5/2 243/5/2 245/5/2
f 244/5/2 245/5/2 246/5/2
f 243/5/2 241/5/2 247/5/2
f 246/5/2 245/5/2 247/5/2
f 245/5/2 243/5/2 247/5/2
f 251/4/3 249/4/3 248/4/3
f 252/4/3 249/4/3 251/4/3
f 254/4/3 251/4/3 250/4/3
f 254/4/3 253/4/3 252/4/3
f 254/4/3 252/4/3 251/4/3
f 255/4/3 253/4/3 254/4/3
f 256/4/3 253/4/3 255/4/3
f 257/4/3 253/4/3 256/4/3
f 258/4/3 256/4/3 255/4/3
f 259/4/3 256/4/3 258/4/3
f 264/5/3 261/5/3 260/5/3
f 265/5/3 261/5/3 264/5/3
f 268/4/3 263/4/3 262/4/3
f 269/4/3 263/4/3 268/4/3
f 270/4/3 267/4/3 266/4/3
f 271/4/3 267/4/3 270/4/3
f 273/2/3 272/2/3 271/2/3
f 274/2/3 272/2/3 273/2/3
f 277/1/3 276/1/3 275/1/3
f 278/1/3 276/1/3 277/1/3
f 283/4/3 280/4/3 279/4/3
f 284/4/3 280/4/3 283/4/3
f 287/4/3 282/4/3 281/4/3
f 288/4/3 282/4/3 287/4/3
f 289/5/3 286/5/3 285/5/3
f 290/5/3 286/5/3 289/5/3
f 293/2/3 292/2/3 291/2/3
f 294/2/3 292/2/3 293/2/3
f 297/2/3 296/2/3 295/2/3
f 298/2/3 296/2/3 297/2/3
f 301/2/3 300/2/3 299/2/3
f 302/2/3 300/2/3 301/2/3
f 306/5/3 304/5/3 303/5/3
f 307/5/3 304/5/3 306/5/3
f 308/5/3 306/5/3 305/5/3
f 309/5/3 306/5/3 308/5/3
f 312/5/3 311/5/3 310/5/3
f 313/5/3 311/5/3 312/5/3
f 315/5/3 314/5/3 313/5/3
f 316/5/3 314/5/3 315/5/3
f 319/1/3 318/1/3 317/1/3
f 320/1/3 318/1/3 319/1/3
f 323/1/3 322/1/3 321/1/3
f 324/1/3 322/1/3 323/1/3
f 327/5/3 326/5/3 325/5/3
f 328/5/3 326/5/3 327/5/3
f 332/1/3 330/1/3 329/1/3
f 333/1/3 330/1/3 332/1/3
f 334/1/3 332/1/3 331/1/3
f 335/1/3 332/1/3 334/1/3
f 338/1/3 337/1/3 336/1/3
f 339/1/3 337/1/3 338/1/3
f 342/5/3 341/5/3 340/5/3
f 343/5/3 341/5/3 342/5/3
f 346/5/3 345/5/3 344/5/3
f 347/5/3 345/5/3 346/5/3
f 350/2/3 349/2/3 348/2/3
f 351/2/3 349/2/3 350/2/3
f 354/5/3 353/5/3 352/5/3
f 355/5/3 353/5/3 354/5/3
f 358/2/3 357/2/3 356/2/3
f 359/2/3 357/2/3 358/2/3
f 362/1/3 361/1/3 360/1/3
f 363/1/3 361/1/3 362/1/3
f 366/1/3 365/1/3 364/1/3
f 367/1/3 365/1/3 366/1/3
f 370/1/3 369/1/3 368/1/3
f 371/1/3 369/1/3 370/1/3
f 374/4/3 373/4/3 372/4/3
f 375/4/3 373/4/3 374/4/3
f 378/5/3 377/5/3 376/5/3
f 379/5/3 377/5/3 378/5/3
f 382/5/3 381/5/3 380/5/3
f 383/5/3 381/5/3 382/5/3
f 384/1/4 385/1/4 386/1/4
f 386/1/4 385/1/4 387/1/4
f 388/1/4 389/1/4 391/1/4
f 389/2/4 390/2/4 392/2/4
f 391/1/4 389/1/4 392/1/4
f 392/2/4 390/2/4 393/2/4
f 394/2/4 395/2/4 397/2/4
f 396/5/4 397/5/4 398/5/4
f 397/2/4 395/2/4 399/2/4
f 398/5/4 397/5/4 399/5/4
f 399/2/4 395/2/4 400/2/4
f 401/2/4 402/2/4 404/2/4
f 403/1/4 404/1/4 405/1/4
f 404/2/4 402/2/4 406/2/4
f 405/1/4 404/1/4 406/1/4
f 406/2/4 402/2/4 407/2/4
f 408/2/4 409/2/4 410/2/4
f 410/2/4 409/2/4 411/2/4
f 412/1/4 413/1/4 415/1/4
f 413/1/4 414/1/4 415/1/4
f 415/1/4 414/1/4 416/1/4
f 416/1/4 414/1/4 417/1/4
f 418/1/4 419/1/4 421/1/4
f 419/2/4 420/2/4 422/2/4
f 421/1/4 419/1/4 422/1/4
f 422/2/4 420/2/4 423/2/4
f 424/2/4 425/2/4 426/2/4
f 426/2/4 425/2/4 427/2/4
f 428/5/4 429/5/4 430/5/4
f 430/5/4 429/5/4 431/5/4
f 432/1/4 433/1/4 434/1/4
f 434/1/4 433/1/4 435/1/4
f 436/1/4 437/1/4 438/1/4
f 438/1/4 437/1/4 439/1/4
f 439/1/4 437/1/4 440/1/4
f 441/5/4 442/5/4 443/5/4
f 443/5/4 442/5/4 444/5/4
f 445/4/4 446/4/4 449/4/4
f 449/4/4 446/4/4 450/4/4
f 447/4/4 448/4/4 451/4/4
f 451/4/4 448/4/4 452/4/4
f 453/4/4 454/4/4 457/4/4
f 457/4/4 454/4/4 458/4/4
f 455/4/4 456/4/4 459/4/4
f 459/4/4 456/4/4 460/4/4
f 461/4/4 462/4/4 465/4/4
f 462/4/4 463/4/4 465/4/4
f 465/4/4 463/4/4 466/4/4
f 464/4/4 465/4/4 468/4/4
f 466/4/4 467/4/4 468/4/4
f 465/4/4 466/4/4 468/4/4
f 468/4/4 467/4/4 469/4/4
f 469/4/4 467/4/4 470/4/4
f 470/4/4 467/4/4 471/4/4
f 469/4/4 470/4/4 472/4/4
f 472/4/4 470/4/4 473/4/4
f 473/4/4 470/4/4 474/4/4
f 475/5/4 476/5/4 477/5/4
f 477/5/4 476/5/4 478/5/4
f 475/5/4 477/5/4 479/5/4
f 479/5/4 477/5/4 480/5/4
f 481/5/4 482/5/4 483/5/4
f 481/5/4 483/5/4 485/5/4
f 483/5/4 484/5/4 485/5/4
f 485/5/4 484/5/4 486/5/4
f 490/4/5 488/4/5 487/4/5
f 491/4/5 488/4/5 490/4/5
f 493/4/5 490/4/5 489/4/5
f 493/4/5 492/4/5 491/4/5
f 493/4/5 491/4/5 490/4/5
f 494/4/5 492/4/5 493/4/5
f 495/4/5 492/4/5 494/4/5
f 496/4/5 492/4/5 495/4/5
f 497/4/5 495/4/5 494/4/5
f 498/4/5 495/4/5 497/4/5
f 503/4/5 500/4/5 499/4/5
f 504/4/5 500/4/5 503/4/5
f 505/4/5 502/4/5 501/4/5
f 506/4/5 502/4/5 505/4/5
f 511/5/5 508/5/5 507/5/5
f 514/5/5 510/5/5 509/5/5
f 516/5/5 511/5/5 507/5/5
f 517/4/5 512/4/5 511/4/5
f 517/5/5 511/5/5 516/5/5
f 518/4/5 512/4/5 517/4/5
f 519/4/5 514/4/5 513/4/5
f 520/5/5 510/5/5 514/5/5
f 520/4/5 514/4/5 519/4/5
f 521/5/5 510/5/5 520/5/5
f 523/5/5 516/5/5 515/5/5
f 523/5/5 517/5/5 516/5/5
f 524/5/5 517/5/5 523/5/5
f 525/5/5 522/5/5 521/5/5
f 525/5/5 521/5/5 520/5/5
f 526/5/5 522/5/5 525/5/5
f 531/5/5 528/5/5 527/5/5
f 532/5/5 528/5/5 531/5/5
f 533/5/5 530/5/5 529/5/5
f 534/5/5 530/5/5 533/5/5
f 539/5/5 536/5/5 535/5/5
f 540/5/5 536/5/5 539/5/5
f 541/5/5 538/5/5 537/5/5
f 542/5/5 538/5/5 541/5/5
f 548/5/5 544/5/5 543/5/5
f 549/5/5 544/5/5 548/5/5
f 550/5/5 546/5/5 545/5/5
f 551/5/5 546/5/5 550/5/5
f 553/5/5 548/5/5 547/5/5
f 554/5/5 548/5/5 553/5/5
f 555/5/5 552/5/5 551/5/5
f 556/5/5 552/5/5 555/5/5
f 557/5/6 558/5/6 561/5/6
f 559/5/6 560/5/6 562/5/6
f 557/5/6 561/5/6 563/5/6
f 563/5/6 561/5/6 564/5/6
f 562/5/6 560/5/6 565/5/6
f 565/5/6 560/5/6 566/5/6
f 567/5/6 568/5/6 572/5/6
f 569/5/6 570/5/6 573/5/6
f 571/5/6 572/5/6 575/5/6
f 572/5/6 568/5/6 575/5/6
f 575/5/6 568/5/6 576/5/6
f 573/5/6 574/5/6 577/5/6
f 569/5/6 573/5/6 577/5/6
f 577/5/6 574/5/6 578/5/6
f 571/5/6 575/5/6 579/5/6
f 579/5/6 575/5/6 580/5/6
f 578/5/6 574/5/6 581/5/6
f 581/5/6 574/5/6 582/5/6
f 583/4/6 584/4/6 587/4/6
f 587/4/6 584/4/6 588/4/6
f 585/4/6 586/4/6 589/4/6
f 589/4/6 586/4/6 590/4/6
f 591/2/6 592/2/6 596/2/6
f 596/2/6 592/2/6 597/2/6
f 593/2/6 594/2/6 599/2/6
f 599/2/6 594/2/6 600/2/6
f 595/2/6 596/2/6 601/2/6
f 601/2/6 596/2/6 602/2/6
f 597/2/6 598/2/6 603/2/6
f 603/2/6 598/2/6 604/2/6
f 605/2/6 606/2/6 607/2/6
f 605/2/6 607/2/6 610/2/6
f 610/2/6 607/2/6 611/2/6
f 608/2/6 609/2/6 612/2/6
f 612/2/6 609/2/6 613/2/6
f 614/2/6 615/2/6 618/2/6
f 618/2/6 615/2/6 619/2/6
f 616/4/6 617/4/6 622/4/6
f 622/4/6 617/4/6 623/4/6
f 620/4/6 621/4/6 624/4/6
f 624/4/6 621/4/6 625/4/6
f 626/4/6 627/4/6 629/4/6
f 629/4/6 627/4/6 630/4/6
f 630/4/6 627/4/6 631/4/6
f 631/4/6 627/4/6 632/4/6
f 632/4/6 627/4/6 633/4/6
f 633/4/6 627/4/6 634/4/6
f 630/2/6 631/2/6 636/2/6
f 636/2/6 631/2/6 637/2/6
f 632/1/6 633/1/6 638/1/6
f 634/4/6 635/4/6 639/4/6
f 633/4/6 634/4/6 639/4/6
f 638/1/6 633/1/6 639/1/6
f 639/4/6 635/4/6 640/4/6
f 637/1/6 638/1/6 641/1/6
f 636/1/6 637/1/6 641/1/6
f 638/1/6 639/1/6 641/1/6
f 641/1/6 639/1/6 642/1/6
f 642/1/6 639/1/6 643/1/6
f 643/1/6 639/1/6 644/1/6
f 642/1/6 643/1/6 645/1/6
f 645/1/6 643/1/6 646/1/6
f 640/4/6 635/4/6 648/4/6
f 628/4/6 629/4/6 649/4/6
f 645/2/6 646/2/6 652/2/6
f 646/1/6 647/1/6 653/1/6
f 652/2/6 646/2/6 653/2/6
f 653/1/6 647/1/6 654/1/6
f 648/4/6 635/4/6 655/4/6
f 649/1/6 650/1/6 656/1/6
f 628/4/6 649/4/6 656/4/6
f 656/1/6 650/1/6 657/1/6
f 651/1/6 652/1/6 658/1/6
f 658/1/6 652/1/6 659/1/6
f 653/1/6 654/1/6 660/1/6
f 654/1/6 655/1/6 660/1/6
f 628/4/6 656/4/6 661/4/6
f 658/1/6 659/1/6 662/1/6
f 659/1/6 660/1/6 662/1/6
f 657/1/6 658/1/6 662/1/6
f 662/1/6 660/1/6 663/1/6
f 663/1/6 660/1/6 664/1/6
f 660/1/6 655/1/6 665/1/6
f 664/1/6 660/1/6 665/1/6
f 665/1/6 655/1/6 666/1/6
f 628/4/6 661/4/6 667/4/6
f 664/1/6 665/1/6 670/1/6
f 670/1/6 665/1/6 671/1/6
f 666/1/6 655/1/6 672/1/6
f 655/4/6 635/4/6 673/4/6
f 672/1/6 655/1/6 673/1/6
f 670/1/6 671/1/6 674/1/6
f 668/1/6 669/1/6 674/1/6
f 669/1/6 670/1/6 674/1/6
f 628/4/6 667/4/6 674/4/6
f 667/1/6 668/1/6 674/1/6
f 674/1/6 671/1/6 675/1/6
f 675/1/6 671/1/6 676/1/6
f 676/1/6 671/1/6 677/1/6
f 673/4/6 635/4/6 679/4/6
f 628/4/6 674/4/6 680/4/6
f 674/4/6 675/4/6 680/4/6
f 680/4/6 675/4/6 681/4/6
f 681/4/6 675/4/6 682/4/6
f 677/2/6 678/2/6 683/2/6
f 676/2/6 677/2/6 683/2/6
f 678/4/6 679/4/6 684/4/6
f 683/2/6 678/2/6 684/2/6
f 679/4/6 635/4/6 685/4/6
f 684/4/6 679/4/6 685/4/6
f 685/4/6 635/4/6 686/4/6
f 681/4/6 682/4/6 687/4/6
f 682/4/6 683/4/6 687/4/6
f 684/4/6 685/4/6 687/4/6
f 683/4/6 684/4/6 687/4/6
f 687/4/6 685/4/6 688/4/6
f 691/1/6 692/1/6 693/1/6
f 693/1/6 692/1/6 694/1/6
f 689/2/6 690/2/6 697/2/6
f 695/2/6 696/2/6 700/2/6
f 697/2/6 698/2/6 701/2/6
f 689/2/6 697/2/6 701/2/6
f 701/2/6 698/2/6 702/2/6
f 699/2/6 700/2/6 703/2/6
f 700/2/6 696/2/6 704/2/6
f 703/2/6 700/2/6 704/2/6
f 689/2/6 701/2/6 705/2/6
f 705/2/6 701/2/6 706/2/6
f 707/1/6 708/1/6 709/1/6
f 709/1/6 708/1/6 710/1/6
f 710/2/6 711/2/6 712/2/6
f 712/2/6 711/2/6 713/2/6
f 710/2/6 712/2/6 716/2/6
f 716/2/6 712/2/6 717/2/6
f 714/2/6 715/2/6 718/2/6
f 718/2/6 715/2/6 719/2/6
f 719/1/6 720/1/6 721/1/6
f 718/1/6 719/1/6 721/1/6
f 721/1/6 720/1/6 722/1/6
