# MagicaVoxel @ Ephtracy

# group
o 

# material
mtllib Robot.vox-27.mtl
usemtl palette

# normals
vn -1 0 0
vn 1 0 0
vn 0 0 1
vn 0 0 -1
vn 0 -1 0
vn 0 1 0

# texcoords
vt 0.697266 0.5
vt 0.728516 0.5
vt 0.916016 0.5
vt 0.970703 0.5
vt 0.978516 0.5

# verts
v 5.2 0.2 -6.9
v 5.2 0.2 -7
v 5.2 0.3 -6.4
v 5.2 0.3 -6.9
v 5.2 0.4 -6.1
v 5.2 0.4 -6.4
v 5.2 0.5 -6.1
v 5.2 0.5 -7
v 5.3 0.2 -6.3
v 5.3 0.2 -6.9
v 5.3 0.3 -6.1
v 5.3 0.3 -6.3
v 5.3 0.3 -6.4
v 5.3 0.3 -6.9
v 5.3 0.4 -5.8
v 5.3 0.4 -6.1
v 5.3 0.4 -6.4
v 5.3 0.5 -5.8
v 5.3 0.5 -6.1
v 5.4 0.1 -5.8
v 5.4 0.1 -6.8
v 5.4 0.2 -5.7
v 5.4 0.2 -5.8
v 5.4 0.2 -6.3
v 5.4 0.2 -6.8
v 5.4 0.3 -6.1
v 5.4 0.3 -6.3
v 5.4 0.4 -5.8
v 5.4 0.4 -6.1
v 5.4 0.4 -6.7
v 5.4 0.4 -6.9
v 5.4 0.5 -5.8
v 5.4 0.5 -6.7
v 5.4 0.6 -5.7
v 5.4 0.6 -5.8
v 5.4 0.6 -6.8
v 5.4 0.6 -6.9
v 5.4 0.7 -5.8
v 5.4 0.7 -6.8
v 5.5 0.1 -5.7
v 5.5 0.1 -5.8
v 5.5 0.1 -6.8
v 5.5 0.1 -6.9
v 5.5 0.2 -5.7
v 5.5 0.2 -5.8
v 5.5 0.2 -6.8
v 5.5 0.2 -6.9
v 5.5 0.6 -5.7
v 5.5 0.6 -5.8
v 5.5 0.6 -6.8
v 5.5 0.6 -6.9
v 5.5 0.7 -5.7
v 5.5 0.7 -5.8
v 5.5 0.7 -6
v 5.5 0.7 -6.1
v 5.5 0.7 -6.8
v 5.5 0.7 -6.9
v 5.5 0.8 -6
v 5.5 0.8 -6.1
v 5.6 0.6 -6.2
v 5.6 0.6 -6.3
v 5.6 0.7 -6.2
v 5.6 0.7 -6.3
v 5.7 0.6 -5.9
v 5.7 0.6 -6
v 5.7 0.6 -6.7
v 5.7 0.6 -6.8
v 5.7 0.7 -5.9
v 5.7 0.7 -6
v 5.7 0.7 -6.1
v 5.7 0.7 -6.3
v 5.7 0.7 -6.4
v 5.7 0.7 -6.5
v 5.7 0.7 -6.6
v 5.7 0.7 -6.7
v 5.7 0.7 -6.8
v 5.7 0.8 -6.1
v 5.7 0.8 -6.3
v 5.7 0.8 -6.4
v 5.7 0.8 -6.5
v 5.7 0.8 -6.6
v 5.7 0.8 -6.7
v 5.8 0.6 -5.8
v 5.8 0.6 -5.9
v 5.8 0.7 -5.8
v 5.8 0.7 -5.9
v 5.8 0.7 -6
v 5.8 0.8 -5.9
v 5.8 0.8 -6
v 5.9 0.6 -6.4
v 5.9 0.6 -6.5
v 5.9 0.6 -6.6
v 5.9 0.6 -6.7
v 5.9 0.7 -5.8
v 5.9 0.7 -5.9
v 5.9 0.7 -6.3
v 5.9 0.7 -6.4
v 5.9 0.7 -6.5
v 5.9 0.7 -6.6
v 5.9 0.7 -6.7
v 5.9 0.8 -5.8
v 5.9 0.8 -5.9
v 5.9 0.8 -6.3
v 5.9 0.8 -6.4
v 5.9 0.8 -6.6
v 5.9 0.8 -6.7
v 6 0.7 -6.1
v 6 0.7 -6.2
v 6 0.7 -6.4
v 6 0.7 -6.5
v 6 0.8 -6.1
v 6 0.8 -6.2
v 6 0.8 -6.4
v 6 0.8 -6.5
v 6.1 0.6 -6
v 6.1 0.6 -6.1
v 6.1 0.6 -6.6
v 6.1 0.6 -6.7
v 6.1 0.7 -6
v 6.1 0.7 -6.1
v 6.1 0.7 -6.6
v 6.1 0.7 -6.7
v 6.2 0.2 -6.9
v 6.2 0.2 -7
v 6.2 0.4 -6.9
v 6.2 0.4 -7
v 6.3 0.4 -6.7
v 6.3 0.4 -7
v 6.3 0.5 -6.7
v 6.3 0.5 -7
v 5.3 0.4 -6.7
v 5.3 0.4 -7
v 5.3 0.5 -6.7
v 5.3 0.5 -7
v 5.4 0.2 -6.9
v 5.4 0.2 -7
v 5.4 0.4 -6.9
v 5.4 0.4 -7
v 5.5 0.6 -5.9
v 5.5 0.6 -6
v 5.5 0.6 -6.2
v 5.5 0.6 -6.3
v 5.5 0.7 -5.9
v 5.5 0.7 -6
v 5.5 0.7 -6.2
v 5.5 0.7 -6.3
v 5.6 0.6 -6.7
v 5.6 0.6 -6.8
v 5.6 0.7 -6.7
v 5.6 0.7 -6.8
v 5.7 0.6 -5.8
v 5.7 0.6 -5.9
v 5.7 0.7 -5.8
v 5.7 0.7 -5.9
v 5.8 0.6 -6.4
v 5.8 0.6 -6.5
v 5.8 0.6 -6.6
v 5.8 0.6 -6.7
v 5.8 0.7 -6.1
v 5.8 0.7 -6.2
v 5.8 0.7 -6.4
v 5.8 0.7 -6.5
v 5.8 0.7 -6.6
v 5.8 0.7 -6.7
v 5.8 0.8 -6.1
v 5.8 0.8 -6.2
v 5.8 0.8 -6.4
v 5.8 0.8 -6.5
v 5.8 0.8 -6.6
v 5.8 0.8 -6.7
v 6 0.6 -6
v 6 0.6 -6.1
v 6 0.6 -6.6
v 6 0.6 -6.7
v 6 0.7 -5.9
v 6 0.7 -6
v 6 0.7 -6.1
v 6 0.7 -6.3
v 6 0.7 -6.4
v 6 0.7 -6.6
v 6 0.7 -6.7
v 6 0.8 -5.9
v 6 0.8 -6
v 6 0.8 -6.1
v 6 0.8 -6.3
v 6 0.8 -6.4
v 6 0.8 -6.6
v 6 0.8 -6.7
v 6.1 0.1 -5.7
v 6.1 0.1 -5.8
v 6.1 0.1 -6.8
v 6.1 0.1 -6.9
v 6.1 0.2 -5.7
v 6.1 0.2 -5.8
v 6.1 0.2 -6.8
v 6.1 0.2 -6.9
v 6.1 0.6 -5.7
v 6.1 0.6 -5.8
v 6.1 0.6 -6.8
v 6.1 0.6 -6.9
v 6.1 0.7 -5.7
v 6.1 0.7 -5.8
v 6.1 0.7 -6.1
v 6.1 0.7 -6.3
v 6.1 0.7 -6.4
v 6.1 0.7 -6.5
v 6.1 0.7 -6.8
v 6.1 0.7 -6.9
v 6.1 0.8 -6.1
v 6.1 0.8 -6.3
v 6.1 0.8 -6.4
v 6.1 0.8 -6.5
v 6.2 0.1 -5.8
v 6.2 0.1 -6.8
v 6.2 0.2 -5.7
v 6.2 0.2 -5.8
v 6.2 0.2 -6.3
v 6.2 0.2 -6.8
v 6.2 0.3 -6.1
v 6.2 0.3 -6.3
v 6.2 0.4 -5.8
v 6.2 0.4 -6.1
v 6.2 0.4 -6.7
v 6.2 0.4 -6.9
v 6.2 0.5 -5.8
v 6.2 0.5 -6.7
v 6.2 0.6 -5.7
v 6.2 0.6 -5.8
v 6.2 0.6 -6.8
v 6.2 0.6 -6.9
v 6.2 0.7 -5.8
v 6.2 0.7 -5.9
v 6.2 0.7 -6.8
v 6.2 0.8 -5.8
v 6.2 0.8 -5.9
v 6.3 0.2 -6.3
v 6.3 0.2 -6.9
v 6.3 0.3 -6.1
v 6.3 0.3 -6.3
v 6.3 0.3 -6.4
v 6.3 0.3 -6.9
v 6.3 0.4 -5.8
v 6.3 0.4 -6.1
v 6.3 0.4 -6.4
v 6.3 0.5 -5.8
v 6.3 0.5 -6.1
v 6.4 0.2 -6.9
v 6.4 0.2 -7
v 6.4 0.3 -6.4
v 6.4 0.3 -6.9
v 6.4 0.4 -6.1
v 6.4 0.4 -6.4
v 6.4 0.5 -6.1
v 6.4 0.5 -7
v 5.4 0.2 -5.7
v 5.4 0.6 -5.7
v 5.5 0.1 -5.7
v 5.5 0.2 -5.7
v 5.5 0.6 -5.7
v 5.5 0.7 -5.7
v 6.1 0.1 -5.7
v 6.1 0.2 -5.7
v 6.1 0.6 -5.7
v 6.1 0.7 -5.7
v 6.2 0.2 -5.7
v 6.2 0.6 -5.7
v 5.3 0.4 -5.8
v 5.3 0.5 -5.8
v 5.4 0.1 -5.8
v 5.4 0.2 -5.8
v 5.4 0.4 -5.8
v 5.4 0.5 -5.8
v 5.4 0.6 -5.8
v 5.4 0.7 -5.8
v 5.5 0.1 -5.8
v 5.5 0.2 -5.8
v 5.5 0.6 -5.8
v 5.5 0.7 -5.8
v 5.9 0.7 -5.8
v 5.9 0.8 -5.8
v 6.1 0.1 -5.8
v 6.1 0.2 -5.8
v 6.1 0.6 -5.8
v 6.1 0.7 -5.8
v 6.2 0.1 -5.8
v 6.2 0.2 -5.8
v 6.2 0.4 -5.8
v 6.2 0.5 -5.8
v 6.2 0.6 -5.8
v 6.2 0.7 -5.8
v 6.2 0.8 -5.8
v 6.3 0.4 -5.8
v 6.3 0.5 -5.8
v 5.7 0.6 -5.9
v 5.7 0.7 -5.9
v 5.8 0.6 -5.9
v 5.8 0.7 -5.9
v 5.8 0.8 -5.9
v 5.9 0.7 -5.9
v 5.9 0.8 -5.9
v 5.5 0.6 -6
v 5.5 0.7 -6
v 5.5 0.8 -6
v 5.6 0.7 -6
v 5.6 0.8 -6
v 5.7 0.6 -6
v 5.7 0.7 -6
v 5.8 0.7 -6
v 5.8 0.8 -6
v 5.2 0.4 -6.1
v 5.2 0.5 -6.1
v 5.3 0.3 -6.1
v 5.3 0.4 -6.1
v 5.3 0.5 -6.1
v 5.4 0.3 -6.1
v 5.4 0.4 -6.1
v 6 0.6 -6.1
v 6 0.7 -6.1
v 6 0.8 -6.1
v 6.1 0.6 -6.1
v 6.1 0.7 -6.1
v 6.1 0.8 -6.1
v 6.2 0.3 -6.1
v 6.2 0.4 -6.1
v 6.3 0.3 -6.1
v 6.3 0.4 -6.1
v 6.3 0.5 -6.1
v 6.4 0.4 -6.1
v 6.4 0.5 -6.1
v 5.8 0.7 -6.2
v 5.8 0.8 -6.2
v 6 0.7 -6.2
v 6 0.8 -6.2
v 5.3 0.2 -6.3
v 5.3 0.3 -6.3
v 5.4 0.2 -6.3
v 5.4 0.3 -6.3
v 5.5 0.6 -6.3
v 5.5 0.7 -6.3
v 5.6 0.6 -6.3
v 5.6 0.7 -6.3
v 6.2 0.2 -6.3
v 6.2 0.3 -6.3
v 6.3 0.2 -6.3
v 6.3 0.3 -6.3
v 5.2 0.3 -6.4
v 5.2 0.4 -6.4
v 5.3 0.3 -6.4
v 5.3 0.4 -6.4
v 5.7 0.7 -6.4
v 5.7 0.8 -6.4
v 5.8 0.7 -6.4
v 5.8 0.8 -6.4
v 6 0.7 -6.4
v 6 0.8 -6.4
v 6.1 0.7 -6.4
v 6.1 0.8 -6.4
v 6.3 0.3 -6.4
v 6.3 0.4 -6.4
v 6.4 0.3 -6.4
v 6.4 0.4 -6.4
v 5.8 0.6 -6.5
v 5.8 0.7 -6.5
v 5.9 0.6 -6.5
v 5.9 0.7 -6.5
v 5.9 0.7 -6.6
v 5.9 0.8 -6.6
v 6 0.7 -6.6
v 6 0.8 -6.6
v 5.8 0.6 -6.7
v 5.8 0.7 -6.7
v 5.9 0.6 -6.7
v 5.9 0.7 -6.7
v 6 0.6 -6.7
v 6 0.7 -6.7
v 6.1 0.6 -6.7
v 6.1 0.7 -6.7
v 5.6 0.6 -6.8
v 5.6 0.7 -6.8
v 5.7 0.6 -6.8
v 5.7 0.7 -6.8
v 5.2 0.2 -6.9
v 5.2 0.3 -6.9
v 5.3 0.2 -6.9
v 5.3 0.3 -6.9
v 6.3 0.2 -6.9
v 6.3 0.3 -6.9
v 6.4 0.2 -6.9
v 6.4 0.3 -6.9
v 5.7 0.6 -5.8
v 5.7 0.7 -5.8
v 5.8 0.6 -5.8
v 5.8 0.7 -5.8
v 5.5 0.6 -5.9
v 5.5 0.7 -5.9
v 5.6 0.6 -5.9
v 5.6 0.7 -5.9
v 5.7 0.6 -5.9
v 5.7 0.7 -5.9
v 6 0.7 -5.9
v 6 0.8 -5.9
v 6.1 0.7 -5.9
v 6.2 0.7 -5.9
v 6.2 0.8 -5.9
v 6 0.6 -6
v 6 0.7 -6
v 6.1 0.6 -6
v 6.1 0.7 -6
v 5.5 0.7 -6.1
v 5.5 0.8 -6.1
v 5.6 0.7 -6.1
v 5.6 0.8 -6.1
v 5.7 0.7 -6.1
v 5.7 0.8 -6.1
v 5.8 0.7 -6.1
v 5.8 0.8 -6.1
v 6 0.7 -6.1
v 6 0.8 -6.1
v 5.5 0.6 -6.2
v 5.5 0.7 -6.2
v 5.6 0.6 -6.2
v 5.6 0.7 -6.2
v 5.7 0.7 -6.3
v 5.7 0.8 -6.3
v 5.8 0.7 -6.3
v 5.9 0.7 -6.3
v 5.9 0.8 -6.3
v 6 0.7 -6.3
v 6 0.8 -6.3
v 6.1 0.7 -6.3
v 6.1 0.8 -6.3
v 5.8 0.6 -6.4
v 5.8 0.7 -6.4
v 5.9 0.6 -6.4
v 5.9 0.7 -6.4
v 5.9 0.8 -6.4
v 6 0.7 -6.4
v 6 0.8 -6.4
v 6 0.7 -6.5
v 6 0.8 -6.5
v 6.1 0.7 -6.5
v 6.1 0.8 -6.5
v 5.8 0.6 -6.6
v 5.8 0.7 -6.6
v 5.9 0.6 -6.6
v 5.9 0.7 -6.6
v 6 0.6 -6.6
v 6 0.7 -6.6
v 6.1 0.6 -6.6
v 6.1 0.7 -6.6
v 5.3 0.4 -6.7
v 5.3 0.5 -6.7
v 5.4 0.4 -6.7
v 5.4 0.5 -6.7
v 5.6 0.6 -6.7
v 5.6 0.7 -6.7
v 5.7 0.6 -6.7
v 5.7 0.7 -6.7
v 5.7 0.8 -6.7
v 5.8 0.7 -6.7
v 5.8 0.8 -6.7
v 5.9 0.7 -6.7
v 5.9 0.8 -6.7
v 6 0.7 -6.7
v 6 0.8 -6.7
v 6.2 0.4 -6.7
v 6.2 0.5 -6.7
v 6.3 0.4 -6.7
v 6.3 0.5 -6.7
v 5.4 0.1 -6.8
v 5.4 0.2 -6.8
v 5.4 0.6 -6.8
v 5.4 0.7 -6.8
v 5.5 0.1 -6.8
v 5.5 0.2 -6.8
v 5.5 0.6 -6.8
v 5.5 0.7 -6.8
v 6.1 0.1 -6.8
v 6.1 0.2 -6.8
v 6.1 0.6 -6.8
v 6.1 0.7 -6.8
v 6.2 0.1 -6.8
v 6.2 0.2 -6.8
v 6.2 0.6 -6.8
v 6.2 0.7 -6.8
v 5.4 0.2 -6.9
v 5.4 0.4 -6.9
v 5.4 0.6 -6.9
v 5.5 0.1 -6.9
v 5.5 0.2 -6.9
v 5.5 0.6 -6.9
v 5.5 0.7 -6.9
v 6.1 0.1 -6.9
v 6.1 0.2 -6.9
v 6.1 0.6 -6.9
v 6.1 0.7 -6.9
v 6.2 0.2 -6.9
v 6.2 0.4 -6.9
v 6.2 0.6 -6.9
v 5.2 0.2 -7
v 5.2 0.5 -7
v 5.3 0.4 -7
v 5.3 0.5 -7
v 5.4 0.2 -7
v 5.4 0.4 -7
v 6.2 0.2 -7
v 6.2 0.4 -7
v 6.3 0.4 -7
v 6.3 0.5 -7
v 6.4 0.2 -7
v 6.4 0.5 -7
v 5.5 0.1 -5.7
v 6.1 0.1 -5.7
v 5.4 0.1 -5.8
v 5.5 0.1 -5.8
v 6.1 0.1 -5.8
v 6.2 0.1 -5.8
v 5.4 0.1 -6.8
v 5.5 0.1 -6.8
v 6.1 0.1 -6.8
v 6.2 0.1 -6.8
v 5.5 0.1 -6.9
v 6.1 0.1 -6.9
v 5.4 0.2 -5.7
v 5.5 0.2 -5.7
v 6.1 0.2 -5.7
v 6.2 0.2 -5.7
v 5.4 0.2 -5.8
v 5.5 0.2 -5.8
v 6.1 0.2 -5.8
v 6.2 0.2 -5.8
v 5.3 0.2 -6.3
v 5.4 0.2 -6.3
v 6.2 0.2 -6.3
v 6.3 0.2 -6.3
v 5.4 0.2 -6.8
v 5.5 0.2 -6.8
v 6.1 0.2 -6.8
v 6.2 0.2 -6.8
v 5.2 0.2 -6.9
v 5.3 0.2 -6.9
v 5.4 0.2 -6.9
v 5.5 0.2 -6.9
v 6.1 0.2 -6.9
v 6.2 0.2 -6.9
v 6.3 0.2 -6.9
v 6.4 0.2 -6.9
v 5.2 0.2 -7
v 5.4 0.2 -7
v 6.2 0.2 -7
v 6.4 0.2 -7
v 5.3 0.3 -6.1
v 5.4 0.3 -6.1
v 6.2 0.3 -6.1
v 6.3 0.3 -6.1
v 5.3 0.3 -6.3
v 5.4 0.3 -6.3
v 6.2 0.3 -6.3
v 6.3 0.3 -6.3
v 5.2 0.3 -6.4
v 5.3 0.3 -6.4
v 6.3 0.3 -6.4
v 6.4 0.3 -6.4
v 5.2 0.3 -6.9
v 5.3 0.3 -6.9
v 6.3 0.3 -6.9
v 6.4 0.3 -6.9
v 5.3 0.4 -5.8
v 5.4 0.4 -5.8
v 6.2 0.4 -5.8
v 6.3 0.4 -5.8
v 5.2 0.4 -6.1
v 5.3 0.4 -6.1
v 5.4 0.4 -6.1
v 6.2 0.4 -6.1
v 6.3 0.4 -6.1
v 6.4 0.4 -6.1
v 5.2 0.4 -6.4
v 5.3 0.4 -6.4
v 6.3 0.4 -6.4
v 6.4 0.4 -6.4
v 5.3 0.4 -6.7
v 5.4 0.4 -6.7
v 6.2 0.4 -6.7
v 6.3 0.4 -6.7
v 5.4 0.4 -6.9
v 6.2 0.4 -6.9
v 5.3 0.4 -7
v 5.4 0.4 -7
v 6.2 0.4 -7
v 6.3 0.4 -7
v 5.3 0.5 -5.8
v 5.4 0.5 -5.8
v 6.2 0.5 -5.8
v 6.3 0.5 -5.8
v 5.2 0.5 -6.1
v 5.3 0.5 -6.1
v 6.3 0.5 -6.1
v 6.4 0.5 -6.1
v 5.3 0.5 -6.7
v 5.4 0.5 -6.7
v 6.2 0.5 -6.7
v 6.3 0.5 -6.7
v 5.2 0.5 -7
v 5.3 0.5 -7
v 6.3 0.5 -7
v 6.4 0.5 -7
v 5.4 0.6 -5.7
v 5.5 0.6 -5.7
v 6.1 0.6 -5.7
v 6.2 0.6 -5.7
v 5.4 0.6 -5.8
v 5.5 0.6 -5.8
v 5.7 0.6 -5.8
v 5.8 0.6 -5.8
v 6.1 0.6 -5.8
v 6.2 0.6 -5.8
v 5.5 0.6 -5.9
v 5.6 0.6 -5.9
v 5.7 0.6 -5.9
v 5.8 0.6 -5.9
v 5.5 0.6 -6
v 5.7 0.6 -6
v 6 0.6 -6
v 6.1 0.6 -6
v 6 0.6 -6.1
v 6.1 0.6 -6.1
v 5.5 0.6 -6.2
v 5.6 0.6 -6.2
v 5.5 0.6 -6.3
v 5.6 0.6 -6.3
v 5.8 0.6 -6.4
v 5.9 0.6 -6.4
v 5.8 0.6 -6.5
v 5.9 0.6 -6.5
v 5.8 0.6 -6.6
v 5.9 0.6 -6.6
v 6 0.6 -6.6
v 6.1 0.6 -6.6
v 5.6 0.6 -6.7
v 5.7 0.6 -6.7
v 5.8 0.6 -6.7
v 5.9 0.6 -6.7
v 6 0.6 -6.7
v 6.1 0.6 -6.7
v 5.4 0.6 -6.8
v 5.5 0.6 -6.8
v 5.6 0.6 -6.8
v 5.7 0.6 -6.8
v 6.1 0.6 -6.8
v 6.2 0.6 -6.8
v 5.4 0.6 -6.9
v 5.5 0.6 -6.9
v 6.1 0.6 -6.9
v 6.2 0.6 -6.9
v 5.5 0.7 -5.7
v 6.1 0.7 -5.7
v 5.4 0.7 -5.8
v 5.5 0.7 -5.8
v 5.6 0.7 -5.8
v 5.7 0.7 -5.8
v 5.8 0.7 -5.8
v 5.9 0.7 -5.8
v 6.1 0.7 -5.8
v 5.5 0.7 -5.9
v 5.6 0.7 -5.9
v 5.7 0.7 -5.9
v 5.8 0.7 -5.9
v 5.9 0.7 -5.9
v 6 0.7 -5.9
v 6.1 0.7 -5.9
v 6.2 0.7 -5.9
v 5.5 0.7 -6
v 5.7 0.7 -6
v 5.8 0.7 -6
v 6 0.7 -6
v 6.1 0.7 -6
v 5.5 0.7 -6.1
v 5.6 0.7 -6.1
v 5.7 0.7 -6.1
v 5.8 0.7 -6.1
v 6 0.7 -6.1
v 6.1 0.7 -6.1
v 5.5 0.7 -6.2
v 5.6 0.7 -6.2
v 5.8 0.7 -6.2
v 6 0.7 -6.2
v 5.5 0.7 -6.3
v 5.6 0.7 -6.3
v 5.7 0.7 -6.3
v 5.8 0.7 -6.3
v 5.9 0.7 -6.3
v 6 0.7 -6.3
v 6.1 0.7 -6.3
v 5.5 0.7 -6.4
v 5.6 0.7 -6.4
v 5.7 0.7 -6.4
v 5.8 0.7 -6.4
v 5.9 0.7 -6.4
v 6 0.7 -6.4
v 6.1 0.7 -6.4
v 5.5 0.7 -6.5
v 5.7 0.7 -6.5
v 5.8 0.7 -6.5
v 5.9 0.7 -6.5
v 6 0.7 -6.5
v 6.1 0.7 -6.5
v 5.5 0.7 -6.6
v 5.7 0.7 -6.6
v 5.8 0.7 -6.6
v 5.9 0.7 -6.6
v 6 0.7 -6.6
v 6.1 0.7 -6.6
v 5.5 0.7 -6.7
v 5.6 0.7 -6.7
v 5.7 0.7 -6.7
v 5.8 0.7 -6.7
v 5.9 0.7 -6.7
v 6 0.7 -6.7
v 6.1 0.7 -6.7
v 5.4 0.7 -6.8
v 5.5 0.7 -6.8
v 5.6 0.7 -6.8
v 5.7 0.7 -6.8
v 5.8 0.7 -6.8
v 5.9 0.7 -6.8
v 6 0.7 -6.8
v 6.1 0.7 -6.8
v 6.2 0.7 -6.8
v 5.5 0.7 -6.9
v 6.1 0.7 -6.9
v 5.9 0.8 -5.8
v 6.2 0.8 -5.8
v 5.8 0.8 -5.9
v 5.9 0.8 -5.9
v 6 0.8 -5.9
v 6.2 0.8 -5.9
v 5.5 0.8 -6
v 5.6 0.8 -6
v 5.8 0.8 -6
v 6 0.8 -6
v 5.5 0.8 -6.1
v 5.6 0.8 -6.1
v 5.7 0.8 -6.1
v 5.8 0.8 -6.1
v 6 0.8 -6.1
v 6.1 0.8 -6.1
v 5.8 0.8 -6.2
v 6 0.8 -6.2
v 5.7 0.8 -6.3
v 5.9 0.8 -6.3
v 6 0.8 -6.3
v 6.1 0.8 -6.3
v 5.7 0.8 -6.4
v 5.8 0.8 -6.4
v 5.9 0.8 -6.4
v 6 0.8 -6.4
v 6.1 0.8 -6.4
v 5.7 0.8 -6.5
v 5.8 0.8 -6.5
v 6 0.8 -6.5
v 6.1 0.8 -6.5
v 5.7 0.8 -6.6
v 5.8 0.8 -6.6
v 5.9 0.8 -6.6
v 6 0.8 -6.6
v 5.7 0.8 -6.7
v 5.8 0.8 -6.7
v 5.9 0.8 -6.7
v 6 0.8 -6.7

# faces
f 4/5/1 2/5/1 1/5/1
f 6/5/1 4/5/1 3/5/1
f 7/5/1 6/5/1 5/5/1
f 8/5/1 2/5/1 4/5/1
f 8/5/1 6/5/1 7/5/1
f 8/5/1 4/5/1 6/5/1
f 12/5/1 10/5/1 9/5/1
f 13/5/1 10/5/1 12/5/1
f 14/5/1 10/5/1 13/5/1
f 16/5/1 12/5/1 11/5/1
f 16/5/1 13/5/1 12/5/1
f 17/5/1 13/5/1 16/5/1
f 18/5/1 16/5/1 15/5/1
f 19/5/1 16/5/1 18/5/1
f 23/4/1 21/4/1 20/4/1
f 24/4/1 21/4/1 23/4/1
f 25/4/1 21/4/1 24/4/1
f 26/4/1 23/4/1 22/4/1
f 26/4/1 24/4/1 23/4/1
f 27/4/1 24/4/1 26/4/1
f 28/4/1 26/4/1 22/4/1
f 29/4/1 26/4/1 28/4/1
f 32/4/1 28/4/1 22/4/1
f 33/4/1 31/4/1 30/4/1
f 34/4/1 32/4/1 22/4/1
f 34/4/1 33/4/1 32/4/1
f 35/4/1 33/4/1 34/4/1
f 36/4/1 31/4/1 33/4/1
f 36/4/1 33/4/1 35/4/1
f 37/4/1 31/4/1 36/4/1
f 38/4/1 36/4/1 35/4/1
f 39/4/1 36/4/1 38/4/1
f 44/4/1 41/4/1 40/4/1
f 45/4/1 41/4/1 44/4/1
f 46/4/1 43/4/1 42/4/1
f 47/4/1 43/4/1 46/4/1
f 52/4/1 49/4/1 48/4/1
f 53/4/1 49/4/1 52/4/1
f 56/4/1 51/4/1 50/4/1
f 57/4/1 51/4/1 56/4/1
f 58/2/1 55/2/1 54/2/1
f 59/2/1 55/2/1 58/2/1
f 62/1/1 61/1/1 60/1/1
f 63/1/1 61/1/1 62/1/1
f 68/2/1 65/2/1 64/2/1
f 69/2/1 65/2/1 68/2/1
f 75/2/1 67/2/1 66/2/1
f 76/2/1 67/2/1 75/2/1
f 77/1/1 71/1/1 70/1/1
f 78/1/1 71/1/1 77/1/1
f 79/2/1 73/2/1 72/2/1
f 80/1/1 74/1/1 73/1/1
f 80/2/1 73/2/1 79/2/1
f 81/2/1 75/2/1 74/2/1
f 81/1/1 74/1/1 80/1/1
f 82/2/1 75/2/1 81/2/1
f 85/1/1 84/1/1 83/1/1
f 86/1/1 84/1/1 85/1/1
f 88/2/1 87/2/1 86/2/1
f 89/2/1 87/2/1 88/2/1
f 97/1/1 91/1/1 90/1/1
f 98/1/1 91/1/1 97/1/1
f 99/2/1 93/2/1 92/2/1
f 100/2/1 93/2/1 99/2/1
f 101/2/1 95/2/1 94/2/1
f 102/2/1 95/2/1 101/2/1
f 103/2/1 97/2/1 96/2/1
f 104/2/1 97/2/1 103/2/1
f 105/2/1 100/2/1 99/2/1
f 106/2/1 100/2/1 105/2/1
f 111/2/1 108/2/1 107/2/1
f 112/2/1 108/2/1 111/2/1
f 113/2/1 110/2/1 109/2/1
f 114/2/1 110/2/1 113/2/1
f 119/4/1 116/4/1 115/4/1
f 120/4/1 116/4/1 119/4/1
f 121/4/1 118/4/1 117/4/1
f 122/4/1 118/4/1 121/4/1
f 125/5/1 124/5/1 123/5/1
f 126/5/1 124/5/1 125/5/1
f 129/5/1 128/5/1 127/5/1
f 130/5/1 128/5/1 129/5/1
f 131/5/2 132/5/2 133/5/2
f 133/5/2 132/5/2 134/5/2
f 135/5/2 136/5/2 137/5/2
f 137/5/2 136/5/2 138/5/2
f 139/4/2 140/4/2 143/4/2
f 143/4/2 140/4/2 144/4/2
f 141/4/2 142/4/2 145/4/2
f 145/4/2 142/4/2 146/4/2
f 147/4/2 148/4/2 149/4/2
f 149/4/2 148/4/2 150/4/2
f 151/1/2 152/1/2 153/1/2
f 153/1/2 152/1/2 154/1/2
f 155/2/2 156/2/2 161/2/2
f 161/2/2 156/2/2 162/2/2
f 157/2/2 158/2/2 163/2/2
f 163/2/2 158/2/2 164/2/2
f 159/1/2 160/1/2 165/1/2
f 165/1/2 160/1/2 166/1/2
f 161/2/2 162/2/2 167/2/2
f 162/1/2 163/1/2 168/1/2
f 167/2/2 162/2/2 168/2/2
f 163/2/2 164/2/2 169/2/2
f 168/1/2 163/1/2 169/1/2
f 169/2/2 164/2/2 170/2/2
f 171/2/2 172/2/2 176/2/2
f 176/2/2 172/2/2 177/2/2
f 173/2/2 174/2/2 180/2/2
f 180/2/2 174/2/2 181/2/2
f 175/2/2 176/2/2 182/2/2
f 176/1/2 177/1/2 183/1/2
f 182/2/2 176/2/2 183/2/2
f 183/1/2 177/1/2 184/1/2
f 178/2/2 179/2/2 185/2/2
f 185/2/2 179/2/2 186/2/2
f 180/2/2 181/2/2 187/2/2
f 187/2/2 181/2/2 188/2/2
f 189/4/2 190/4/2 193/4/2
f 193/4/2 190/4/2 194/4/2
f 191/4/2 192/4/2 195/4/2
f 195/4/2 192/4/2 196/4/2
f 197/4/2 198/4/2 201/4/2
f 201/4/2 198/4/2 202/4/2
f 199/4/2 200/4/2 207/4/2
f 207/4/2 200/4/2 208/4/2
f 203/2/2 204/2/2 209/2/2
f 209/2/2 204/2/2 210/2/2
f 205/2/2 206/2/2 211/2/2
f 211/2/2 206/2/2 212/2/2
f 213/4/2 214/4/2 216/4/2
f 216/4/2 214/4/2 217/4/2
f 217/4/2 214/4/2 218/4/2
f 215/4/2 216/4/2 219/4/2
f 216/4/2 217/4/2 219/4/2
f 219/4/2 217/4/2 220/4/2
f 215/4/2 219/4/2 221/4/2
f 221/4/2 219/4/2 222/4/2
f 215/4/2 221/4/2 225/4/2
f 223/4/2 224/4/2 226/4/2
f 215/4/2 225/4/2 227/4/2
f 225/4/2 226/4/2 227/4/2
f 227/4/2 226/4/2 228/4/2
f 226/4/2 224/4/2 229/4/2
f 228/4/2 226/4/2 229/4/2
f 229/4/2 224/4/2 230/4/2
f 228/4/2 229/4/2 231/4/2
f 231/4/2 229/4/2 232/4/2
f 232/4/2 229/4/2 233/4/2
f 231/2/2 232/2/2 234/2/2
f 234/2/2 232/2/2 235/2/2
f 236/5/2 237/5/2 239/5/2
f 239/5/2 237/5/2 240/5/2
f 240/5/2 237/5/2 241/5/2
f 238/5/2 239/5/2 243/5/2
f 239/5/2 240/5/2 243/5/2
f 243/5/2 240/5/2 244/5/2
f 242/5/2 243/5/2 245/5/2
f 245/5/2 243/5/2 246/5/2
f 247/5/2 248/5/2 250/5/2
f 249/5/2 250/5/2 252/5/2
f 251/5/2 252/5/2 253/5/2
f 250/5/2 248/5/2 254/5/2
f 253/5/2 252/5/2 254/5/2
f 252/5/2 250/5/2 254/5/2
f 258/4/3 256/4/3 255/4/3
f 259/4/3 256/4/3 258/4/3
f 261/4/3 258/4/3 257/4/3
f 261/4/3 260/4/3 259/4/3
f 261/4/3 259/4/3 258/4/3
f 262/4/3 260/4/3 261/4/3
f 263/4/3 260/4/3 262/4/3
f 264/4/3 260/4/3 263/4/3
f 265/4/3 263/4/3 262/4/3
f 266/4/3 263/4/3 265/4/3
f 271/5/3 268/5/3 267/5/3
f 272/5/3 268/5/3 271/5/3
f 275/4/3 270/4/3 269/4/3
f 276/4/3 270/4/3 275/4/3
f 277/4/3 274/4/3 273/4/3
f 278/4/3 274/4/3 277/4/3
f 284/2/3 280/2/3 279/2/3
f 285/4/3 282/4/3 281/4/3
f 286/4/3 282/4/3 285/4/3
f 289/4/3 284/4/3 283/4/3
f 290/2/3 280/2/3 284/2/3
f 290/4/3 284/4/3 289/4/3
f 291/2/3 280/2/3 290/2/3
f 292/5/3 288/5/3 287/5/3
f 293/5/3 288/5/3 292/5/3
f 296/2/3 295/2/3 294/2/3
f 297/2/3 295/2/3 296/2/3
f 299/2/3 298/2/3 297/2/3
f 300/2/3 298/2/3 299/2/3
f 304/2/3 302/2/3 301/2/3
f 304/2/3 303/2/3 302/2/3
f 305/2/3 303/2/3 304/2/3
f 306/2/3 304/2/3 301/2/3
f 307/1/3 305/1/3 304/1/3
f 307/2/3 304/2/3 306/2/3
f 308/1/3 305/1/3 307/1/3
f 309/1/3 305/1/3 308/1/3
f 313/5/3 311/5/3 310/5/3
f 314/5/3 311/5/3 313/5/3
f 315/5/3 313/5/3 312/5/3
f 316/5/3 313/5/3 315/5/3
f 320/2/3 318/2/3 317/2/3
f 320/2/3 319/2/3 318/2/3
f 321/2/3 319/2/3 320/2/3
f 322/2/3 319/2/3 321/2/3
f 325/5/3 324/5/3 323/5/3
f 326/5/3 324/5/3 325/5/3
f 328/5/3 327/5/3 326/5/3
f 329/5/3 327/5/3 328/5/3
f 332/1/3 331/1/3 330/1/3
f 333/1/3 331/1/3 332/1/3
f 336/5/3 335/5/3 334/5/3
f 337/5/3 335/5/3 336/5/3
f 340/1/3 339/1/3 338/1/3
f 341/1/3 339/1/3 340/1/3
f 344/5/3 343/5/3 342/5/3
f 345/5/3 343/5/3 344/5/3
f 348/5/3 347/5/3 346/5/3
f 349/5/3 347/5/3 348/5/3
f 352/2/3 351/2/3 350/2/3
f 353/2/3 351/2/3 352/2/3
f 356/2/3 355/2/3 354/2/3
f 357/2/3 355/2/3 356/2/3
f 360/5/3 359/5/3 358/5/3
f 361/5/3 359/5/3 360/5/3
f 364/1/3 363/1/3 362/1/3
f 365/1/3 363/1/3 364/1/3
f 368/2/3 367/2/3 366/2/3
f 369/2/3 367/2/3 368/2/3
f 372/1/3 371/1/3 370/1/3
f 373/1/3 371/1/3 372/1/3
f 376/4/3 375/4/3 374/4/3
f 377/4/3 375/4/3 376/4/3
f 380/4/3 379/4/3 378/4/3
f 381/4/3 379/4/3 380/4/3
f 384/5/3 383/5/3 382/5/3
f 385/5/3 383/5/3 384/5/3
f 388/5/3 387/5/3 386/5/3
f 389/5/3 387/5/3 388/5/3
f 390/4/4 391/4/4 392/4/4
f 392/4/4 391/4/4 393/4/4
f 394/4/4 395/4/4 396/4/4
f 396/4/4 395/4/4 397/4/4
f 396/1/4 397/1/4 398/1/4
f 398/1/4 397/1/4 399/1/4
f 400/2/4 401/2/4 402/2/4
f 402/2/4 401/2/4 403/2/4
f 403/2/4 401/2/4 404/2/4
f 405/1/4 406/1/4 407/1/4
f 407/1/4 406/1/4 408/1/4
f 409/2/4 410/2/4 411/2/4
f 411/2/4 410/2/4 412/2/4
f 411/1/4 412/1/4 413/1/4
f 413/1/4 412/1/4 414/1/4
f 415/1/4 416/1/4 417/1/4
f 417/1/4 416/1/4 418/1/4
f 419/1/4 420/1/4 421/1/4
f 421/1/4 420/1/4 422/1/4
f 423/1/4 424/1/4 425/1/4
f 425/1/4 424/1/4 426/1/4
f 426/1/4 424/1/4 427/1/4
f 428/2/4 429/2/4 430/2/4
f 430/2/4 429/2/4 431/2/4
f 432/2/4 433/2/4 434/2/4
f 434/2/4 433/2/4 435/2/4
f 435/2/4 436/2/4 437/2/4
f 437/2/4 436/2/4 438/2/4
f 439/2/4 440/2/4 441/2/4
f 441/2/4 440/2/4 442/2/4
f 443/1/4 444/1/4 445/1/4
f 445/1/4 444/1/4 446/1/4
f 447/1/4 448/1/4 449/1/4
f 449/1/4 448/1/4 450/1/4
f 451/5/4 452/5/4 453/5/4
f 453/5/4 452/5/4 454/5/4
f 455/2/4 456/2/4 457/2/4
f 457/2/4 456/2/4 458/2/4
f 458/2/4 459/2/4 460/2/4
f 460/2/4 459/2/4 461/2/4
f 462/2/4 463/2/4 464/2/4
f 464/2/4 463/2/4 465/2/4
f 466/5/4 467/5/4 468/5/4
f 468/5/4 467/5/4 469/5/4
f 470/4/4 471/4/4 474/4/4
f 474/4/4 471/4/4 475/4/4
f 472/4/4 473/4/4 476/4/4
f 476/4/4 473/4/4 477/4/4
f 478/4/4 479/4/4 482/4/4
f 482/4/4 479/4/4 483/4/4
f 480/4/4 481/4/4 484/4/4
f 484/4/4 481/4/4 485/4/4
f 486/4/4 487/4/4 490/4/4
f 487/4/4 488/4/4 490/4/4
f 490/4/4 488/4/4 491/4/4
f 489/4/4 490/4/4 493/4/4
f 491/4/4 492/4/4 493/4/4
f 490/4/4 491/4/4 493/4/4
f 493/4/4 492/4/4 494/4/4
f 494/4/4 492/4/4 495/4/4
f 495/4/4 492/4/4 496/4/4
f 494/4/4 495/4/4 497/4/4
f 497/4/4 495/4/4 498/4/4
f 498/4/4 495/4/4 499/4/4
f 500/5/4 501/5/4 502/5/4
f 502/5/4 501/5/4 503/5/4
f 500/5/4 502/5/4 504/5/4
f 504/5/4 502/5/4 505/5/4
f 506/5/4 507/5/4 508/5/4
f 506/5/4 508/5/4 510/5/4
f 508/5/4 509/5/4 510/5/4
f 510/5/4 509/5/4 511/5/4
f 515/4/5 513/4/5 512/4/5
f 516/4/5 513/4/5 515/4/5
f 518/4/5 515/4/5 514/4/5
f 518/4/5 517/4/5 516/4/5
f 518/4/5 516/4/5 515/4/5
f 519/4/5 517/4/5 518/4/5
f 520/4/5 517/4/5 519/4/5
f 521/4/5 517/4/5 520/4/5
f 522/4/5 520/4/5 519/4/5
f 523/4/5 520/4/5 522/4/5
f 528/4/5 525/4/5 524/4/5
f 529/4/5 525/4/5 528/4/5
f 530/4/5 527/4/5 526/4/5
f 531/4/5 527/4/5 530/4/5
f 536/5/5 533/5/5 532/5/5
f 539/5/5 535/5/5 534/5/5
f 541/5/5 536/5/5 532/5/5
f 542/4/5 537/4/5 536/4/5
f 542/5/5 536/5/5 541/5/5
f 543/4/5 537/4/5 542/4/5
f 544/4/5 539/4/5 538/4/5
f 545/5/5 535/5/5 539/5/5
f 545/4/5 539/4/5 544/4/5
f 546/5/5 535/5/5 545/5/5
f 548/5/5 541/5/5 540/5/5
f 548/5/5 542/5/5 541/5/5
f 549/5/5 542/5/5 548/5/5
f 550/5/5 547/5/5 546/5/5
f 550/5/5 546/5/5 545/5/5
f 551/5/5 547/5/5 550/5/5
f 556/5/5 553/5/5 552/5/5
f 557/5/5 553/5/5 556/5/5
f 558/5/5 555/5/5 554/5/5
f 559/5/5 555/5/5 558/5/5
f 564/5/5 561/5/5 560/5/5
f 565/5/5 561/5/5 564/5/5
f 566/5/5 563/5/5 562/5/5
f 567/5/5 563/5/5 566/5/5
f 573/5/5 569/5/5 568/5/5
f 574/5/5 569/5/5 573/5/5
f 575/5/5 571/5/5 570/5/5
f 576/5/5 571/5/5 575/5/5
f 578/5/5 573/5/5 572/5/5
f 579/5/5 573/5/5 578/5/5
f 580/5/5 577/5/5 576/5/5
f 581/5/5 577/5/5 580/5/5
f 582/5/6 583/5/6 586/5/6
f 584/5/6 585/5/6 587/5/6
f 582/5/6 586/5/6 588/5/6
f 588/5/6 586/5/6 589/5/6
f 587/5/6 585/5/6 590/5/6
f 590/5/6 585/5/6 591/5/6
f 592/5/6 593/5/6 597/5/6
f 594/5/6 595/5/6 598/5/6
f 596/5/6 597/5/6 600/5/6
f 597/5/6 593/5/6 600/5/6
f 600/5/6 593/5/6 601/5/6
f 598/5/6 599/5/6 602/5/6
f 594/5/6 598/5/6 602/5/6
f 602/5/6 599/5/6 603/5/6
f 596/5/6 600/5/6 604/5/6
f 604/5/6 600/5/6 605/5/6
f 603/5/6 599/5/6 606/5/6
f 606/5/6 599/5/6 607/5/6
f 608/4/6 609/4/6 612/4/6
f 612/4/6 609/4/6 613/4/6
f 610/4/6 611/4/6 616/4/6
f 616/4/6 611/4/6 617/4/6
f 614/1/6 615/1/6 620/1/6
f 620/1/6 615/1/6 621/1/6
f 618/1/6 619/1/6 622/1/6
f 619/1/6 620/1/6 622/1/6
f 622/1/6 620/1/6 623/1/6
f 624/1/6 625/1/6 626/1/6
f 626/1/6 625/1/6 627/1/6
f 628/1/6 629/1/6 630/1/6
f 630/1/6 629/1/6 631/1/6
f 632/1/6 633/1/6 634/1/6
f 634/1/6 633/1/6 635/1/6
f 636/1/6 637/1/6 642/1/6
f 642/1/6 637/1/6 643/1/6
f 638/1/6 639/1/6 644/1/6
f 644/1/6 639/1/6 645/1/6
f 640/1/6 641/1/6 648/1/6
f 648/1/6 641/1/6 649/1/6
f 646/4/6 647/4/6 652/4/6
f 652/4/6 647/4/6 653/4/6
f 650/4/6 651/4/6 654/4/6
f 654/4/6 651/4/6 655/4/6
f 656/4/6 657/4/6 659/4/6
f 659/4/6 657/4/6 660/4/6
f 660/4/6 657/4/6 661/4/6
f 661/4/6 657/4/6 662/4/6
f 662/4/6 657/4/6 663/4/6
f 663/4/6 657/4/6 664/4/6
f 658/4/6 659/4/6 665/4/6
f 659/4/6 660/4/6 665/4/6
f 660/1/6 661/1/6 666/1/6
f 665/4/6 660/4/6 666/4/6
f 666/1/6 661/1/6 667/1/6
f 662/1/6 663/1/6 668/1/6
f 668/1/6 663/1/6 669/1/6
f 658/4/6 665/4/6 673/4/6
f 667/2/6 668/2/6 674/2/6
f 674/2/6 668/2/6 675/2/6
f 670/1/6 671/1/6 676/1/6
f 671/4/6 672/4/6 677/4/6
f 676/1/6 671/1/6 677/1/6
f 658/4/6 673/4/6 678/4/6
f 677/4/6 672/4/6 683/4/6
f 658/4/6 678/4/6 684/4/6
f 678/1/6 679/1/6 684/1/6
f 679/1/6 680/1/6 684/1/6
f 684/1/6 680/1/6 685/1/6
f 681/1/6 682/1/6 686/1/6
f 686/1/6 682/1/6 687/1/6
f 658/4/6 684/4/6 688/4/6
f 685/1/6 680/1/6 689/1/6
f 689/1/6 680/1/6 690/1/6
f 683/4/6 672/4/6 694/4/6
f 658/4/6 688/4/6 695/4/6
f 688/1/6 689/1/6 695/1/6
f 689/2/6 690/2/6 696/2/6
f 695/1/6 689/1/6 696/1/6
f 690/1/6 691/1/6 697/1/6
f 696/2/6 690/2/6 697/2/6
f 691/2/6 692/2/6 698/2/6
f 697/1/6 691/1/6 698/1/6
f 698/2/6 692/2/6 699/2/6
f 693/1/6 694/1/6 700/1/6
f 694/4/6 672/4/6 701/4/6
f 700/1/6 694/1/6 701/1/6
f 696/2/6 697/2/6 702/2/6
f 695/2/6 696/2/6 702/2/6
f 658/4/6 695/4/6 702/4/6
f 702/2/6 697/2/6 703/2/6
f 699/1/6 700/1/6 705/1/6
f 705/1/6 700/1/6 706/1/6
f 701/4/6 672/4/6 707/4/6
f 702/1/6 703/1/6 708/1/6
f 658/4/6 702/4/6 708/4/6
f 708/1/6 703/1/6 709/1/6
f 704/1/6 705/1/6 710/1/6
f 705/2/6 706/2/6 711/2/6
f 710/1/6 705/1/6 711/1/6
f 706/1/6 707/1/6 712/1/6
f 711/2/6 706/2/6 712/2/6
f 707/4/6 672/4/6 713/4/6
f 712/1/6 707/1/6 713/1/6
f 658/4/6 708/4/6 714/4/6
f 708/2/6 709/2/6 714/2/6
f 714/2/6 709/2/6 715/2/6
f 715/2/6 709/2/6 716/2/6
f 713/4/6 672/4/6 720/4/6
f 658/4/6 714/4/6 721/4/6
f 714/4/6 715/4/6 721/4/6
f 721/4/6 715/4/6 722/4/6
f 722/4/6 715/4/6 723/4/6
f 716/2/6 717/2/6 724/2/6
f 717/1/6 718/1/6 725/1/6
f 724/2/6 717/2/6 725/2/6
f 718/2/6 719/2/6 726/2/6
f 725/1/6 718/1/6 726/1/6
f 719/4/6 720/4/6 727/4/6
f 726/2/6 719/2/6 727/2/6
f 720/4/6 672/4/6 728/4/6
f 727/4/6 720/4/6 728/4/6
f 728/4/6 672/4/6 729/4/6
f 724/4/6 725/4/6 730/4/6
f 725/4/6 726/4/6 730/4/6
f 727/4/6 728/4/6 730/4/6
f 726/4/6 727/4/6 730/4/6
f 722/4/6 723/4/6 730/4/6
f 723/4/6 724/4/6 730/4/6
f 730/4/6 728/4/6 731/4/6
f 732/2/6 733/2/6 735/2/6
f 735/2/6 733/2/6 736/2/6
f 736/2/6 733/2/6 737/2/6
f 734/2/6 735/2/6 740/2/6
f 735/2/6 736/2/6 740/2/6
f 740/2/6 736/2/6 741/2/6
f 738/2/6 739/2/6 742/2/6
f 739/1/6 740/1/6 743/1/6
f 742/2/6 739/2/6 743/2/6
f 740/1/6 741/1/6 743/1/6
f 743/1/6 741/1/6 744/1/6
f 744/1/6 741/1/6 745/1/6
f 745/1/6 741/1/6 746/1/6
f 744/1/6 745/1/6 748/1/6
f 746/2/6 747/2/6 749/2/6
f 744/1/6 748/1/6 750/1/6
f 748/1/6 749/1/6 750/1/6
f 750/1/6 749/1/6 751/1/6
f 749/2/6 747/2/6 752/2/6
f 751/1/6 749/1/6 752/1/6
f 752/2/6 747/2/6 753/2/6
f 751/2/6 752/2/6 756/2/6
f 756/2/6 752/2/6 757/2/6
f 754/2/6 755/2/6 759/2/6
f 759/2/6 755/2/6 760/2/6
f 757/2/6 758/2/6 761/2/6
f 761/2/6 758/2/6 762/2/6
f 759/1/6 760/1/6 763/1/6
f 763/1/6 760/1/6 764/1/6
f 763/2/6 764/2/6 767/2/6
f 767/2/6 764/2/6 768/2/6
f 765/2/6 766/2/6 769/2/6
f 769/2/6 766/2/6 770/2/6
